<svg width="79" height="82" viewBox="0 0 79 82" fill="none" xmlns="http://www.w3.org/2000/svg">
<path fill-rule="evenodd" clip-rule="evenodd" d="M34.9885 2C35.0507 13.9048 23.3359 36.0088 68.3279 41.2137C40.3984 44.0042 35.5914 58.3781 34.9937 77.5462C34.3088 63.0768 32.908 46.243 1.12695 41.4144C31.9322 38.8695 31.4127 18.2458 34.9885 2Z" fill="none" stroke="#4FC4D0" stroke-width="2.09362" stroke-miterlimit="1.5" stroke-linecap="round" stroke-linejoin="round"/>
<path d="M11.3721 13.834C12.1697 14.6783 13.132 15.4477 14.001 16.2579" stroke="#4FC4D0" stroke-width="2.09362" stroke-miterlimit="1.5" stroke-linecap="round" stroke-linejoin="round"/>
<path d="M2.31592 61.9932C4.05452 60.7946 5.85492 59.6395 7.567 58.4219" stroke="#4FC4D0" stroke-width="2.09362" stroke-miterlimit="1.5" stroke-linecap="round" stroke-linejoin="round"/>
<path d="M53.4619 22.9974C61.1561 18.1773 67.8488 12.8819 74.327 7.28418" stroke="#4FC4D0" stroke-width="2.09362" stroke-miterlimit="1.5" stroke-linecap="round" stroke-linejoin="round"/>
<path d="M55.3394 62.4102C64.4105 66.3171 70.7234 74.3617 76.9997 80.2383" stroke="#4FC4D0" stroke-width="2.09362" stroke-miterlimit="1.5" stroke-linecap="round" stroke-linejoin="round"/>
</svg>
