<svg width="18" height="17" viewBox="0 0 18 17" fill="none" xmlns="http://www.w3.org/2000/svg">
<path d="M2.4334 0.000758372H15.041C15.3283 -0.00693564 15.6142 0.0439827 15.8812 0.150407C16.1481 0.256832 16.3907 0.416532 16.5939 0.619765C16.7971 0.822998 16.9568 1.0655 17.0632 1.33249C17.1697 1.59948 17.2206 1.88534 17.2129 2.17266V14.7803C17.2206 15.0676 17.1697 15.3534 17.0632 15.6204C16.9568 15.8874 16.7971 16.1299 16.5939 16.3331C16.3907 16.5364 16.1481 16.6961 15.8812 16.8025C15.6142 16.9089 15.3283 16.9598 15.041 16.9521H2.4334C2.14609 16.9598 1.86022 16.9089 1.59323 16.8025C1.32625 16.6961 1.08374 16.5364 0.880507 16.3331C0.677274 16.1299 0.517574 15.8874 0.41115 15.6204C0.304725 15.3534 0.253807 15.0676 0.261501 14.7803V2.17266C0.253807 1.88534 0.304725 1.59948 0.41115 1.33249C0.517574 1.0655 0.677274 0.822998 0.880507 0.619765C1.08374 0.416532 1.32625 0.256832 1.59323 0.150407C1.86022 0.0439827 2.14609 -0.00693564 2.4334 0.000758372V0.000758372ZM12.6042 1.8813C12.4005 1.8813 12.2051 1.96223 12.0611 2.10628C11.917 2.25033 11.8361 2.4457 11.8361 2.64941V4.47699C11.8361 4.6807 11.917 4.87607 12.0611 5.02012C12.2051 5.16417 12.4005 5.24509 12.6042 5.24509H14.5113C14.715 5.24509 14.9104 5.16417 15.0544 5.02012C15.1984 4.87607 15.2794 4.6807 15.2794 4.47699V2.64941C15.2794 2.4457 15.1984 2.25033 15.0544 2.10628C14.9104 1.96223 14.715 1.8813 14.5113 1.8813H12.6042ZM15.3059 7.17861H13.8226C13.9615 7.65179 14.0329 8.14223 14.0345 8.63537C14.0345 11.4429 11.6772 13.7473 8.76368 13.7473C5.85016 13.7473 3.49286 11.4694 3.49286 8.63537C3.4945 8.14223 3.56584 7.65179 3.70475 7.17861H2.14205V14.33C2.1412 14.4172 2.15774 14.5037 2.19072 14.5844C2.2237 14.6651 2.27244 14.7384 2.3341 14.8001C2.39575 14.8618 2.46909 14.9105 2.54981 14.9435C2.63053 14.9764 2.71702 14.993 2.80421 14.9921H14.6172C14.7044 14.993 14.7909 14.9764 14.8716 14.9435C14.9523 14.9105 15.0257 14.8618 15.0873 14.8001C15.149 14.7384 15.1977 14.6651 15.2307 14.5844C15.2637 14.5037 15.2802 14.4172 15.2794 14.33L15.3059 7.17861V7.17861ZM8.76368 5.13915C7.87199 5.12661 7.01168 5.46803 6.37124 6.08861C5.7308 6.70919 5.36246 7.55832 5.34692 8.44997C5.35518 8.8901 5.45016 9.32428 5.62643 9.72766C5.80269 10.131 6.05678 10.4957 6.37414 10.8008C6.69151 11.1058 7.06592 11.3453 7.47595 11.5055C7.88598 11.6657 8.32357 11.7434 8.76368 11.7343C9.65538 11.7468 10.5157 11.4054 11.1561 10.7848C11.7966 10.1643 12.1649 9.31513 12.1804 8.42348C12.1722 7.98335 12.0772 7.54917 11.9009 7.14579C11.7247 6.74241 11.4706 6.37775 11.1532 6.07269C10.8359 5.76763 10.4614 5.52815 10.0514 5.36796C9.64139 5.20777 9.2038 5.13002 8.76368 5.13915V5.13915Z" fill="#000123"/>
</svg>
