<svg width="18" height="16" viewBox="0 0 18 16" fill="none" xmlns="http://www.w3.org/2000/svg">
<path d="M0.443294 5.05938H3.88685V15.4695H0.443294V5.05938ZM12.7739 4.71503C11.264 4.71503 10.3634 5.2713 9.40979 6.48979V5.05938H5.96623V15.4695H9.43628V9.82739C9.43628 8.63539 10.0455 7.46988 11.423 7.46988C12.8004 7.46988 13.6215 8.63539 13.6215 9.8009V15.4695H17.0916V9.5625C17.0916 5.45672 14.3102 4.71503 12.7739 4.71503V4.71503ZM2.17832 0C1.0393 0 0.138672 0.821157 0.138672 1.82774C0.138672 2.83431 1.0393 3.65547 2.17832 3.65547C3.31734 3.65547 4.21797 2.83431 4.21797 1.82774C4.21797 0.821157 3.31734 0 2.17832 0Z" fill="#000123"/>
</svg>
