<svg width="80" height="82" viewBox="0 0 80 82" fill="none" xmlns="http://www.w3.org/2000/svg">
<path fill-rule="evenodd" clip-rule="evenodd" d="M35.9182 2C35.9806 13.9048 24.2462 36.0088 69.3135 41.2137C41.3372 44.0042 36.5222 58.3781 35.9235 77.5462C35.2374 63.0768 33.8343 46.243 2 41.4144C32.8569 38.8695 32.3364 18.2458 35.9182 2Z" fill="none" stroke="#4FC4D0" stroke-width="2.09362" stroke-miterlimit="1.5" stroke-linecap="round" stroke-linejoin="round"/>
<path d="M12.2622 13.8345C13.0611 14.6788 14.0251 15.4482 14.8955 16.2584" stroke="#4FC4D0" stroke-width="2.09362" stroke-miterlimit="1.5" stroke-linecap="round" stroke-linejoin="round"/>
<path d="M3.19092 61.9932C4.93243 60.7946 6.73584 59.6395 8.45079 58.4219" stroke="#4FC4D0" stroke-width="2.09362" stroke-miterlimit="1.5" stroke-linecap="round" stroke-linejoin="round"/>
<path d="M54.4226 22.9969C62.1297 18.1768 68.8336 12.8814 75.3227 7.28369" stroke="#4FC4D0" stroke-width="2.09362" stroke-miterlimit="1.5" stroke-linecap="round" stroke-linejoin="round"/>
<path d="M56.3035 62.4104C65.3898 66.3173 71.7133 74.3619 78.0001 80.2386" stroke="#4FC4D0" stroke-width="2.09362" stroke-miterlimit="1.5" stroke-linecap="round" stroke-linejoin="round"/>
</svg>
