<svg width="63" height="62" viewBox="0 0 63 62" fill="none" xmlns="http://www.w3.org/2000/svg">
<path d="M52.1808 21.397C52.126 21.1825 51.9898 20.9977 51.8011 20.8813L31.9644 9.01227C31.8402 8.93717 31.6977 8.89746 31.5524 8.89746C31.4071 8.89746 31.2645 8.93717 31.1403 9.01227L11.3036 20.8813C11.1836 20.9533 11.0842 21.0548 11.0148 21.1761C10.9455 21.2975 10.9086 21.4346 10.9077 21.5742V41.3479C10.9087 41.4875 10.9456 41.6246 11.0149 41.7459C11.0843 41.8673 11.1837 41.9688 11.3036 42.0408L31.1403 53.9099C31.2652 53.983 31.4075 54.0216 31.5524 54.0216C31.6972 54.0216 31.8395 53.983 31.9644 53.9099L51.8011 42.0408C51.9211 41.9688 52.0205 41.8673 52.0898 41.7459C52.1591 41.6246 52.196 41.4875 52.197 41.3479V21.5742C52.196 21.5148 52.1906 21.4556 52.1808 21.397ZM30.7444 51.7907L12.5237 40.8967V22.9924L30.7444 33.8945V51.7907ZM31.5524 32.5005L13.2913 21.5742L31.5524 10.648L49.8134 21.5742L31.5524 32.5005ZM50.581 40.8967L32.3604 51.7907V33.8945L50.581 22.9924V40.8967Z" fill="white"/>
<path d="M45.2895 42.5807C45.4366 42.7652 49.5412 40.115 49.7449 40.0481C49.9286 39.9381 50.061 39.7597 50.1129 39.5523C50.1648 39.3449 50.132 39.1255 50.0216 38.9422C49.9112 38.759 49.7324 38.627 49.5244 38.5752C49.3164 38.5234 49.0964 38.5562 48.9126 38.6663L44.8726 41.0836C44.7242 41.1764 44.6099 41.3144 44.5466 41.4772C44.4834 41.6401 44.4745 41.8189 44.5213 41.9871C44.5682 42.1554 44.6683 42.304 44.8067 42.411C44.9451 42.5179 45.1144 42.5775 45.2895 42.5807ZM45.2895 39.3576C45.4366 39.5421 49.5412 36.8919 49.7449 36.8251C49.9286 36.715 50.061 36.5367 50.1129 36.3293C50.1648 36.1219 50.132 35.9024 50.0216 35.7191C49.967 35.6284 49.8949 35.5493 49.8096 35.4863C49.7243 35.4233 49.6274 35.3777 49.5244 35.3521C49.3164 35.3004 49.0964 35.3331 48.9126 35.4432L44.8726 37.8605C44.7242 37.9533 44.6099 38.0914 44.5466 38.2542C44.4834 38.417 44.4745 38.5958 44.5213 38.764C44.5682 38.9323 44.6683 39.0809 44.8067 39.1879C44.9451 39.2948 45.1144 39.3544 45.2895 39.3576Z" fill="white"/>
</svg>
