<svg width="203" height="179" viewBox="0 0 203 179" fill="none" xmlns="http://www.w3.org/2000/svg">
<path d="M148.818 136.842C138.07 146.94 124.458 153.481 109.838 155.571C95.2188 157.662 80.3035 155.202 67.126 148.526C53.9485 141.85 43.1501 131.283 36.2033 118.266C29.2565 105.248 26.4992 90.4148 28.3076 75.7872L29.0255 75.8765C27.2354 90.3567 29.9649 105.041 36.8417 117.927C43.7186 130.813 54.4081 141.273 67.4528 147.882C80.4976 154.491 95.2626 156.927 109.735 154.857C124.207 152.787 137.682 146.313 148.322 136.316L148.818 136.842Z" fill="#154E6B"/>
<path d="M50.3183 32.4464C61.067 22.3483 74.679 15.8079 89.2985 13.7171C103.918 11.6262 118.833 14.0866 132.011 20.7628C145.188 27.439 155.987 38.006 162.933 51.0231C169.88 64.0402 172.637 78.8738 170.829 93.5013L170.111 93.4121C171.901 78.9319 169.172 64.2478 162.295 51.3618C155.418 38.4759 144.729 28.0153 131.684 21.4064C118.639 14.7975 103.874 12.3619 89.402 14.4317C74.9298 16.5015 61.4549 22.976 50.8145 32.9723L50.3183 32.4464Z" fill="#154E6B"/>
<path d="M46.5584 20.7563L47.1722 22.8097C49.1073 29.2828 55.7654 33.1266 62.3386 31.5654L64.4405 31.0661L62.3696 31.6804C55.8931 33.6013 52.0569 40.2453 53.6312 46.8147L54.1306 48.8987L53.5167 46.8452C51.5817 40.3721 44.9235 36.5284 38.3503 38.0896L36.2485 38.5888L38.3194 37.9746C44.7958 36.0537 48.632 29.4096 47.0578 22.8403L46.5584 20.7563Z" fill="#FDD619"/>
<path d="M182.91 83.8682L181.21 85.1916C175.882 89.3387 174.737 96.9221 178.603 102.465L179.833 104.228L178.508 102.536C174.341 97.2131 166.737 96.0588 161.188 99.9061L159.417 101.134L161.117 99.8104C166.445 95.6632 167.589 88.0799 163.723 82.5366L162.494 80.7743L163.819 82.4664C167.985 87.7888 175.589 88.9432 181.139 85.0959L182.91 83.8682Z" fill="#FDD619"/>
<path d="M153.734 147.838L153.085 145.796C151.037 139.357 144.313 135.629 137.768 137.304L135.676 137.84L137.735 137.19C144.177 135.157 147.897 128.447 146.209 121.906L145.673 119.831L146.323 121.874C148.37 128.312 155.094 132.04 161.639 130.365L163.732 129.829L161.672 130.48C155.23 132.512 151.51 139.222 153.199 145.763L153.734 147.838Z" fill="#FDD619"/>
<path d="M41.9587 70.1771L39.9698 71.0176C33.7483 73.6469 30.6779 80.6764 32.9758 87.0299L33.705 89.0458L32.8655 87.0729C30.2198 80.8552 23.1742 77.7757 16.8163 80.0582L14.7838 80.7879L16.7728 79.9474C22.9942 77.3182 26.0646 70.2887 23.7667 63.9352L23.0375 61.9192L23.877 63.8921C26.5227 70.1098 33.5684 73.1893 39.9262 70.9068L41.9587 70.1771Z" fill="#FDD619"/>
</svg>
