<svg width="53" height="53" viewBox="0 0 53 53" fill="none" xmlns="http://www.w3.org/2000/svg">
<mask id="path-1-inside-1_54_103" fill="white">
<path d="M26.2521 52.0306C26.0941 52.0307 25.9381 51.9959 25.7952 51.9287C25.6523 51.8615 25.5262 51.7635 25.4258 51.6419C25.3255 51.5202 25.2534 51.3778 25.2149 51.2251C25.1763 51.0723 25.1722 50.9129 25.2029 50.7583L26.7137 43.2252C26.7538 43.0181 26.8558 42.8279 27.0065 42.6797L43.6275 26.1047C44.2294 25.507 45.0443 25.1714 45.8937 25.1714C46.7432 25.1714 47.558 25.507 48.16 26.1047L51.1816 29.1179C51.782 29.7176 52.1192 30.5304 52.1192 31.3779C52.1192 32.2253 51.782 33.0381 51.1816 33.6378L34.5605 50.2128C34.4114 50.3623 34.2209 50.4639 34.0135 50.5048L26.4594 52.0114C26.391 52.0241 26.3217 52.0305 26.2521 52.0306ZM28.7481 43.9562L27.6155 49.6055L33.2805 48.476L49.6729 32.129C49.8732 31.9292 49.9857 31.6583 49.9857 31.3757C49.9857 31.0932 49.8732 30.8222 49.6729 30.6224L46.6513 27.6092C46.4509 27.4094 46.1792 27.2972 45.8959 27.2972C45.6126 27.2972 45.3408 27.4094 45.1405 27.6092L28.7481 43.9562ZM21.1363 45.6375H6.17778C4.76125 45.6364 3.40307 45.0747 2.40143 44.0759C1.3998 43.077 0.836581 41.7226 0.835449 40.31L0.835449 12.6068C0.835449 9.66816 3.23095 7.2793 6.17778 7.2793H10.4516C10.735 7.2793 11.0068 7.39156 11.2072 7.59138C11.4075 7.7912 11.5201 8.06221 11.5201 8.3448C11.5201 8.62739 11.4075 8.89841 11.2072 9.09823C11.0068 9.29805 10.735 9.41031 10.4516 9.41031H6.17778C4.41054 9.41031 2.97238 10.8445 2.97238 12.6068V40.31C2.97238 42.0723 4.41054 43.5065 6.17778 43.5065H21.1363C21.4197 43.5065 21.6915 43.6188 21.8918 43.8186C22.0922 44.0184 22.2048 44.2894 22.2048 44.572C22.2048 44.8546 22.0922 45.1256 21.8918 45.3254C21.6915 45.5253 21.4197 45.6375 21.1363 45.6375ZM36.0948 26.4584C35.8115 26.4584 35.5397 26.3462 35.3393 26.1463C35.1389 25.9465 35.0264 25.6755 35.0264 25.3929V12.6068C35.0264 10.8445 33.5882 9.41031 31.821 9.41031H27.5471C27.2637 9.41031 26.992 9.29805 26.7916 9.09823C26.5912 8.89841 26.4786 8.62739 26.4786 8.3448C26.4786 8.06221 26.5912 7.7912 26.7916 7.59138C26.992 7.39156 27.2637 7.2793 27.5471 7.2793H31.821C34.7678 7.2793 37.1633 9.66816 37.1633 12.6068V25.3929C37.1633 25.6755 37.0507 25.9465 36.8504 26.1463C36.65 26.3462 36.3782 26.4584 36.0948 26.4584Z"/>
</mask>
<path d="M26.2521 52.0306C26.0941 52.0307 25.9381 51.9959 25.7952 51.9287C25.6523 51.8615 25.5262 51.7635 25.4258 51.6419C25.3255 51.5202 25.2534 51.3778 25.2149 51.2251C25.1763 51.0723 25.1722 50.9129 25.2029 50.7583L26.7137 43.2252C26.7538 43.0181 26.8558 42.8279 27.0065 42.6797L43.6275 26.1047C44.2294 25.507 45.0443 25.1714 45.8937 25.1714C46.7432 25.1714 47.558 25.507 48.16 26.1047L51.1816 29.1179C51.782 29.7176 52.1192 30.5304 52.1192 31.3779C52.1192 32.2253 51.782 33.0381 51.1816 33.6378L34.5605 50.2128C34.4114 50.3623 34.2209 50.4639 34.0135 50.5048L26.4594 52.0114C26.391 52.0241 26.3217 52.0305 26.2521 52.0306ZM28.7481 43.9562L27.6155 49.6055L33.2805 48.476L49.6729 32.129C49.8732 31.9292 49.9857 31.6583 49.9857 31.3757C49.9857 31.0932 49.8732 30.8222 49.6729 30.6224L46.6513 27.6092C46.4509 27.4094 46.1792 27.2972 45.8959 27.2972C45.6126 27.2972 45.3408 27.4094 45.1405 27.6092L28.7481 43.9562ZM21.1363 45.6375H6.17778C4.76125 45.6364 3.40307 45.0747 2.40143 44.0759C1.3998 43.077 0.836581 41.7226 0.835449 40.31L0.835449 12.6068C0.835449 9.66816 3.23095 7.2793 6.17778 7.2793H10.4516C10.735 7.2793 11.0068 7.39156 11.2072 7.59138C11.4075 7.7912 11.5201 8.06221 11.5201 8.3448C11.5201 8.62739 11.4075 8.89841 11.2072 9.09823C11.0068 9.29805 10.735 9.41031 10.4516 9.41031H6.17778C4.41054 9.41031 2.97238 10.8445 2.97238 12.6068V40.31C2.97238 42.0723 4.41054 43.5065 6.17778 43.5065H21.1363C21.4197 43.5065 21.6915 43.6188 21.8918 43.8186C22.0922 44.0184 22.2048 44.2894 22.2048 44.572C22.2048 44.8546 22.0922 45.1256 21.8918 45.3254C21.6915 45.5253 21.4197 45.6375 21.1363 45.6375ZM36.0948 26.4584C35.8115 26.4584 35.5397 26.3462 35.3393 26.1463C35.1389 25.9465 35.0264 25.6755 35.0264 25.3929V12.6068C35.0264 10.8445 33.5882 9.41031 31.821 9.41031H27.5471C27.2637 9.41031 26.992 9.29805 26.7916 9.09823C26.5912 8.89841 26.4786 8.62739 26.4786 8.3448C26.4786 8.06221 26.5912 7.7912 26.7916 7.59138C26.992 7.39156 27.2637 7.2793 27.5471 7.2793H31.821C34.7678 7.2793 37.1633 9.66816 37.1633 12.6068V25.3929C37.1633 25.6755 37.0507 25.9465 36.8504 26.1463C36.65 26.3462 36.3782 26.4584 36.0948 26.4584Z" fill="black"/>
<path d="M33.8062 60.1251H33.8275V38.7918H33.8062V60.1251ZM26.2521 52.0306L26.2418 30.6972L26.2309 30.6972L26.2521 52.0306ZM25.2029 50.7583L4.28607 46.5634L4.28154 46.586L4.27705 46.6086L25.2029 50.7583ZM26.7137 43.2252L47.6305 47.4202L47.6448 47.3488L47.6587 47.2772L26.7137 43.2252ZM27.0065 42.6797L41.9678 57.8872L42.0193 57.8365L42.0705 57.7855L27.0065 42.6797ZM43.6275 26.1047L28.5959 10.9665L28.5797 10.9827L28.5635 10.9988L43.6275 26.1047ZM48.16 26.1047L63.224 10.9988L63.2078 10.9827L63.1915 10.9665L48.16 26.1047ZM51.1816 29.1179L66.2579 14.0244L66.2518 14.0182L66.2456 14.0121L51.1816 29.1179ZM52.1192 31.3779L73.4525 31.3779L52.1192 31.3779ZM51.1816 33.6378L66.2456 48.7436L66.2518 48.7375L66.2579 48.7313L51.1816 33.6378ZM34.5605 50.2128L19.4965 35.107L19.4783 35.1251L19.4602 35.1432L34.5605 50.2128ZM34.0135 50.5048L29.8919 29.5734L29.8663 29.5784L29.8408 29.5835L34.0135 50.5048ZM26.4594 52.0114L30.3637 72.9844L30.498 72.9594L30.6321 72.9327L26.4594 52.0114ZM28.7481 43.9562L13.6841 28.8503L9.10274 33.4189L7.83094 39.7627L28.7481 43.9562ZM27.6155 49.6055L6.69836 45.412L0.409139 76.7828L31.7866 70.5271L27.6155 49.6055ZM33.2805 48.476L37.4516 69.3976L43.7773 68.1365L48.3445 63.5819L33.2805 48.476ZM49.6729 32.129L64.7369 47.2349L64.7392 47.2326L49.6729 32.129ZM49.6729 30.6224L64.7392 15.5188L64.7369 15.5166L49.6729 30.6224ZM46.6513 27.6092L61.7153 12.5033L61.713 12.501L46.6513 27.6092ZM45.1405 27.6092L30.0787 12.501L30.0765 12.5033L45.1405 27.6092ZM6.17778 45.6375L6.16078 66.9709L6.16928 66.9709H6.17778V45.6375ZM0.835449 40.31H-20.4979V40.3185L-20.4979 40.3271L0.835449 40.31ZM35.0264 25.3929L13.693 25.3929L35.0264 25.3929ZM27.5471 7.2793V28.6126V7.2793ZM26.2309 30.6972C29.2179 30.6943 32.1703 31.3518 34.876 32.6245L16.7145 71.2329C19.7059 72.6401 22.9704 73.3672 26.2734 73.3639L26.2309 30.6972ZM34.876 32.6245C37.5819 33.8974 39.9763 35.7553 41.884 38.0683L8.96769 65.2154C11.0761 67.7718 13.7228 69.8256 16.7145 71.2329L34.876 32.6245ZM41.884 38.0683C43.7918 40.3816 45.1647 43.092 45.8998 46.0055L4.52994 56.4447C5.34222 59.6637 6.85915 62.6588 8.96769 65.2154L41.884 38.0683ZM45.8998 46.0055C46.6351 48.9191 46.7133 51.96 46.1287 54.9081L4.27705 46.6086C3.63114 49.8657 3.71762 53.2255 4.52994 56.4447L45.8998 46.0055ZM46.1197 54.9533L47.6305 47.4202L5.79688 39.0302L4.28607 46.5634L46.1197 54.9533ZM47.6587 47.2772C46.8777 51.3142 44.8902 55.0121 41.9678 57.8872L12.0451 27.4722C8.8215 30.6436 6.62986 34.7219 5.76871 39.1732L47.6587 47.2772ZM42.0705 57.7855L58.6915 41.2105L28.5635 10.9988L11.9425 27.5738L42.0705 57.7855ZM58.6591 41.2428C55.2584 44.6195 50.6674 46.5047 45.8937 46.5047V3.83807C39.4212 3.83807 33.2005 6.39444 28.5959 10.9665L58.6591 41.2428ZM45.8937 46.5047C41.1201 46.5047 36.529 44.6195 33.1284 41.2428L63.1915 10.9665C58.587 6.39446 52.3663 3.83807 45.8937 3.83807V46.5047ZM33.0959 41.2105L36.1176 44.2238L66.2456 14.0121L63.224 10.9988L33.0959 41.2105ZM36.1052 44.2115C32.7059 40.816 30.7859 36.2014 30.7859 31.3779L73.4525 31.3779C73.4525 24.8594 70.8581 18.6193 66.2579 14.0244L36.1052 44.2115ZM30.7859 31.3779C30.7859 26.5543 32.7059 21.9397 36.1052 18.5442L66.2579 48.7313C70.8581 44.1364 73.4525 37.8963 73.4525 31.3779L30.7859 31.3779ZM36.1176 18.5319L19.4965 35.107L49.6245 65.3187L66.2456 48.7436L36.1176 18.5319ZM19.4602 35.1432C22.3107 32.287 25.944 30.3507 29.8919 29.5734L38.135 71.4362C42.4977 70.5771 46.5121 68.4376 49.6608 65.2824L19.4602 35.1432ZM29.8408 29.5835L22.2867 31.0901L30.6321 72.9327L38.1861 71.426L29.8408 29.5835ZM22.5551 31.0384C23.7708 30.8121 25.0048 30.6978 26.2418 30.6972L26.2625 73.3639C27.6385 73.3632 29.0113 73.2362 30.3637 72.9844L22.5551 31.0384ZM7.83094 39.7627L6.69836 45.412L48.5326 53.7989L49.6652 48.1496L7.83094 39.7627ZM31.7866 70.5271L37.4516 69.3976L29.1094 27.5545L23.4443 28.6839L31.7866 70.5271ZM48.3445 63.5819L64.7369 47.2349L34.6089 17.0232L18.2165 33.3702L48.3445 63.5819ZM64.7392 47.2326C68.9454 43.0367 71.3191 37.3342 71.3191 31.3757H28.6524C28.6524 25.9824 30.801 20.8217 34.6066 17.0255L64.7392 47.2326ZM71.3191 31.3757C71.3191 25.4172 68.9454 19.7147 64.7392 15.5188L34.6066 45.726C30.801 41.9298 28.6524 36.7691 28.6524 31.3757H71.3191ZM64.7369 15.5166L61.7153 12.5033L31.5873 42.715L34.6089 45.7283L64.7369 15.5166ZM61.713 12.501C57.5075 8.30843 51.8169 5.96386 45.8959 5.96386V48.6305C40.5415 48.6305 35.3943 46.5104 31.5896 42.7173L61.713 12.501ZM45.8959 5.96386C39.9748 5.96386 34.2843 8.30843 30.0787 12.501L60.2022 42.7173C56.3974 46.5104 51.2503 48.6305 45.8959 48.6305V5.96386ZM30.0765 12.5033L13.6841 28.8503L43.8121 59.062L60.2045 42.715L30.0765 12.5033ZM21.1363 24.3042H6.17778V66.9709H21.1363V24.3042ZM6.19478 24.3042C10.4113 24.3076 14.466 25.9789 17.4654 28.97L-12.6626 59.1817C-7.65983 64.1706 -0.888762 66.9652 6.16078 66.9709L6.19478 24.3042ZM17.4654 28.97C20.4669 31.9632 22.1654 36.0344 22.1688 40.2929L-20.4979 40.3271C-20.4922 47.4108 -17.6673 54.1909 -12.6626 59.1817L17.4654 28.97ZM22.1688 40.31V12.6068H-20.4979V40.31H22.1688ZM22.1688 12.6068C22.1688 21.506 14.9572 28.6126 6.17778 28.6126V-14.054C-8.49529 -14.054 -20.4979 -2.16967 -20.4979 12.6068H22.1688ZM6.17778 28.6126H10.4516V-14.054H6.17778V28.6126ZM10.4516 28.6126C5.09612 28.6126 -0.0519309 26.4916 -3.85684 22.6972L26.2712 -7.51448C22.0655 -11.7085 16.3739 -14.054 10.4516 -14.054V28.6126ZM-3.85684 22.6972C-7.66375 18.9009 -9.81322 13.7393 -9.81322 8.3448H32.8534C32.8534 2.38512 30.4788 -3.31847 26.2712 -7.51448L-3.85684 22.6972ZM-9.81322 8.3448C-9.81322 2.9503 -7.66375 -2.21126 -3.85684 -6.00762L26.2712 24.2041C30.4788 20.0081 32.8534 14.3045 32.8534 8.3448H-9.81322ZM-3.85684 -6.00762C-0.0519309 -9.802 5.09612 -11.923 10.4516 -11.923V30.7436C16.3739 30.7436 22.0655 28.3981 26.2712 24.2041L-3.85684 -6.00762ZM10.4516 -11.923H6.17778V30.7436H10.4516V-11.923ZM6.17778 -11.923C-7.3157 -11.923 -18.361 -0.99335 -18.361 12.6068H24.3057C24.3057 22.6823 16.1368 30.7436 6.17778 30.7436V-11.923ZM-18.361 12.6068V40.31H24.3057V12.6068H-18.361ZM-18.361 40.31C-18.361 53.9102 -7.3157 64.8398 6.17778 64.8398V22.1732C16.1368 22.1732 24.3057 30.2345 24.3057 40.31H-18.361ZM6.17778 64.8398H21.1363V22.1732H6.17778V64.8398ZM21.1363 64.8398C15.7809 64.8398 10.6328 62.7189 6.82782 58.9244L36.9558 28.7127C32.7501 24.5187 27.0585 22.1732 21.1363 22.1732V64.8398ZM6.82782 58.9244C3.02086 55.128 0.871439 49.9664 0.871439 44.572H43.5381C43.5381 38.6124 41.1635 32.9088 36.9558 28.7127L6.82782 58.9244ZM0.871439 44.572C0.871439 39.1776 3.02086 34.016 6.82782 30.2196L36.9558 60.4313C41.1635 56.2352 43.5381 50.5316 43.5381 44.572H0.871439ZM6.82782 30.2196C10.6328 26.4252 15.7809 24.3042 21.1363 24.3042V66.9709C27.0585 66.9709 32.7501 64.6254 36.9558 60.4313L6.82782 30.2196ZM36.0948 5.12508C41.4503 5.12508 46.5984 7.24605 50.4033 11.0405L20.2753 41.2522C24.481 45.4463 30.1726 47.7917 36.0948 47.7917V5.12508ZM50.4033 11.0405C54.2103 14.8369 56.3597 19.9985 56.3597 25.3929L13.693 25.3929C13.693 31.3525 16.0676 37.0561 20.2753 41.2522L50.4033 11.0405ZM56.3597 25.3929V12.6068H13.693V25.3929H56.3597ZM56.3597 12.6068C56.3597 -0.99335 45.3145 -11.923 31.821 -11.923V30.7436C21.862 30.7436 13.693 22.6823 13.693 12.6068H56.3597ZM31.821 -11.923H27.5471V30.7436H31.821V-11.923ZM27.5471 -11.923C32.9026 -11.923 38.0507 -9.80201 41.8556 -6.00762L11.7276 24.2041C15.9333 28.3981 21.6249 30.7436 27.5471 30.7436V-11.923ZM41.8556 -6.00762C45.6625 -2.21122 47.812 2.95035 47.812 8.3448H5.1453C5.1453 14.3044 7.51988 20.008 11.7276 24.2041L41.8556 -6.00762ZM47.812 8.3448C47.812 13.7393 45.6625 18.9008 41.8556 22.6972L11.7276 -7.51448C7.51988 -3.31844 5.1453 2.38517 5.1453 8.3448H47.812ZM41.8556 22.6972C38.0507 26.4916 32.9026 28.6126 27.5471 28.6126L27.5471 -14.054C21.6249 -14.054 15.9333 -11.7085 11.7276 -7.51448L41.8556 22.6972ZM27.5471 28.6126H31.821V-14.054H27.5471V28.6126ZM31.821 28.6126C23.0416 28.6126 15.83 21.506 15.83 12.6068H58.4966C58.4966 -2.16967 46.494 -14.054 31.821 -14.054V28.6126ZM15.83 12.6068V25.3929H58.4966V12.6068H15.83ZM15.83 25.3929C15.83 19.9985 17.9794 14.8369 21.7863 11.0405L51.9144 41.2522C56.1221 37.0561 58.4966 31.3525 58.4966 25.3929H15.83ZM21.7863 11.0405C25.5913 7.24605 30.7394 5.12508 36.0948 5.12508V47.7917C42.017 47.7917 47.7086 45.4463 51.9144 41.2522L21.7863 11.0405Z" fill="white" mask="url(#path-1-inside-1_54_103)"/>
<mask id="path-3-inside-2_54_103" fill="white">
<path d="M25.4105 13.6728H12.5889C10.8217 13.6728 9.38351 12.2386 9.38351 10.4763V6.21425C9.38351 5.93166 9.49608 5.66065 9.69646 5.46082C9.89684 5.261 10.1686 5.14874 10.452 5.14874H13.7642C14.26 2.71939 16.4204 0.886719 18.9997 0.886719C21.579 0.886719 23.7394 2.71939 24.2352 5.14874H27.5474C27.8308 5.14874 28.1026 5.261 28.303 5.46082C28.5033 5.66065 28.6159 5.93166 28.6159 6.21425V10.4763C28.6159 12.2386 27.1777 13.6728 25.4105 13.6728ZM11.5204 7.27976V10.4763C11.5204 11.0623 12.0013 11.5418 12.5889 11.5418H25.4105C25.9982 11.5418 26.479 11.0623 26.479 10.4763V7.27976H23.2736C22.9902 7.27976 22.7184 7.1675 22.5181 6.96768C22.3177 6.76786 22.2051 6.49684 22.2051 6.21425C22.2051 4.4519 20.767 3.01773 18.9997 3.01773C17.2325 3.01773 15.7943 4.4519 15.7943 6.21425C15.7943 6.49684 15.6817 6.76786 15.4814 6.96768C15.281 7.1675 15.0092 7.27976 14.7258 7.27976H11.5204ZM29.6844 20.0658H8.31505C8.03167 20.0658 7.7599 19.9536 7.55953 19.7538C7.35915 19.5539 7.24658 19.2829 7.24658 19.0003C7.24658 18.7177 7.35915 18.4467 7.55953 18.2469C7.7599 18.0471 8.03167 17.9348 8.31505 17.9348H29.6844C29.9677 17.9348 30.2395 18.0471 30.4399 18.2469C30.6403 18.4467 30.7528 18.7177 30.7528 19.0003C30.7528 19.2829 30.6403 19.5539 30.4399 19.7538C30.2395 19.9536 29.9677 20.0658 29.6844 20.0658ZM29.6844 26.4589H8.31505C8.03167 26.4589 7.7599 26.3466 7.55953 26.1468C7.35915 25.947 7.24658 25.676 7.24658 25.3934C7.24658 25.1108 7.35915 24.8398 7.55953 24.6399C7.7599 24.4401 8.03167 24.3279 8.31505 24.3279H29.6844C29.9677 24.3279 30.2395 24.4401 30.4399 24.6399C30.6403 24.8398 30.7528 25.1108 30.7528 25.3934C30.7528 25.676 30.6403 25.947 30.4399 26.1468C30.2395 26.3466 29.9677 26.4589 29.6844 26.4589ZM29.6844 32.8519H8.31505C8.03167 32.8519 7.7599 32.7397 7.55953 32.5398C7.35915 32.34 7.24658 32.069 7.24658 31.7864C7.24658 31.5038 7.35915 31.2328 7.55953 31.033C7.7599 30.8332 8.03167 30.7209 8.31505 30.7209H29.6844C29.9677 30.7209 30.2395 30.8332 30.4399 31.033C30.6403 31.2328 30.7528 31.5038 30.7528 31.7864C30.7528 32.069 30.6403 32.34 30.4399 32.5398C30.2395 32.7397 29.9677 32.8519 29.6844 32.8519Z"/>
</mask>
<path d="M25.4105 13.6728H12.5889C10.8217 13.6728 9.38351 12.2386 9.38351 10.4763V6.21425C9.38351 5.93166 9.49608 5.66065 9.69646 5.46082C9.89684 5.261 10.1686 5.14874 10.452 5.14874H13.7642C14.26 2.71939 16.4204 0.886719 18.9997 0.886719C21.579 0.886719 23.7394 2.71939 24.2352 5.14874H27.5474C27.8308 5.14874 28.1026 5.261 28.303 5.46082C28.5033 5.66065 28.6159 5.93166 28.6159 6.21425V10.4763C28.6159 12.2386 27.1777 13.6728 25.4105 13.6728ZM11.5204 7.27976V10.4763C11.5204 11.0623 12.0013 11.5418 12.5889 11.5418H25.4105C25.9982 11.5418 26.479 11.0623 26.479 10.4763V7.27976H23.2736C22.9902 7.27976 22.7184 7.1675 22.5181 6.96768C22.3177 6.76786 22.2051 6.49684 22.2051 6.21425C22.2051 4.4519 20.767 3.01773 18.9997 3.01773C17.2325 3.01773 15.7943 4.4519 15.7943 6.21425C15.7943 6.49684 15.6817 6.76786 15.4814 6.96768C15.281 7.1675 15.0092 7.27976 14.7258 7.27976H11.5204ZM29.6844 20.0658H8.31505C8.03167 20.0658 7.7599 19.9536 7.55953 19.7538C7.35915 19.5539 7.24658 19.2829 7.24658 19.0003C7.24658 18.7177 7.35915 18.4467 7.55953 18.2469C7.7599 18.0471 8.03167 17.9348 8.31505 17.9348H29.6844C29.9677 17.9348 30.2395 18.0471 30.4399 18.2469C30.6403 18.4467 30.7528 18.7177 30.7528 19.0003C30.7528 19.2829 30.6403 19.5539 30.4399 19.7538C30.2395 19.9536 29.9677 20.0658 29.6844 20.0658ZM29.6844 26.4589H8.31505C8.03167 26.4589 7.7599 26.3466 7.55953 26.1468C7.35915 25.947 7.24658 25.676 7.24658 25.3934C7.24658 25.1108 7.35915 24.8398 7.55953 24.6399C7.7599 24.4401 8.03167 24.3279 8.31505 24.3279H29.6844C29.9677 24.3279 30.2395 24.4401 30.4399 24.6399C30.6403 24.8398 30.7528 25.1108 30.7528 25.3934C30.7528 25.676 30.6403 25.947 30.4399 26.1468C30.2395 26.3466 29.9677 26.4589 29.6844 26.4589ZM29.6844 32.8519H8.31505C8.03167 32.8519 7.7599 32.7397 7.55953 32.5398C7.35915 32.34 7.24658 32.069 7.24658 31.7864C7.24658 31.5038 7.35915 31.2328 7.55953 31.033C7.7599 30.8332 8.03167 30.7209 8.31505 30.7209H29.6844C29.9677 30.7209 30.2395 30.8332 30.4399 31.033C30.6403 31.2328 30.7528 31.5038 30.7528 31.7864C30.7528 32.069 30.6403 32.34 30.4399 32.5398C30.2395 32.7397 29.9677 32.8519 29.6844 32.8519Z" fill="black"/>
<path d="M9.38351 6.21425L30.7168 6.21425L9.38351 6.21425ZM10.452 5.14874V26.4821V5.14874ZM13.7642 5.14874V26.4821H31.1837L34.6667 9.41441L13.7642 5.14874ZM24.2352 5.14874L3.33267 9.41441L6.81574 26.4821H24.2352V5.14874ZM11.5204 7.27976V-14.0536H-9.81289V7.27976H11.5204ZM26.479 7.27976H47.8123V-14.0536H26.479V7.27976ZM25.4105 -7.66054H12.5889V35.0061H25.4105V-7.66054ZM12.5889 -7.66054C22.5479 -7.66054 30.7168 0.400795 30.7168 10.4763H-11.9498C-11.9498 24.0765 -0.904574 35.0061 12.5889 35.0061V-7.66054ZM30.7168 10.4763V6.21425H-11.9498V10.4763H30.7168ZM30.7168 6.21425C30.7168 11.6088 28.5674 16.7703 24.7605 20.5667L-5.36755 -9.64503C-9.57521 -5.44902 -11.9498 0.254567 -11.9498 6.21425L30.7168 6.21425ZM24.7605 20.5667C20.9556 24.361 15.8075 26.4821 10.452 26.4821L10.452 -16.1846C4.52971 -16.1846 -1.16188 -13.839 -5.36755 -9.64503L24.7605 20.5667ZM10.452 26.4821H13.7642V-16.1846H10.452V26.4821ZM34.6667 9.41441C33.1685 16.7558 26.723 22.2201 18.9997 22.2201V-20.4466C6.11789 -20.4466 -4.64856 -11.3171 -7.13829 0.883082L34.6667 9.41441ZM18.9997 22.2201C11.2764 22.2201 4.83087 16.7558 3.33267 9.41441L45.1377 0.883082C42.648 -11.3171 31.8815 -20.4466 18.9997 -20.4466V22.2201ZM24.2352 26.4821H27.5474V-16.1846H24.2352V26.4821ZM27.5474 26.4821C22.1919 26.4821 17.0439 24.3611 13.2389 20.5667L43.367 -9.64503C39.1613 -13.8391 33.4697 -16.1846 27.5474 -16.1846V26.4821ZM13.2389 20.5667C9.432 16.7703 7.28257 11.6087 7.28257 6.21425H49.9492C49.9492 0.254619 47.5747 -5.44899 43.367 -9.64503L13.2389 20.5667ZM7.28257 6.21425V10.4763H49.9492V6.21425H7.28257ZM7.28257 10.4763C7.28257 0.400795 15.4515 -7.66054 25.4105 -7.66054V35.0061C38.904 35.0061 49.9492 24.0765 49.9492 10.4763H7.28257ZM-9.81289 7.27976V10.4763H32.8538V7.27976H-9.81289ZM-9.81289 10.4763C-9.81289 22.9001 0.275012 32.8751 12.5889 32.8751V-9.79155C23.7275 -9.79155 32.8538 -0.775524 32.8538 10.4763H-9.81289ZM12.5889 32.8751H25.4105V-9.79155H12.5889V32.8751ZM25.4105 32.8751C37.7244 32.8751 47.8123 22.9001 47.8123 10.4763H5.14564C5.14564 -0.775524 14.2719 -9.79155 25.4105 -9.79155V32.8751ZM47.8123 10.4763V7.27976H5.14564V10.4763H47.8123ZM26.479 -14.0536H23.2736V28.6131H26.479V-14.0536ZM23.2736 -14.0536C28.6291 -14.0536 33.7771 -11.9326 37.5821 -8.13818L7.45404 22.0735C11.6597 26.2676 17.3513 28.6131 23.2736 28.6131V-14.0536ZM37.5821 -8.13818C41.389 -4.34178 43.5384 0.819799 43.5384 6.21425H0.871773C0.871773 12.1739 3.24635 17.8775 7.45404 22.0735L37.5821 -8.13818ZM43.5384 6.21425C43.5384 -7.38593 32.4932 -18.3156 18.9997 -18.3156V24.3511C9.04071 24.3511 0.871773 16.2897 0.871773 6.21425H43.5384ZM18.9997 -18.3156C5.50622 -18.3156 -5.53902 -7.38593 -5.53902 6.21425H37.1276C37.1276 16.2897 28.9587 24.3511 18.9997 24.3511V-18.3156ZM-5.53902 6.21425C-5.53902 0.819747 -3.38955 -4.34181 0.417355 -8.13818L30.5454 22.0735C34.753 17.8775 37.1276 12.1739 37.1276 6.21425H-5.53902ZM0.417355 -8.13818C4.22227 -11.9325 9.37032 -14.0536 14.7258 -14.0536V28.6131C20.6481 28.6131 26.3397 26.2675 30.5454 22.0735L0.417355 -8.13818ZM14.7258 -14.0536H11.5204V28.6131H14.7258V-14.0536ZM29.6844 -1.2675H8.31505V41.3992H29.6844V-1.2675ZM8.31505 -1.2675C13.6705 -1.2675 18.8186 0.853492 22.6235 4.6479L-7.50448 34.8596C-3.29878 39.0537 2.39283 41.3992 8.31505 41.3992V-1.2675ZM22.6235 4.6479C26.4305 8.44428 28.5799 13.6058 28.5799 19.0003H-14.0868C-14.0868 24.96 -11.7122 30.6636 -7.50448 34.8596L22.6235 4.6479ZM28.5799 19.0003C28.5799 24.3948 26.4305 29.5564 22.6235 33.3528L-7.50448 3.14105C-11.7122 7.33707 -14.0868 13.0407 -14.0868 19.0003H28.5799ZM22.6235 33.3528C18.8186 37.1472 13.6705 39.2682 8.31505 39.2682V-3.39851C2.39283 -3.39851 -3.29878 -1.05301 -7.50448 3.14105L22.6235 33.3528ZM8.31505 39.2682H29.6844V-3.39851H8.31505V39.2682ZM29.6844 39.2682C24.3289 39.2682 19.1808 37.1472 15.3759 33.3528L45.5039 3.14105C41.2982 -1.05302 35.6066 -3.39851 29.6844 -3.39851V39.2682ZM15.3759 33.3528C11.5689 29.5563 9.4195 24.3948 9.4195 19.0003H52.0862C52.0862 13.0407 49.7116 7.3371 45.5039 3.14105L15.3759 33.3528ZM9.4195 19.0003C9.4195 13.6059 11.5689 8.44432 15.3759 4.6479L45.5039 34.8596C49.7116 30.6635 52.0862 24.9599 52.0862 19.0003H9.4195ZM15.3759 4.6479C19.1808 0.853477 24.3289 -1.2675 29.6844 -1.2675V41.3992C35.6066 41.3992 41.2982 39.0537 45.5039 34.8596L15.3759 4.6479ZM29.6844 5.12554H8.31505V47.7922H29.6844V5.12554ZM8.31505 5.12554C13.6705 5.12554 18.8186 7.24653 22.6235 11.0409L-7.50448 41.2526C-3.29878 45.4467 2.39283 47.7922 8.31505 47.7922V5.12554ZM22.6235 11.0409C26.4305 14.8373 28.5799 19.9989 28.5799 25.3934H-14.0868C-14.0868 31.353 -11.7122 37.0566 -7.50448 41.2526L22.6235 11.0409ZM28.5799 25.3934C28.5799 30.7878 26.4305 35.9494 22.6235 39.7458L-7.50448 9.53408C-11.7122 13.7301 -14.0868 19.4337 -14.0868 25.3934H28.5799ZM22.6235 39.7458C18.8186 43.5402 13.6705 45.6612 8.31505 45.6612V2.99452C2.39283 2.99452 -3.29878 5.34003 -7.50448 9.53408L22.6235 39.7458ZM8.31505 45.6612H29.6844V2.99452H8.31505V45.6612ZM29.6844 45.6612C24.3289 45.6612 19.1808 43.5402 15.3759 39.7458L45.5039 9.53408C41.2982 5.34002 35.6066 2.99452 29.6844 2.99452V45.6612ZM15.3759 39.7458C11.5689 35.9494 9.4195 30.7878 9.4195 25.3934H52.0862C52.0862 19.4338 49.7116 13.7301 45.5039 9.53408L15.3759 39.7458ZM9.4195 25.3934C9.4195 19.9989 11.5689 14.8374 15.3759 11.0409L45.5039 41.2526C49.7116 37.0566 52.0862 31.353 52.0862 25.3934H9.4195ZM15.3759 11.0409C19.1808 7.24652 24.3289 5.12554 29.6844 5.12554V47.7922C35.6066 47.7922 41.2982 45.4467 45.5039 41.2526L15.3759 11.0409ZM29.6844 11.5186H8.31505V54.1852H29.6844V11.5186ZM8.31505 11.5186C13.6705 11.5186 18.8186 13.6396 22.6235 17.434L-7.50448 47.6457C-3.29878 51.8397 2.39283 54.1852 8.31505 54.1852V11.5186ZM22.6235 17.434C26.4305 21.2304 28.5799 26.3919 28.5799 31.7864H-14.0868C-14.0868 37.7461 -11.7122 43.4497 -7.50448 47.6457L22.6235 17.434ZM28.5799 31.7864C28.5799 37.1809 26.4305 42.3425 22.6235 46.1388L-7.50448 15.9271C-11.7122 20.1231 -14.0868 25.8267 -14.0868 31.7864H28.5799ZM22.6235 46.1388C18.8186 49.9332 13.6705 52.0542 8.31505 52.0542V9.38756C2.39283 9.38756 -3.29878 11.7331 -7.50448 15.9271L22.6235 46.1388ZM8.31505 52.0542H29.6844V9.38756H8.31505V52.0542ZM29.6844 52.0542C24.3289 52.0542 19.1808 49.9333 15.3759 46.1388L45.5039 15.9271C41.2982 11.7331 35.6066 9.38756 29.6844 9.38756V52.0542ZM15.3759 46.1388C11.5689 42.3424 9.4195 37.1808 9.4195 31.7864H52.0862C52.0862 25.8268 49.7116 20.1232 45.5039 15.9271L15.3759 46.1388ZM9.4195 31.7864C9.4195 26.392 11.5689 21.2304 15.3759 17.434L45.5039 47.6457C49.7116 43.4496 52.0862 37.746 52.0862 31.7864H9.4195ZM15.3759 17.434C19.1808 13.6396 24.3289 11.5186 29.6844 11.5186V54.1852C35.6066 54.1852 41.2982 51.8397 45.5039 47.6457L15.3759 17.434Z" fill="white" mask="url(#path-3-inside-2_54_103)"/>
</svg>
