<svg width="62" height="62" viewBox="0 0 62 62" fill="none" xmlns="http://www.w3.org/2000/svg">
<path d="M47.6761 26.9151V27.5215H48.2825H48.4028C49.5456 27.5215 50.5566 28.1515 51.3046 29.1347C52.0549 30.1211 52.4894 31.4031 52.4893 32.5548V40.0548C52.4893 41.0777 52.1379 41.9074 51.5341 42.5033C50.9262 43.1032 50.0193 43.508 48.842 43.5899L48.5484 43.6103L48.3827 43.8537L47.2479 45.5214C46.1914 46.9187 44.8231 48.0518 43.251 48.8307C41.6746 49.6118 39.9371 50.0151 38.1767 50.0084L37.6552 50.0065L37.5751 50.5217C37.4257 51.483 36.979 52.3741 36.2972 53.0705C35.2685 54.1203 33.8658 54.7234 32.3935 54.7485C29.429 54.7461 27.0206 52.3664 26.9881 49.4144C27.0106 46.899 28.7936 44.7394 31.2686 44.236C34.1653 43.6468 36.9902 45.5114 37.5802 48.3964L37.6789 48.879L38.1715 48.8814C39.7466 48.8888 41.3017 48.5292 42.7129 47.8311C44.1241 47.133 45.3523 46.1157 46.2997 44.8602L46.3101 44.8464L46.3197 44.8321L46.44 44.6521L47.071 43.7085H45.9359H44.5686C44.5619 43.7081 44.5552 43.7075 44.5486 43.7068L44.5485 43.7068C44.2524 43.6752 44.0409 43.4111 44.0721 43.1197L44.0756 43.0875V43.055V28.355C44.0756 28.104 44.1509 27.8683 44.2601 27.7115C44.3648 27.5612 44.4669 27.5214 44.5521 27.5214H45.8758H46.4822V26.915V23.9749C46.4822 15.5199 39.6094 8.66846 31.1349 8.66846C22.6605 8.66846 15.7876 15.5199 15.7876 23.9749V26.915V27.5214H16.394H17.7177C17.8028 27.5214 17.905 27.5612 18.0097 27.7115C18.1189 27.8683 18.1943 28.1041 18.1943 28.355V43.055V43.0875L18.1977 43.1198C18.1988 43.13 18.1996 43.1402 18.2001 43.1505L18.2001 43.1514C18.2138 43.4403 17.9927 43.6889 17.7009 43.7087H13.2688C13.2515 43.7085 13.2355 43.7082 13.2201 43.7077L13.2187 43.7077C10.9277 43.6497 9.1205 41.7511 9.1786 39.4706L9.1788 39.4629V39.4551V31.9551C9.1788 29.5369 11.0036 27.5215 13.2654 27.5215H13.9873H14.5938V26.9151V23.9751C14.5938 14.8675 21.9978 7.48144 31.1349 7.48144C40.272 7.48144 47.6761 14.8675 47.6761 23.9751V26.9151ZM8.57237 39.4551C8.50569 42.0721 10.5791 44.2475 13.2033 44.3139L8.57237 39.4551ZM16.394 42.5215H17.0005V41.9151V29.315V28.7085H16.394H13.2654C11.5078 28.7085 10.3726 30.3485 10.3726 31.955V39.441C10.3717 39.4615 10.371 39.4819 10.3704 39.5024L10.3704 39.5041C10.3306 41.1325 11.6218 42.4818 13.2507 42.5213L13.258 42.5215H13.2654H16.394ZM32.3889 53.5615L32.3889 53.5617L32.4023 53.5616C32.9718 53.558 33.5344 53.4377 34.0554 53.2081C34.5737 52.9797 35.0398 52.6479 35.425 52.2331C35.7901 51.8586 36.0737 51.4126 36.2577 50.9233C36.4408 50.4365 36.5214 49.9174 36.4946 49.3983C36.4862 47.113 34.6259 45.2663 32.3366 45.2672C30.0428 45.2682 28.1811 47.1237 28.182 49.4153L28.182 49.4251L28.1824 49.4349C28.2569 51.7111 30.1094 53.5254 32.3889 53.5615ZM45.2694 41.9151V42.5215H45.8758H48.4028C48.8101 42.5215 49.4983 42.457 50.1071 42.125C50.7604 41.7687 51.2956 41.1119 51.2956 40.0551V32.5551C51.2956 31.7423 51.0179 30.8202 50.5539 30.0918C50.0992 29.378 49.3666 28.7086 48.4028 28.7086H45.8758H45.2694V29.3151V41.9151Z" fill="black" stroke="white" stroke-width="1.21287"/>
</svg>
