<svg width="126" height="107" viewBox="0 0 126 107" fill="none" xmlns="http://www.w3.org/2000/svg">
<path d="M74.5884 39.9425C67.722 35.2382 64.8037 28.6311 63.0871 21.4426C62.1144 17.4255 61.6566 13.3556 62.2288 9.23273C62.4577 7.48846 62.801 5.79705 63.6021 4.21135C64.1171 3.25993 64.6893 2.36137 65.4904 1.56852C66.9781 0.0885295 69.038 -0.175754 71.0407 0.669953C72.2996 1.19852 73.3296 2.09708 74.1879 3.0485C75.6756 4.73992 76.7628 6.64276 77.6211 8.65131C79.9099 13.937 80.6538 19.4869 80.5393 25.1954C80.4249 29.0011 79.9671 32.8068 79.1088 36.5068C79.0516 36.7711 79.0516 36.9825 78.9944 37.2996C80.5965 38.0396 82.3132 38.1982 84.087 38.251C91.4684 38.5682 98.6782 37.5639 105.659 35.3439C107.948 34.6039 110.179 33.7582 112.354 32.7539C116.588 30.904 120.193 28.2083 123.054 24.8254C123.569 24.244 124.084 23.6626 124.656 23.0812C124.713 23.0283 124.828 23.0283 125.114 23.0283C125 23.3983 124.942 23.6626 124.828 23.9269C122.596 28.314 119.335 31.8554 114.986 34.6039C109.55 37.9868 103.542 40.101 97.1905 41.2639C91.9834 42.2153 86.7763 42.6381 81.5121 42.0567C80.3677 41.951 79.166 41.6867 77.9072 41.4753C77.7927 41.7396 77.6783 42.0567 77.5639 42.3739C76.0189 47.1838 74.1879 51.8352 71.5557 56.2223C69.4386 59.7637 66.9781 63.0408 63.831 65.8951C62.1144 67.4279 60.2261 68.8022 58.1089 69.8065C52.673 72.3436 47.6948 71.5507 43.575 67.4279C43.3461 67.2165 43.1172 67.0051 42.7739 66.6879C42.545 67.2694 42.3733 67.6922 42.1445 68.1679C40.6567 71.9736 38.9973 75.7264 36.8802 79.3207C35.0491 82.3864 32.932 85.2935 30.1854 87.7777C28.8693 88.9934 27.4388 89.9977 25.7794 90.7906C21.774 92.6405 17.9402 92.3763 14.2781 89.9449C13.5915 89.522 13.0193 88.9934 12.2754 88.4649C12.0465 89.0463 11.8749 89.4692 11.7032 89.9449C10.1583 94.1734 8.27 98.3491 5.92397 102.26C5.35176 103.265 4.66512 104.216 3.92125 105.115C3.57793 105.59 3.00573 105.908 2.49075 106.278C2.03298 106.542 1.518 106.542 1.11746 106.119C0.716914 105.696 0.888575 105.273 1.2319 104.85C1.91854 103.952 2.54797 103 3.12017 102.049C5.98119 97.2391 8.15556 92.1648 9.92939 86.9849C10.1011 86.5092 10.2155 86.0335 9.81495 85.5578C6.09563 80.6949 4.15014 75.1979 2.94851 69.3836C1.2319 61.2965 0.888575 53.1038 1.91854 44.911C2.26186 42.1096 2.83407 39.4139 4.09292 36.8239C4.55068 35.8725 5.12288 34.9211 5.80953 34.1282C7.52614 32.1725 9.87217 32.0668 11.9321 33.7582C13.191 34.8154 14.0493 36.0839 14.7359 37.511C16.1664 40.2596 16.9675 43.2196 17.4825 46.2324C18.5124 51.9938 18.5124 57.7552 17.883 63.5694C17.1392 70.6522 15.6514 77.6293 13.5915 84.4478C13.3626 85.2406 13.3626 85.822 14.1065 86.3506C15.022 87.0378 15.8803 87.8306 16.8531 88.412C19.0274 89.6806 21.3162 89.7863 23.6623 88.8349C25.2645 88.2006 26.5805 87.2492 27.7821 86.1392C29.8993 84.2892 31.5587 82.1221 33.1036 79.8492C36.308 74.9864 38.654 69.7536 40.5995 64.3622C40.7712 63.8865 40.8284 63.5165 40.5423 63.0408C37.9674 58.2309 36.823 53.0509 36.2508 47.7652C35.6213 42.0567 35.6786 36.3482 36.7085 30.6925C37.1091 28.5254 37.6241 26.3583 38.5968 24.3497C38.9973 23.504 39.5123 22.6583 40.1417 21.9712C41.6867 20.2798 43.8611 20.3326 45.2916 22.0769C45.9782 22.9226 46.4932 23.874 46.8938 24.8783C47.9809 27.6797 48.3243 30.6397 48.5531 33.5997C49.1253 43.061 47.4087 52.3109 44.5477 61.3494C44.4333 61.6665 44.3761 61.9837 44.2044 62.3008C43.9755 62.8294 44.09 63.3051 44.4333 63.728C45.2344 64.6794 45.9782 65.7365 46.951 66.5294C49.1826 68.4851 51.8719 68.9608 54.7329 67.9036C56.2207 67.3751 57.6512 66.5294 58.9673 65.6308C61.2561 64.0451 63.0871 62.0365 64.7465 59.9223C68.2369 55.4823 70.6974 50.5138 72.6429 45.3338C73.3296 43.6953 73.9018 41.8453 74.5884 39.9425ZM11.1882 82.8092C11.3599 82.4921 11.4171 82.3864 11.4743 82.2278C11.5888 81.9635 11.646 81.6464 11.7604 81.3821C13.8776 74.4579 15.3081 67.3751 15.7659 60.1866C16.1092 54.9537 15.9948 49.7209 14.7359 44.541C14.1637 42.2153 13.5343 39.9425 12.2754 37.8282C11.7032 36.9296 11.0166 36.0839 10.2155 35.3439C9.47163 34.6568 8.61332 34.7096 7.9839 35.5554C7.4117 36.2953 6.89671 37.1411 6.55339 37.9868C5.29454 40.8939 4.83678 43.9596 4.55068 47.0781C3.97847 53.8966 4.37902 60.6623 5.63787 67.4279C6.55339 72.2379 7.86946 76.9421 10.2727 81.3292C10.5588 81.6992 10.7877 82.1749 11.1882 82.8092ZM75.6184 35.4496C75.79 34.8154 75.9045 34.3925 75.9617 34.0225C76.1906 32.5425 76.4767 31.1154 76.6483 29.6354C77.2778 24.2969 77.1061 19.0112 75.6756 13.7784C74.9317 11.0827 73.9018 8.5456 72.2424 6.2199C71.613 5.3742 70.8691 4.6342 70.068 3.94707C68.9808 3.10136 68.237 3.31279 67.4931 4.42278C67.207 4.84563 66.9781 5.32134 66.8637 5.79705C66.5776 7.01275 66.2342 8.28131 66.1198 9.54987C65.7193 14.1484 66.4059 18.6412 67.7792 23.0812C68.9808 26.8869 70.7546 30.4283 73.5584 33.4939C74.1306 34.1282 74.8173 34.7096 75.6184 35.4496ZM42.9455 23.7155C42.8311 23.7155 42.6594 23.7155 42.545 23.7683C42.2589 24.244 41.8584 24.6669 41.6295 25.1426C41.2289 26.1469 40.7712 27.204 40.4851 28.2611C39.1118 33.3354 38.8829 38.5153 39.169 43.7481C39.3979 48.5052 40.0845 53.2623 41.5723 57.8609C41.6867 58.2309 41.8584 58.6009 42.03 58.9709C42.3733 58.548 42.6022 58.1251 42.6594 57.7023C43.3461 54.5838 44.2044 51.5181 44.7194 48.3995C45.7493 42.7439 46.0927 37.0353 45.3488 31.3797C45.1199 29.4768 44.5477 27.574 43.9755 25.724C43.8611 24.984 43.3461 24.3497 42.9455 23.7155Z" fill="#4FC4D0"/>
</svg>
