<svg width="202" height="179" viewBox="0 0 202 179" fill="none" xmlns="http://www.w3.org/2000/svg">
<path d="M148.248 136.795C137.519 146.896 123.936 153.442 109.351 155.541C94.7657 157.64 79.888 155.189 66.7464 148.523C53.6049 141.857 42.8391 131.3 35.9169 118.292C28.9947 105.283 26.2531 90.4567 28.0658 75.8331L28.782 75.9218C26.9876 90.3981 29.7016 105.076 36.554 117.953C43.4064 130.83 54.0638 141.281 67.0729 147.88C80.082 154.478 94.8098 156.904 109.248 154.827C123.686 152.749 137.133 146.269 147.753 136.269L148.248 136.795Z" fill="#154E6B"/>
<path d="M50.0492 32.4938C60.7779 22.3928 74.3609 15.8465 88.9462 13.7477C103.531 11.6488 118.409 14.0994 131.551 20.7654C144.692 27.4313 155.458 37.9882 162.38 50.9967C169.302 64.0051 172.044 78.8319 170.231 93.4555L169.515 93.3667C171.31 78.8905 168.596 64.213 161.743 51.3357C154.891 38.4583 144.233 28.0078 131.224 21.409C118.215 14.8102 103.487 12.3842 89.049 14.462C74.6106 16.5397 61.1645 23.02 50.5439 33.0192L50.0492 32.4938Z" fill="#154E6B"/>
<path d="M46.2926 20.7633L46.901 22.8066C48.829 29.2814 55.4801 33.1214 62.0514 31.5536L64.1251 31.0589L62.0818 31.6673C55.6071 33.5953 51.767 40.2464 53.3348 46.8177L53.8295 48.8914L53.2211 46.8481C51.2931 40.3734 44.642 36.5333 38.0707 38.1011L35.997 38.5958L38.0403 37.9874C44.515 36.0594 48.3551 29.4083 46.7873 22.8371L46.2926 20.7633Z" fill="#FDD619"/>
<path d="M182.266 83.862L180.585 85.1738C175.26 89.3308 174.11 96.9243 177.967 102.471L179.184 104.221L177.872 102.541C173.715 97.2154 166.122 96.0661 160.575 99.9229L158.825 101.14L160.505 99.8281C165.831 95.6712 166.98 88.0776 163.123 82.531L161.906 80.7806L163.218 82.4612C167.375 87.7865 174.969 88.9358 180.515 85.0791L182.266 83.862Z" fill="#FDD619"/>
<path d="M153.158 147.832L152.514 145.799C150.474 139.359 143.757 135.635 137.214 137.317L135.149 137.848L137.181 137.204C143.622 135.163 147.345 128.447 145.664 121.904L145.133 119.839L145.777 121.871C147.817 128.311 154.534 132.035 161.077 130.354L163.142 129.823L161.109 130.467C154.669 132.507 150.945 139.224 152.627 145.767L153.158 147.832Z" fill="#FDD619"/>
<path d="M41.7052 70.1703L39.7425 71.0027C33.5229 73.6401 30.4479 80.6777 32.7381 87.0333L33.4609 89.0391L32.6285 87.0763C29.9911 80.8567 22.9535 77.7817 16.5978 80.0719L14.5921 80.7947L16.5549 79.9624C22.7745 77.3249 25.8495 70.2873 23.5592 63.9317L22.8365 61.9259L23.6688 63.8887C26.3063 70.1083 33.3439 73.1833 39.6995 70.8931L41.7052 70.1703Z" fill="#FDD619"/>
</svg>
