<svg width="306" height="158" viewBox="0 0 306 158" fill="none" xmlns="http://www.w3.org/2000/svg">
<path d="M181.443 58.7635C164.597 51.8091 157.437 42.0417 153.225 31.4148C150.839 25.4762 149.715 19.4594 151.119 13.3646C151.681 10.786 152.523 8.28552 154.489 5.94134C155.752 4.53483 157.156 3.20646 159.121 2.03437C162.772 -0.153529 167.825 -0.544225 172.739 0.706004C175.828 1.4874 178.355 2.81577 180.46 4.22227C184.11 6.72273 186.778 9.53575 188.884 12.505C194.499 20.319 196.324 28.5236 196.043 36.9626C195.763 42.5887 194.639 48.2147 192.534 53.6845C192.393 54.0751 192.393 54.3877 192.253 54.8565C196.184 55.9505 200.395 56.1849 204.747 56.2631C222.857 56.7319 240.546 55.2472 257.674 51.9654C263.289 50.8714 268.764 49.6212 274.099 48.1366C284.488 45.4017 293.332 41.4166 300.351 36.4157C301.615 35.5561 302.878 34.6966 304.282 33.8371C304.423 33.7589 304.703 33.7589 305.405 33.7589C305.125 34.3059 304.984 34.6966 304.703 35.0873C299.228 41.5729 291.226 46.8082 280.557 50.8714C267.22 55.8724 252.479 58.9979 236.896 60.717C224.121 62.1235 211.346 62.7486 198.43 61.8891C195.622 61.7328 192.674 61.3421 189.586 61.0295C189.305 61.4202 189.024 61.8891 188.743 62.3579C184.953 69.4686 180.46 76.3449 174.003 82.8304C168.808 88.0658 162.772 92.9104 155.05 97.1299C150.839 99.396 146.206 101.428 141.011 102.912C127.675 106.663 115.461 105.491 105.353 99.396C104.791 99.0834 104.23 98.7708 103.388 98.302C102.826 99.1615 102.405 99.7867 101.843 100.49C98.1932 106.116 94.122 111.664 88.9277 116.977C84.4353 121.509 79.2409 125.807 72.5023 129.48C69.2734 131.277 65.7637 132.761 61.6925 133.934C51.8654 136.668 42.4594 136.278 33.4746 132.683C31.7899 132.058 30.3861 131.277 28.561 130.495C27.9995 131.355 27.5783 131.98 27.1571 132.683C23.3667 138.934 18.7339 145.107 12.978 150.89C11.5741 152.374 9.88947 153.781 8.06443 155.109C7.22211 155.813 5.81823 156.281 4.55474 156.828C3.43164 157.219 2.16816 157.219 1.18544 156.594C0.20273 155.969 0.623893 155.344 1.46622 154.719C3.15087 153.39 4.69513 151.984 6.09901 150.577C13.1184 143.467 18.4531 135.965 22.8051 128.307C23.2263 127.604 23.5071 126.901 22.5244 126.198C13.3992 119.009 8.62598 110.882 5.67785 102.287C1.46622 90.3318 0.623893 78.2202 3.15087 66.1086C3.99319 61.9672 5.39707 57.9821 8.4856 54.1533C9.6087 52.7468 11.0126 51.3403 12.6972 50.1682C16.9088 47.277 22.6647 47.1208 27.7187 49.6212C30.8072 51.184 32.913 53.0593 34.5977 55.1691C38.1074 59.2323 40.0728 63.6081 41.3363 68.0621C43.8633 76.5793 43.8633 85.0965 42.319 93.6918C40.494 104.162 36.8439 114.477 31.7899 124.557C31.2284 125.729 31.2284 126.588 33.0534 127.37C35.2996 128.386 37.4054 129.558 39.792 130.417C45.1267 132.293 50.7423 132.449 56.4981 131.042C60.429 130.105 63.6579 128.698 66.606 127.057C71.8004 124.322 75.8716 121.119 79.6621 117.759C87.5238 110.57 93.2797 102.834 98.0529 94.8639C98.474 94.1606 98.6144 93.6136 97.9125 92.9104C91.595 85.7997 88.7873 78.1421 87.3834 70.3281C85.8391 61.8891 85.9795 53.45 88.5065 45.0891C89.4892 41.8854 90.7527 38.6817 93.1393 35.7124C94.122 34.4622 95.3855 33.212 96.9298 32.1961C100.72 29.6957 106.055 29.7738 109.565 32.3524C111.249 33.6027 112.513 35.0092 113.495 36.4938C116.163 40.6352 117.005 45.011 117.567 49.3868C118.971 63.3737 114.759 77.0481 107.74 90.4099C107.459 90.8788 107.318 91.3476 106.897 91.8164C106.336 92.5978 106.617 93.3011 107.459 93.9262C109.424 95.3327 111.249 96.8955 113.636 98.0676C119.111 100.959 125.709 101.662 132.729 100.099C136.379 99.3178 139.888 98.0676 143.117 96.7392C148.733 94.395 153.225 91.4257 157.296 88.3002C165.86 81.7365 171.897 74.3914 176.67 66.7337C178.355 64.3114 179.758 61.5765 181.443 58.7635ZM25.8937 122.134C26.3148 121.666 26.4552 121.509 26.5956 121.275C26.8764 120.884 27.0168 120.415 27.2975 120.025C32.4919 109.788 36.0016 99.3178 37.1247 88.6909C37.967 80.9551 37.6862 73.2193 34.5977 65.5616C33.1938 62.1235 31.6495 58.7635 28.561 55.6379C27.1571 54.3096 25.4725 53.0593 23.5071 51.9654C21.682 50.9496 19.5762 51.0277 18.0319 52.278C16.6281 53.3719 15.3646 54.6221 14.5223 55.8724C11.4337 60.17 10.3106 64.7021 9.6087 69.3123C8.20482 79.3923 9.18753 89.3941 12.2761 99.396C14.5223 106.507 17.7512 113.461 23.6475 119.947C24.3494 120.494 24.9109 121.197 25.8937 122.134ZM183.97 52.1217C184.391 51.184 184.672 50.5589 184.812 50.0119C185.374 47.824 186.076 45.7142 186.497 43.5263C188.041 35.6343 187.62 27.8203 184.11 20.0846C182.285 16.0994 179.758 12.3488 175.687 8.91063C174.143 7.6604 172.318 6.56645 170.352 5.55064C167.685 4.30041 165.86 4.61297 164.035 6.25389C163.333 6.87901 162.772 7.58226 162.491 8.28552C161.789 10.0827 160.946 11.9581 160.666 13.8334C159.683 20.6315 161.368 27.2734 164.737 33.8371C167.685 39.4631 172.037 44.6984 178.916 49.2305C180.32 50.1682 182.005 51.0277 183.97 52.1217ZM103.809 34.7747C103.528 34.7747 103.107 34.7747 102.826 34.8529C102.124 35.5561 101.141 36.1813 100.58 36.8845C99.5971 38.3692 98.474 39.9319 97.7721 41.4947C94.4028 48.9961 93.8412 56.6538 94.5432 64.3895C95.1047 71.4221 96.7894 78.4546 100.439 85.2527C100.72 85.7997 101.141 86.3467 101.563 86.8937C102.405 86.2685 102.966 85.6434 103.107 85.0183C104.791 80.4081 106.897 75.876 108.161 71.2658C110.688 62.9049 111.53 54.4658 109.705 46.1049C109.143 43.2919 107.74 40.4789 106.336 37.744C106.055 36.6501 104.791 35.7124 103.809 34.7747Z" fill="#25698B"/>
</svg>
