<svg width="48" height="48" viewBox="0 0 48 48" fill="none" xmlns="http://www.w3.org/2000/svg">
<g clip-path="url(#clip0_8_3987)">
<path d="M46.2014 9.38995C45.5924 8.67008 44.7396 8.23037 43.7999 8.15189L10.702 5.38826C9.76219 5.30978 8.84844 5.60196 8.12848 6.21085C7.41146 6.81735 6.9724 7.66582 6.89143 8.60096L6.22554 14.8483H3.56666C1.6202 14.8483 0.0366211 16.4318 0.0366211 18.3783V39.0969C0.0366211 41.0434 1.6202 42.627 3.56666 42.627H36.7798C38.7264 42.627 40.31 41.0434 40.31 39.0969V35.736L41.4885 35.8344C41.5879 35.8427 41.6868 35.8468 41.7849 35.8468C43.5995 35.8468 45.1464 34.4507 45.3001 32.6103L47.0241 11.9636C47.1025 11.0238 46.8103 10.1099 46.2014 9.38995ZM3.56666 16.6842H36.7798C37.714 16.6842 38.474 17.4442 38.474 18.3783V20.2662H1.87255V18.3783C1.87255 17.4442 2.63253 16.6842 3.56666 16.6842ZM1.87255 22.1021H38.474V25.9107H1.87255V22.1021ZM36.7798 40.7911H3.56666C2.63253 40.7911 1.87255 40.0311 1.87255 39.0969V27.7466H38.474V39.0969C38.474 40.0311 37.714 40.7911 36.7798 40.7911ZM45.1945 11.8107L43.4705 32.4575C43.3928 33.3884 42.572 34.0828 41.6413 34.0048L40.31 33.8936V18.3783C40.31 16.4318 38.7264 14.8483 36.7798 14.8483H8.07194L8.71809 8.78602C8.71883 8.77904 8.71947 8.77216 8.72002 8.76509C8.79777 7.83418 9.61807 7.13983 10.5493 7.21786L43.6472 9.98148C44.0982 10.0191 44.5075 10.2302 44.7997 10.5757C45.0919 10.9212 45.2322 11.3597 45.1945 11.8107Z" fill="#000123"/>
<path d="M34.6323 30.4758H25.7976C25.2906 30.4758 24.8796 30.8868 24.8796 31.3938V37.1576C24.8796 37.6646 25.2906 38.0756 25.7976 38.0756H34.6323C35.1393 38.0756 35.5503 37.6646 35.5503 37.1576V31.3938C35.5503 30.8868 35.1393 30.4758 34.6323 30.4758ZM33.7144 36.2397H26.7156V32.3118H33.7144V36.2397Z" fill="#000123"/>
</g>
<defs>
<clipPath id="clip0_8_3987">
<rect width="47" height="47" fill="white" transform="translate(0.0366211 0.501465)"/>
</clipPath>
</defs>
</svg>
