<svg width="48" height="48" viewBox="0 0 48 48" fill="none" xmlns="http://www.w3.org/2000/svg">
<g clip-path="url(#clip0_8_4019)">
<path d="M26.825 47.4683H20.95C19.5792 47.4683 18.0125 46.2933 18.0125 43.9433V39.8308C18.0125 37.8725 17.0334 36.11 15.4667 34.7392C11.9417 31.9975 10.1792 28.0808 10.1792 23.7725C10.375 16.3308 16.4459 10.4558 23.6917 10.26C27.4125 10.26 30.9375 11.6308 33.4834 14.1767C36.0292 16.7225 37.5959 20.2475 37.5959 23.9683C37.5959 28.0808 35.8334 31.9975 32.5042 34.5433C30.7417 35.9142 29.7625 38.0683 29.7625 40.0267V44.5308C29.7625 46.0975 28.3917 47.4683 26.825 47.4683ZM23.8875 12.2183C17.6209 12.2183 12.3334 17.5058 12.1375 23.7725C12.1375 27.4933 13.7042 31.0183 16.6417 33.1725C18.7959 34.935 19.9709 37.285 19.9709 39.8308V43.9433C19.9709 44.335 19.9709 45.51 20.95 45.51H26.825C27.4125 45.51 27.8042 45.1183 27.8042 44.5308V40.0267C27.8042 37.4808 29.175 34.7392 31.3292 32.9767C34.0709 30.8225 35.6375 27.4933 35.6375 23.9683C35.6375 20.835 34.4625 17.8975 32.1125 15.5475C29.9584 13.3933 27.0209 12.2183 23.8875 12.2183Z" fill="#000123"/>
<path d="M28.7833 41.5933H18.9916C18.4041 41.5933 18.0125 41.2016 18.0125 40.6141C18.0125 40.0266 18.4041 39.6349 18.9916 39.6349H28.7833C29.3708 39.6349 29.7625 40.0266 29.7625 40.6141C29.7625 41.2016 29.3708 41.5933 28.7833 41.5933ZM23.8875 6.34326C23.3 6.34326 22.9083 5.9516 22.9083 5.3641V1.44743C22.9083 0.859928 23.3 0.468262 23.8875 0.468262C24.475 0.468262 24.8666 0.859928 24.8666 1.44743V5.3641C24.8666 5.9516 24.475 6.34326 23.8875 6.34326ZM37.0083 11.8266C36.8125 11.8266 36.4208 11.8266 36.2249 11.6308C35.8333 11.2391 35.8333 10.6516 36.2249 10.2599L38.9666 7.51826C39.3583 7.1266 39.9458 7.1266 40.3375 7.51826C40.7291 7.90993 40.7291 8.49743 40.3375 8.8891L37.5958 11.6308C37.5958 11.6308 37.2041 11.8266 37.0083 11.8266ZM46.4083 24.9474H42.4916C41.9041 24.9474 41.5125 24.5558 41.5125 23.9683C41.5125 23.3808 41.9041 22.9891 42.4916 22.9891H46.4083C46.9958 22.9891 47.3875 23.3808 47.3875 23.9683C47.3875 24.5558 46.9958 24.9474 46.4083 24.9474ZM39.75 40.8099C39.5541 40.8099 39.1625 40.8099 38.9666 40.6141L36.2249 37.8724C35.8333 37.4808 35.8333 36.8933 36.2249 36.5016C36.6166 36.1099 37.2041 36.1099 37.5958 36.5016L40.3375 39.2433C40.7291 39.6349 40.7291 40.2224 40.3375 40.6141C40.3375 40.8099 40.1416 40.8099 39.75 40.8099ZM8.02495 40.8099C7.82912 40.8099 7.43745 40.8099 7.24162 40.6141C6.84995 40.2224 6.84995 39.6349 7.24162 39.2433L9.98328 36.5016C10.375 36.1099 10.9625 36.1099 11.3541 36.5016C11.7458 36.8933 11.7458 37.4808 11.3541 37.8724L8.61245 40.6141C8.41662 40.8099 8.22078 40.8099 8.02495 40.8099ZM5.28328 24.9474H1.36662C0.779118 24.9474 0.387451 24.5558 0.387451 23.9683C0.387451 23.3808 0.779118 22.9891 1.36662 22.9891H5.28328C5.87078 22.9891 6.26245 23.3808 6.26245 23.9683C6.26245 24.5558 5.87078 24.9474 5.28328 24.9474ZM10.7666 11.8266C10.5708 11.8266 10.1791 11.8266 9.98328 11.6308L7.24162 8.69326C6.84995 8.30159 6.84995 7.7141 7.24162 7.32243C7.63328 6.93076 8.22078 6.93076 8.61245 7.32243L11.3541 10.0641C11.7458 10.4558 11.7458 11.0433 11.3541 11.4349C11.1583 11.6308 10.9625 11.8266 10.7666 11.8266ZM31.7208 24.9474C31.1333 24.9474 30.7416 24.5558 30.7416 23.9683C30.7416 20.2474 27.6083 17.1141 23.8875 17.1141C23.3 17.1141 22.9083 16.7224 22.9083 16.1349C22.9083 15.5474 23.3 15.1558 23.8875 15.1558C28.7833 15.1558 32.7 19.0724 32.7 23.9683C32.7 24.5558 32.3083 24.9474 31.7208 24.9474Z" fill="#000123"/>
</g>
<defs>
<clipPath id="clip0_8_4019">
<rect width="47" height="47" fill="white" transform="translate(0.387451 0.468262)"/>
</clipPath>
</defs>
</svg>
