<svg width="48" height="47" viewBox="0 0 48 47" fill="none" xmlns="http://www.w3.org/2000/svg">
<path d="M4.96514 40.8628C4.42464 40.8628 3.98594 41.2976 3.98594 41.8332C3.98594 42.3689 4.42464 42.8037 4.96514 42.8037C5.50564 42.8037 5.94434 42.3708 5.94434 41.8332C5.94434 41.2957 5.50564 40.8628 4.96514 40.8628ZM30.4235 40.8628H22.5902C22.0497 40.8628 21.611 41.2976 21.611 41.8332C21.611 42.3689 22.0497 42.8037 22.5902 42.8037H30.4235C30.964 42.8037 31.4027 42.3689 31.4027 41.8332C31.4027 41.2976 30.964 40.8628 30.4235 40.8628ZM36.9761 11.7947C35.615 5.07352 29.5717 0.10498 22.5901 0.10498C14.4904 0.10498 7.90264 6.63205 7.90264 14.6613C7.90264 14.9893 7.91632 15.3232 7.94569 15.6803C3.52576 16.1442 0.0693359 19.8628 0.0693359 24.3656C0.0693359 25.1439 0.194639 25.928 0.464889 26.8305C0.619566 27.3448 1.16401 27.6437 1.68101 27.4865C2.19994 27.3351 2.49571 26.7955 2.34296 26.2812C2.12751 25.5611 2.02764 24.9518 2.02764 24.3656C2.02764 20.6198 5.10219 17.5726 8.81914 17.5688C9.14226 17.6154 9.56334 17.5008 9.78071 17.2525C9.87289 17.1477 9.9411 17.0244 9.98065 16.8911C10.0202 16.7577 10.0302 16.6175 10.0098 16.48C9.90803 15.7832 9.86103 15.2048 9.86103 14.6614C9.86103 7.70741 15.5715 2.04589 22.5902 2.04589C28.8784 2.04589 34.2893 6.70001 35.1764 12.8719C35.245 13.3591 35.8168 13.6987 36.2985 13.691C41.1572 13.691 45.111 17.6096 45.111 22.4248C45.111 26.5685 42.1383 30.1688 38.0434 30.9839C37.5127 31.0907 37.17 31.6011 37.2757 32.1271C37.3697 32.587 37.779 32.9054 38.2353 32.9054C38.2999 32.9054 38.3645 32.8996 38.4291 32.886C43.4367 31.8863 47.0693 27.4884 47.0693 22.4247C47.0693 16.8138 42.6807 12.2003 36.9761 11.7947ZM4.96514 33.0994C4.42464 33.0994 3.98594 33.5342 3.98594 34.0699C3.98594 34.6056 4.42464 35.0403 4.96514 35.0403C5.50564 35.0403 5.94434 34.6075 5.94434 34.0698C5.94444 33.9423 5.91919 33.8161 5.87002 33.6983C5.82085 33.5805 5.74872 33.4735 5.65777 33.3834C5.56682 33.2932 5.45883 33.2218 5.33998 33.173C5.22113 33.1243 5.09375 33.0993 4.96514 33.0994Z" fill="#000123"/>
<path d="M32.3818 29.2178H3.00684C1.38726 29.2178 0.0693359 30.5239 0.0693359 32.129V36.0108C0.0693359 36.758 0.363086 37.4353 0.833086 37.9516C0.363086 38.4698 0.0693359 39.1452 0.0693359 39.8924V43.7741C0.0693359 45.3812 1.38726 46.6854 3.00684 46.6854H32.3818C34.0014 46.6854 35.3193 45.3792 35.3193 43.7741V39.8924C35.3193 39.1452 35.0256 38.4678 34.5556 37.9516C35.0256 37.4353 35.3193 36.758 35.3193 36.0108V32.129C35.3193 30.5239 34.0014 29.2178 32.3818 29.2178ZM33.361 43.7741C33.361 44.3098 32.9223 44.7446 32.3818 44.7446H3.00684C2.46634 44.7446 2.02764 44.3098 2.02764 43.7741V39.8924C2.02764 39.3567 2.46634 38.922 3.00684 38.922H32.3818C32.9223 38.922 33.361 39.3567 33.361 39.8924V43.7741ZM33.361 36.0108C33.361 36.5464 32.9223 36.9812 32.3818 36.9812H3.00684C2.46634 36.9812 2.02764 36.5464 2.02764 36.0108V32.129C2.02764 31.5934 2.46634 31.1586 3.00684 31.1586H32.3818C32.9223 31.1586 33.361 31.5934 33.361 32.129V36.0108Z" fill="#000123"/>
<path d="M30.4236 33.0994H22.5903C22.0498 33.0994 21.6111 33.5341 21.6111 34.0698C21.6111 34.6055 22.0498 35.0403 22.5903 35.0403H30.4236C30.9641 35.0403 31.4028 34.6055 31.4028 34.0698C31.4027 33.5341 30.9641 33.0994 30.4236 33.0994Z" fill="#000123"/>
</svg>
