<svg width="202" height="190" viewBox="0 0 202 190" fill="none" xmlns="http://www.w3.org/2000/svg">
<path d="M148.107 147.173C137.379 157.274 123.796 163.82 109.21 165.919C94.6251 168.018 79.7474 165.567 66.6059 158.901C53.4643 152.235 42.6985 141.678 35.7763 128.67C28.8542 115.661 26.1125 100.835 27.9253 86.211L28.6414 86.2998C26.847 100.776 29.561 115.453 36.4134 128.331C43.2659 141.208 53.9232 151.659 66.9323 158.258C79.9415 164.856 94.6693 167.282 109.108 165.205C123.546 163.127 136.992 156.647 147.613 146.647L148.107 147.173Z" fill="#154E6B"/>
<path d="M49.9085 42.8717C60.6372 32.7707 74.2202 26.2245 88.8055 24.1256C103.391 22.0267 118.268 24.4773 131.41 31.1433C144.552 37.8093 155.317 48.3662 162.24 61.3746C169.162 74.383 171.903 89.2098 170.091 103.833L169.374 103.745C171.169 89.2684 168.455 74.591 161.602 61.7136C154.75 48.8363 144.093 38.3857 131.084 31.7869C118.074 25.1881 103.347 22.7622 88.9083 24.8399C74.47 26.9176 61.0238 33.3979 50.4032 43.3972L49.9085 42.8717Z" fill="#154E6B"/>
<path d="M46.152 31.1415L46.7604 33.1848C48.6883 39.6595 55.3395 43.4995 61.9107 41.9318L63.9845 41.4371L61.9412 42.0455C55.4664 43.9735 51.6264 50.6246 53.1941 57.1958L53.6889 59.2696L53.0805 57.2263C51.1525 50.7515 44.5014 46.9115 37.9301 48.4792L35.8563 48.974L37.8997 48.3656C44.3744 46.4376 48.2144 39.7865 46.6467 33.2152L46.152 31.1415Z" fill="#154E6B"/>
<path d="M182.125 94.2397L180.444 95.5515C175.119 99.7085 173.97 107.302 177.827 112.849L179.044 114.599L177.732 112.918C173.575 107.593 165.981 106.444 160.435 110.301L158.684 111.518L160.365 110.206C165.69 106.049 166.84 98.4553 162.983 92.9087L161.766 91.1583L163.078 92.8389C167.234 98.1642 174.828 99.3135 180.375 95.4568L182.125 94.2397Z" fill="#154E6B"/>
<path d="M153.017 158.21L152.373 156.177C150.333 149.737 143.616 146.013 137.073 147.695L135.008 148.225L137.041 147.582C143.481 145.541 147.205 138.825 145.523 132.282L144.992 130.217L145.636 132.249C147.676 138.689 154.393 142.413 160.936 140.732L163.001 140.201L160.969 140.845C154.528 142.885 150.805 149.602 152.486 156.145L153.017 158.21Z" fill="#154E6B"/>
<path d="M41.5646 80.5483L39.6018 81.3806C33.3822 84.018 30.3073 91.0556 32.5975 97.4113L33.3202 99.417L32.4879 97.4542C29.8505 91.2346 22.8129 88.1597 16.4572 90.4499L14.4515 91.1726L16.4143 90.3403C22.6339 87.7029 25.7088 80.6653 23.4186 74.3096L22.6959 72.3039L23.5282 74.2667C26.1656 80.4863 33.2032 83.5612 39.5589 81.271L41.5646 80.5483Z" fill="#154E6B"/>
</svg>
