<svg width="69" height="69" viewBox="0 0 69 69" fill="none" xmlns="http://www.w3.org/2000/svg">
<path d="M34.8186 64.6723C18.2095 64.6723 4.69619 51.1577 4.69619 34.5488C4.69619 17.9397 18.2095 4.42617 34.8186 4.42617C51.4277 4.42617 64.9412 17.94 64.9412 34.5488C64.9412 51.1577 51.4277 64.6723 34.8186 64.6723ZM34.8186 60.2859C49.0106 60.2859 60.556 48.7409 60.556 34.5488C60.556 20.3576 49.0106 8.81257 34.8186 8.81257C20.6266 8.81257 9.08119 20.3576 9.08119 34.5488C9.08119 48.7409 20.6265 60.2859 34.8186 60.2859Z" fill="#154E6B" stroke="none" stroke-width="1.2"/>
<path d="M31.4672 17.7918V21.0647C28.2161 22.2171 25.8808 25.3218 25.8808 28.9638C25.8808 33.5832 29.6392 37.3428 34.2598 37.3428C35.7997 37.3428 37.0525 38.5955 37.0525 40.1354C37.0525 41.6754 35.7997 42.9281 34.2598 42.9281C33.0669 42.9281 31.7781 42.1782 30.6335 40.8152C29.6403 39.6345 27.8789 39.4825 26.6982 40.4749C25.5173 41.4678 25.3645 43.2295 26.3574 44.4102C27.8507 46.1856 29.6065 47.4232 31.4672 48.0476V51.3071C31.4672 52.8504 32.7177 54.0997 34.2598 54.0997C35.802 54.0997 37.0525 52.8504 37.0525 51.3071V48.0342C40.3036 46.8807 42.6389 43.776 42.6389 40.1354C42.6389 35.5146 38.8804 31.7564 34.2598 31.7564C32.7199 31.7564 31.4672 30.5034 31.4672 28.9638C31.4672 27.4238 32.7199 26.17 34.2598 26.17C35.2497 26.17 36.294 26.6751 37.2804 27.63C38.3896 28.7028 40.1572 28.6732 41.23 27.5658C42.3028 26.4566 42.2734 24.689 41.1657 23.6162C39.7479 22.2445 38.3292 21.4684 37.0525 21.0451V17.7918C37.0525 16.2488 35.8017 14.998 34.2598 14.998C32.718 14.998 31.4672 16.2488 31.4672 17.7918Z" fill="#154E6B"/>
</svg>
