<svg width="69" height="69" viewBox="0 0 69 69" fill="none" xmlns="http://www.w3.org/2000/svg">
<g clip-path="url(#clip0_8_3846)">
<mask id="mask0_8_3846" style="mask-type:luminance" maskUnits="userSpaceOnUse" x="0" y="0" width="69" height="69">
<path d="M67.12 67.4493V1.64951H1.32021V67.4493H67.12Z" fill="white" stroke="white" stroke-width="2.2"/>
</mask>
<g mask="url(#mask0_8_3846)">
<path d="M61.1214 36.1521L56.3285 38.9194C56.2597 38.9591 56.1779 38.9698 56.1012 38.9493C56.0245 38.9287 55.959 38.8785 55.9193 38.8097L47.2887 23.861C47.2489 23.7922 47.2382 23.7105 47.2587 23.6338C47.2793 23.5571 47.3295 23.4917 47.3982 23.452L52.1913 20.6847" stroke="#154E6B" stroke-width="2.2" stroke-miterlimit="10" stroke-linecap="round" stroke-linejoin="round"/>
<path d="M38.8934 29.265L35.7843 27.4699C35.593 27.3595 35.3761 27.3014 35.1553 27.3014C34.9344 27.3014 34.7175 27.3595 34.5263 27.4699L28.3184 31.0531C26.7853 31.9381 24.8249 31.4128 23.9398 29.8797C23.0548 28.3466 23.5799 26.3862 25.1131 25.5011L31.6583 21.7222C32.4825 21.2463 33.4175 20.9958 34.3692 20.9958C35.3209 20.9958 36.2559 21.2463 37.0801 21.7222L41.4737 24.2588C42.2855 24.7274 43.2064 24.9742 44.1437 24.9743C45.0811 24.9743 46.002 24.7277 46.8139 24.2592L47.3428 23.9546L55.8653 38.7163" stroke="#154E6B" stroke-width="2.2" stroke-miterlimit="10" stroke-linecap="round" stroke-linejoin="round"/>
<path d="M54.8349 38.4688L43.0432 31.6608" stroke="#154E6B" stroke-width="2.2" stroke-miterlimit="10" stroke-linecap="round" stroke-linejoin="round"/>
<path d="M17.1878 43.8029L20.0377 42.1575C21.5708 41.2723 22.0962 39.312 21.211 37.7788C20.3258 36.2458 18.3655 35.7205 16.8323 36.6056L13.9824 38.251C12.4492 39.136 11.924 41.0965 12.8092 42.6297C13.6944 44.1627 15.6548 44.6881 17.1878 43.8029Z" stroke="#154E6B" stroke-width="2.2" stroke-miterlimit="10" stroke-linecap="round" stroke-linejoin="round"/>
<path d="M20.889 49.0685L22.582 48.0912C24.115 47.206 24.6403 45.2455 23.7552 43.7125C22.87 42.1793 20.9096 41.654 19.3764 42.5392L17.6836 43.5166C16.1504 44.4018 15.6251 46.3622 16.5103 47.8953C17.3955 49.4284 19.356 49.9537 20.889 49.0685Z" stroke="#154E6B" stroke-width="2.2" stroke-miterlimit="10" stroke-linecap="round" stroke-linejoin="round"/>
<path d="M25.8622 53.6003L27.3899 52.7182C28.9231 51.8331 29.4484 49.8727 28.5632 48.3396C27.678 46.8064 25.7177 46.2811 24.1845 47.1663L22.6567 48.0483C21.1236 48.9335 20.5983 50.894 21.4835 52.427C22.3685 53.9601 24.329 54.4855 25.8622 53.6003Z" stroke="#154E6B" stroke-width="2.2" stroke-miterlimit="10" stroke-linecap="round" stroke-linejoin="round"/>
<path d="M32.1581 57.0056L33.0248 56.5051C34.5578 55.6199 35.0831 53.6596 34.1981 52.1264C33.3129 50.5934 31.3526 50.0681 29.8194 50.9532L28.9526 51.4536C27.4195 52.3388 26.8942 54.2993 27.7794 55.8323C28.6646 57.3654 30.625 57.8908 32.1581 57.0056Z" stroke="#154E6B" stroke-width="2.2" stroke-miterlimit="10" stroke-linecap="round" stroke-linejoin="round"/>
<path d="M38.2803 51.1187L39.997 52.1099" stroke="#154E6B" stroke-width="2.2" stroke-miterlimit="10" stroke-linecap="round" stroke-linejoin="round"/>
<path d="M41.4856 45.5669L46.2639 48.3257" stroke="#154E6B" stroke-width="2.2" stroke-miterlimit="10" stroke-linecap="round" stroke-linejoin="round"/>
<path d="M44.6909 40.0145L51.801 44.1196" stroke="#154E6B" stroke-width="2.2" stroke-miterlimit="10" stroke-linecap="round" stroke-linejoin="round"/>
<path d="M7.31885 36.1521L12.1118 38.9194C12.1806 38.9591 12.2623 38.9698 12.3391 38.9493C12.4158 38.9287 12.4812 38.8785 12.521 38.8097L21.1516 23.861C21.1913 23.7922 21.2021 23.7105 21.1815 23.6338C21.161 23.5571 21.1108 23.4917 21.0421 23.452L16.249 20.6847" stroke="#154E6B" stroke-width="2.2" stroke-miterlimit="10" stroke-linecap="round" stroke-linejoin="round"/>
<path d="M33.7668 55.9158L36.7288 57.6258C38.2851 58.5244 40.3316 58.0077 41.2005 56.4347C42.0428 54.9097 41.5119 52.9848 39.9968 52.1099L42.9958 53.8415C44.5521 54.74 46.5986 54.2234 47.4675 52.6503C48.3098 51.1255 47.7789 49.2004 46.2638 48.3256L48.6932 49.7282C50.3116 50.6627 52.3196 50.0596 53.1554 48.388L53.1605 48.3778C53.9017 46.8956 53.3338 45.0049 51.8986 44.1763L51.801 44.12C53.3342 45.005 55.2945 44.4797 56.1797 42.9467C56.9695 41.367 56.3643 39.352 54.8348 38.4689" stroke="#154E6B" stroke-width="2.2" stroke-miterlimit="10" stroke-linecap="round" stroke-linejoin="round"/>
<path d="M7.82185 14.7052L1.50677 11.0591C1.47733 11.0421 1.44393 11.0332 1.40994 11.0332C1.37594 11.0332 1.34255 11.0421 1.31311 11.0591C1.28367 11.0761 1.25923 11.1006 1.24223 11.13C1.22524 11.1595 1.2163 11.1929 1.21631 11.2269V33.6304C1.21631 33.6996 1.25323 33.7635 1.31313 33.798L6.57727 36.8373C6.61132 36.857 6.64891 36.8697 6.6879 36.8749C6.72689 36.88 6.76651 36.8774 6.8045 36.8672C6.84249 36.8571 6.8781 36.8395 6.9093 36.8156C6.9405 36.7916 6.96667 36.7618 6.98633 36.7277L16.5816 20.1084C16.6213 20.0396 16.632 19.9579 16.6114 19.8812C16.5908 19.8045 16.5407 19.7391 16.4719 19.6993L11.932 17.0782" stroke="#154E6B" stroke-width="2.2" stroke-miterlimit="10" stroke-linecap="round" stroke-linejoin="round"/>
<path d="M59.4573 33.2696L61.4539 36.7278C61.4936 36.7965 61.559 36.8467 61.6357 36.8672C61.7124 36.8878 61.7942 36.877 61.8629 36.8373L67.1271 33.7981C67.187 33.7635 67.2239 33.6995 67.2239 33.6303V11.2269C67.2239 11.1929 67.215 11.1595 67.198 11.1301C67.181 11.1006 67.1565 11.0762 67.1271 11.0592C67.0977 11.0422 67.0643 11.0332 67.0303 11.0332C66.9963 11.0332 66.9629 11.0422 66.9334 11.0592L51.9683 19.6993C51.8995 19.739 51.8493 19.8044 51.8288 19.8812C51.8083 19.9579 51.819 20.0396 51.8587 20.1084L57.0873 29.1645" stroke="#154E6B" stroke-width="2.2" stroke-miterlimit="10" stroke-linecap="round" stroke-linejoin="round"/>
<path d="M25.3847 25.3442C24.0926 25.3109 22.8293 24.9546 21.7102 24.3078L21.0974 23.9546" stroke="#154E6B" stroke-width="2.2" stroke-miterlimit="10" stroke-linecap="round" stroke-linejoin="round"/>
</g>
</g>
<defs>
<clipPath id="clip0_8_3846">
<rect width="68" height="68" fill="white" transform="translate(0.220215 0.549316)"/>
</clipPath>
</defs>
</svg>
