<svg width="69" height="69" viewBox="0 0 69 69" fill="none" xmlns="http://www.w3.org/2000/svg">
<g clip-path="url(#clip0_8_3839)">
<mask id="path-1-inside-1_8_3839" fill="white">
<path d="M64.4622 35.4298C64.3273 35.1558 64.257 34.8545 64.257 34.5491C64.257 34.2436 64.3273 33.9423 64.4622 33.6683L66.9984 28.48C68.4105 25.5913 67.2917 22.1481 64.4514 20.6411L59.3501 17.9344C59.0798 17.7921 58.8459 17.5896 58.6664 17.3425C58.4869 17.0955 58.3665 16.8104 58.3147 16.5095L57.317 10.8213C56.7614 7.65424 53.8319 5.52606 50.6488 5.97643L44.9308 6.78525C44.6286 6.82895 44.3203 6.80258 44.0298 6.70819C43.7394 6.61379 43.4745 6.4539 43.2557 6.24086L39.1052 2.22569C36.7941 -0.0100603 33.1737 -0.010193 30.8627 2.22569L26.7121 6.24126C26.4932 6.45425 26.2284 6.61411 25.9379 6.7085C25.6475 6.80289 25.3392 6.82929 25.037 6.78565L19.319 5.97683C16.1349 5.5262 13.2064 7.65464 12.6508 10.8217L11.6531 16.5096C11.6013 16.8106 11.4809 17.0956 11.3014 17.3427C11.1219 17.5898 10.8881 17.7923 10.6179 17.9347L5.51655 20.6414C2.67624 22.1482 1.55744 25.5917 2.96949 28.4804L5.50553 33.6686C5.64052 33.9426 5.71073 34.2439 5.71073 34.5493C5.71073 34.8548 5.64052 35.1561 5.50553 35.4301L2.96936 40.6182C1.5573 43.507 2.67611 46.9502 5.51642 48.4572L10.6177 51.1639C10.888 51.3062 11.1219 51.5087 11.3014 51.7558C11.4809 52.0028 11.6013 52.2879 11.6531 52.5888L12.6508 58.277C13.1565 61.1601 15.6287 63.182 18.4699 63.1818C18.7498 63.1818 19.0337 63.1621 19.3191 63.1217L25.0371 62.3129C25.3394 62.2692 25.6476 62.2955 25.9381 62.3899C26.2286 62.4843 26.4934 62.6442 26.7122 62.8573L30.8627 66.8725C32.0185 67.9905 33.5009 68.5493 34.9839 68.5492C36.4665 68.5491 37.9498 67.9902 39.105 66.8725L43.2557 62.8573C43.7035 62.4242 44.3139 62.2263 44.9308 62.3129L50.6488 63.1217C53.8333 63.5722 56.7614 61.4439 57.317 58.2769L58.3148 52.589C58.3666 52.288 58.487 52.003 58.6665 51.7559C58.846 51.5088 59.0799 51.3062 59.3501 51.1639L64.4514 48.4572C67.2917 46.9503 68.4105 43.5069 66.9984 40.6181L64.4622 35.4298ZM62.6131 44.9925L57.5118 47.6992C55.8854 48.5624 54.7699 50.0974 54.4518 51.9111L53.4541 57.5991C53.3662 58.1126 53.081 58.5714 52.6596 58.8777C52.2381 59.1839 51.7136 59.3133 51.1981 59.2383L45.4801 58.4295C43.6566 58.1712 41.8522 58.7581 40.5288 60.0382L36.3781 64.0533C36.0051 64.4169 35.5048 64.6204 34.9838 64.6204C34.4629 64.6204 33.9625 64.4169 33.5895 64.0533L29.439 60.0381C28.3205 58.9561 26.8582 58.3697 25.3317 58.3697C25.052 58.3697 24.77 58.3894 24.4876 58.4294L18.7697 59.2382C18.2542 59.313 17.7298 59.1836 17.3083 58.8774C16.8869 58.5712 16.6017 58.1124 16.5136 57.599L15.5158 51.9108C15.1976 50.0971 14.0822 48.562 12.4557 47.6991L7.3544 44.9924C6.89321 44.7501 6.54496 44.3371 6.38395 43.8417C6.22295 43.3462 6.26193 42.8074 6.49259 42.3403L9.02876 37.152C9.83732 35.4977 9.83732 33.6003 9.02876 31.946L6.49259 26.7577C6.26193 26.2906 6.22295 25.7518 6.38395 25.2564C6.54496 24.7609 6.89321 24.3479 7.3544 24.1056L12.4557 21.3989C14.0821 20.5358 15.1976 19.0007 15.5157 17.1871L16.5134 11.499C16.6013 10.9855 16.8865 10.5267 17.308 10.2205C17.7294 9.91426 18.2539 9.78484 18.7694 9.85984L24.4874 10.6687C26.3102 10.9267 28.1153 10.3401 29.4387 9.05992L33.5894 5.04475C33.9624 4.68111 34.4627 4.47759 34.9837 4.47759C35.5046 4.47759 36.005 4.68111 36.378 5.04475L40.5285 9.05992C41.852 10.3402 43.6568 10.9267 45.4799 10.6687L51.1978 9.85984C51.7134 9.78491 52.2378 9.91435 52.6592 10.2206C53.0807 10.5268 53.3658 10.9855 53.4539 11.499L54.4516 17.1872C54.7698 19.0009 55.8851 20.536 57.5117 21.3989L62.613 24.1056C63.0742 24.3479 63.4224 24.7609 63.5834 25.2564C63.7444 25.7518 63.7055 26.2906 63.4748 26.7577L60.9386 31.9459C60.1301 33.6001 60.1301 35.4977 60.9386 37.1519L63.4748 42.34C63.7055 42.8072 63.7445 43.346 63.5836 43.8416C63.4226 44.3371 63.0743 44.7501 62.6131 44.9925Z"/>
</mask>
<path d="M64.4622 35.4298C64.3273 35.1558 64.257 34.8545 64.257 34.5491C64.257 34.2436 64.3273 33.9423 64.4622 33.6683L66.9984 28.48C68.4105 25.5913 67.2917 22.1481 64.4514 20.6411L59.3501 17.9344C59.0798 17.7921 58.8459 17.5896 58.6664 17.3425C58.4869 17.0955 58.3665 16.8104 58.3147 16.5095L57.317 10.8213C56.7614 7.65424 53.8319 5.52606 50.6488 5.97643L44.9308 6.78525C44.6286 6.82895 44.3203 6.80258 44.0298 6.70819C43.7394 6.61379 43.4745 6.4539 43.2557 6.24086L39.1052 2.22569C36.7941 -0.0100603 33.1737 -0.010193 30.8627 2.22569L26.7121 6.24126C26.4932 6.45425 26.2284 6.61411 25.9379 6.7085C25.6475 6.80289 25.3392 6.82929 25.037 6.78565L19.319 5.97683C16.1349 5.5262 13.2064 7.65464 12.6508 10.8217L11.6531 16.5096C11.6013 16.8106 11.4809 17.0956 11.3014 17.3427C11.1219 17.5898 10.8881 17.7923 10.6179 17.9347L5.51655 20.6414C2.67624 22.1482 1.55744 25.5917 2.96949 28.4804L5.50553 33.6686C5.64052 33.9426 5.71073 34.2439 5.71073 34.5493C5.71073 34.8548 5.64052 35.1561 5.50553 35.4301L2.96936 40.6182C1.5573 43.507 2.67611 46.9502 5.51642 48.4572L10.6177 51.1639C10.888 51.3062 11.1219 51.5087 11.3014 51.7558C11.4809 52.0028 11.6013 52.2879 11.6531 52.5888L12.6508 58.277C13.1565 61.1601 15.6287 63.182 18.4699 63.1818C18.7498 63.1818 19.0337 63.1621 19.3191 63.1217L25.0371 62.3129C25.3394 62.2692 25.6476 62.2955 25.9381 62.3899C26.2286 62.4843 26.4934 62.6442 26.7122 62.8573L30.8627 66.8725C32.0185 67.9905 33.5009 68.5493 34.9839 68.5492C36.4665 68.5491 37.9498 67.9902 39.105 66.8725L43.2557 62.8573C43.7035 62.4242 44.3139 62.2263 44.9308 62.3129L50.6488 63.1217C53.8333 63.5722 56.7614 61.4439 57.317 58.2769L58.3148 52.589C58.3666 52.288 58.487 52.003 58.6665 51.7559C58.846 51.5088 59.0799 51.3062 59.3501 51.1639L64.4514 48.4572C67.2917 46.9503 68.4105 43.5069 66.9984 40.6181L64.4622 35.4298ZM62.6131 44.9925L57.5118 47.6992C55.8854 48.5624 54.7699 50.0974 54.4518 51.9111L53.4541 57.5991C53.3662 58.1126 53.081 58.5714 52.6596 58.8777C52.2381 59.1839 51.7136 59.3133 51.1981 59.2383L45.4801 58.4295C43.6566 58.1712 41.8522 58.7581 40.5288 60.0382L36.3781 64.0533C36.0051 64.4169 35.5048 64.6204 34.9838 64.6204C34.4629 64.6204 33.9625 64.4169 33.5895 64.0533L29.439 60.0381C28.3205 58.9561 26.8582 58.3697 25.3317 58.3697C25.052 58.3697 24.77 58.3894 24.4876 58.4294L18.7697 59.2382C18.2542 59.313 17.7298 59.1836 17.3083 58.8774C16.8869 58.5712 16.6017 58.1124 16.5136 57.599L15.5158 51.9108C15.1976 50.0971 14.0822 48.562 12.4557 47.6991L7.3544 44.9924C6.89321 44.7501 6.54496 44.3371 6.38395 43.8417C6.22295 43.3462 6.26193 42.8074 6.49259 42.3403L9.02876 37.152C9.83732 35.4977 9.83732 33.6003 9.02876 31.946L6.49259 26.7577C6.26193 26.2906 6.22295 25.7518 6.38395 25.2564C6.54496 24.7609 6.89321 24.3479 7.3544 24.1056L12.4557 21.3989C14.0821 20.5358 15.1976 19.0007 15.5157 17.1871L16.5134 11.499C16.6013 10.9855 16.8865 10.5267 17.308 10.2205C17.7294 9.91426 18.2539 9.78484 18.7694 9.85984L24.4874 10.6687C26.3102 10.9267 28.1153 10.3401 29.4387 9.05992L33.5894 5.04475C33.9624 4.68111 34.4627 4.47759 34.9837 4.47759C35.5046 4.47759 36.005 4.68111 36.378 5.04475L40.5285 9.05992C41.852 10.3402 43.6568 10.9267 45.4799 10.6687L51.1978 9.85984C51.7134 9.78491 52.2378 9.91435 52.6592 10.2206C53.0807 10.5268 53.3658 10.9855 53.4539 11.499L54.4516 17.1872C54.7698 19.0009 55.8851 20.536 57.5117 21.3989L62.613 24.1056C63.0742 24.3479 63.4224 24.7609 63.5834 25.2564C63.7444 25.7518 63.7055 26.2906 63.4748 26.7577L60.9386 31.9459C60.1301 33.6001 60.1301 35.4977 60.9386 37.1519L63.4748 42.34C63.7055 42.8072 63.7445 43.346 63.5836 43.8416C63.4226 44.3371 63.0743 44.7501 62.6131 44.9925Z" fill="#154E6B" stroke="none" mask="url(#path-1-inside-1_8_3839)"/>
<path d="M49.1355 20.3974L49.1355 20.3975C49.8038 21.0658 49.8038 22.149 49.1354 22.8173L49.1353 22.8173L23.2518 48.7008L23.2517 48.7009C22.9178 49.0351 22.4802 49.202 22.042 49.202H22.0417C21.8171 49.2023 21.5946 49.1582 21.3871 49.0722C21.1796 48.9862 20.9911 48.8601 20.8325 48.7011L20.8322 48.7008C20.1641 48.0327 20.1641 46.9493 20.8322 46.2811L46.7158 20.3975C47.384 19.7293 48.4674 19.7293 49.1355 20.3974ZM30.6584 24.0906V24.0906C30.6584 22.1503 29.0802 20.5723 27.14 20.5723C25.1998 20.5723 23.6218 22.1504 23.6218 24.0906C23.6218 26.0309 25.1998 27.6089 27.14 27.6089C29.0802 27.6089 30.6582 26.0309 30.6584 24.0906ZM20.1997 24.0907C20.1997 20.2641 23.3134 17.1504 27.14 17.1504C30.9666 17.1504 34.0803 20.2641 34.0803 24.0907C34.0803 27.9173 30.9666 31.031 27.14 31.031C23.3134 31.031 20.1997 27.9173 20.1997 24.0907ZM35.8874 45.0077C35.8874 41.1811 39.0011 38.0674 42.8277 38.0674C46.6543 38.0674 49.768 41.1811 49.768 45.0077C49.768 48.8344 46.6543 51.948 42.8277 51.948C39.0011 51.948 35.8874 48.8344 35.8874 45.0077ZM39.3094 45.0077C39.3094 46.9479 40.8875 48.526 42.8277 48.526C44.7679 48.526 46.346 46.9479 46.346 45.0077C46.346 43.0675 44.7679 41.4895 42.8277 41.4895C40.8874 41.4895 39.3094 43.0675 39.3094 45.0077Z" fill="#154E6B" stroke="none" stroke-width="0.5"/>
</g>
<defs>
<clipPath id="clip0_8_3839">
<rect width="68" height="68" fill="white" transform="translate(0.983887 0.549316)"/>
</clipPath>
</defs>
</svg>
