<svg width="69" height="69" viewBox="0 0 69 69" fill="none" xmlns="http://www.w3.org/2000/svg">
<g clip-path="url(#clip0_8_3831)">
<path d="M7.22998 59.9769C6.44246 59.9769 5.80327 60.6104 5.80327 61.3909C5.80327 62.1714 6.44246 62.8048 7.22998 62.8048C8.0175 62.8048 8.65669 62.1741 8.65669 61.3909C8.65669 60.6076 8.0175 59.9769 7.22998 59.9769ZM44.3235 59.9769H32.9102C32.1226 59.9769 31.4834 60.6104 31.4834 61.3909C31.4834 62.1714 32.1226 62.8048 32.9102 62.8048H44.3235C45.111 62.8048 45.7502 62.1714 45.7502 61.3909C45.7502 60.6104 45.111 59.9769 44.3235 59.9769ZM53.8707 17.6241C51.8876 7.83108 43.0823 0.591797 32.91 0.591797C21.1086 0.591797 11.51 10.1019 11.51 21.8008C11.51 22.2786 11.5299 22.7651 11.5727 23.2854C5.13278 23.9613 0.0966797 29.3794 0.0966797 35.9401C0.0966797 37.0741 0.279249 38.2165 0.673009 39.5315C0.898378 40.2808 1.69165 40.7164 2.44493 40.4873C3.20102 40.2667 3.63196 39.4805 3.4094 38.7312C3.09549 37.682 2.94997 36.7942 2.94997 35.9401C2.94997 30.4824 7.42967 26.0425 12.8453 26.037C13.3161 26.1049 13.9297 25.938 14.2464 25.5761C14.3807 25.4235 14.4801 25.2439 14.5377 25.0496C14.5953 24.8553 14.6098 24.6509 14.5802 24.4506C14.4319 23.4353 14.3634 22.5926 14.3634 21.8009C14.3634 11.6687 22.6837 3.41975 32.9102 3.41975C42.0722 3.41975 49.9559 10.2009 51.2485 19.1935C51.3484 19.9034 52.1815 20.3982 52.8835 20.3869C59.9626 20.3869 65.7235 26.0964 65.7235 33.1123C65.7235 39.1498 61.3921 44.3955 55.4258 45.5832C54.6526 45.7387 54.1532 46.4824 54.3072 47.2487C54.4442 47.9189 55.0406 48.3827 55.7053 48.3827C55.7995 48.3827 55.8937 48.3743 55.9878 48.3545C63.2839 46.898 68.5768 40.4901 68.5768 33.1122C68.5768 24.9369 62.1825 18.215 53.8707 17.6241ZM7.22998 48.6655C6.44246 48.6655 5.80327 49.299 5.80327 50.0795C5.80327 50.86 6.44246 51.4934 7.22998 51.4934C8.0175 51.4934 8.65669 50.8627 8.65669 50.0793C8.65685 49.8936 8.62006 49.7097 8.54841 49.5381C8.47677 49.3664 8.37168 49.2105 8.23916 49.0792C8.10665 48.9479 7.9493 48.8437 7.77614 48.7728C7.60297 48.7018 7.41738 48.6653 7.22998 48.6655Z" fill="#154E6B"/>
<path d="M47.1768 43.0098H4.37669C2.01693 43.0098 0.0966797 44.9129 0.0966797 47.2516V52.9073C0.0966797 53.996 0.52468 54.9829 1.20948 55.7351C0.52468 56.4902 0.0966797 57.4743 0.0966797 58.563V64.2187C0.0966797 66.5602 2.01693 68.4605 4.37669 68.4605H47.1768C49.5365 68.4605 51.4568 66.5574 51.4568 64.2187V58.563C51.4568 57.4743 51.0288 56.4873 50.344 55.7351C51.0288 54.9829 51.4568 53.996 51.4568 52.9073V47.2516C51.4568 44.9129 49.5365 43.0098 47.1768 43.0098ZM48.6035 64.2187C48.6035 64.9992 47.9643 65.6327 47.1768 65.6327H4.37669C3.58916 65.6327 2.94997 64.9992 2.94997 64.2187V58.563C2.94997 57.7825 3.58916 57.149 4.37669 57.149H47.1768C47.9643 57.149 48.6035 57.7825 48.6035 58.563V64.2187ZM48.6035 52.9073C48.6035 53.6878 47.9643 54.3213 47.1768 54.3213H4.37669C3.58916 54.3213 2.94997 53.6878 2.94997 52.9073V47.2516C2.94997 46.4711 3.58916 45.8376 4.37669 45.8376H47.1768C47.9643 45.8376 48.6035 46.4711 48.6035 47.2516V52.9073Z" fill="#154E6B"/>
<path d="M44.3234 48.6655H32.9101C32.1226 48.6655 31.4834 49.299 31.4834 50.0795C31.4834 50.86 32.1226 51.4935 32.9101 51.4935H44.3234C45.1109 51.4935 45.7501 50.86 45.7501 50.0795C45.75 49.2989 45.1109 48.6655 44.3234 48.6655Z" fill="#154E6B"/>
</g>
<defs>
<clipPath id="clip0_8_3831">
<rect width="68" height="68" fill="white" transform="translate(0.33667 0.549316)"/>
</clipPath>
</defs>
</svg>
