<svg width="69" height="69" viewBox="0 0 69 69" fill="none" xmlns="http://www.w3.org/2000/svg">
<g clip-path="url(#clip0_8_3806)">
<path d="M29.6353 54.7808L44.6052 53.8533" stroke="#154E6B" stroke-width="2.5" stroke-miterlimit="10" stroke-linecap="round" stroke-linejoin="round"/>
<mask id="mask0_8_3806" style="mask-type:luminance" maskUnits="userSpaceOnUse" x="0" y="0" width="69" height="69">
<path d="M67.2991 67.2993V1.79951H1.79932V67.2993H67.2991Z" fill="white" stroke="white" stroke-width="2.5"/>
</mask>
<g mask="url(#mask0_8_3806)">
<path d="M37.4366 15.7726C37.4366 15.7726 35.8442 14.3037 33.3893 15.0432C31.1355 15.7223 30.5758 18.8062 32.1074 20.0076C32.9869 20.6974 34.3102 21.2645 36.0938 21.895C40.0853 23.3059 38.6098 28.9351 34.5494 28.9622C32.9649 28.9728 32.224 28.8721 30.832 27.9616" stroke="#154E6B" stroke-width="2.5" stroke-miterlimit="10" stroke-linecap="round" stroke-linejoin="round"/>
<path d="M34.5493 12.9345V31.0166" stroke="#154E6B" stroke-width="2.5" stroke-miterlimit="10" stroke-linecap="round" stroke-linejoin="round"/>
<path d="M52.7525 21.9758C52.7525 32.0292 44.6027 40.1792 34.5492 40.1792C24.4958 40.1792 16.3459 32.0292 16.3459 21.9758C16.3459 11.9224 24.4958 3.77248 34.5492 3.77248C44.6027 3.77248 52.7525 11.9224 52.7525 21.9758Z" stroke="#154E6B" stroke-width="2.5" stroke-miterlimit="10" stroke-linecap="round" stroke-linejoin="round"/>
<path d="M42.817 32.8524C40.5217 34.5998 37.6567 35.6372 34.5493 35.6372C27.0041 35.6372 20.8877 29.5208 20.8877 21.9756C20.8877 18.8649 21.9275 15.997 23.6782 13.7004" stroke="#154E6B" stroke-width="2.5" stroke-miterlimit="10" stroke-linecap="round" stroke-linejoin="round"/>
<path d="M27.1394 10.4964C29.274 9.11578 31.8181 8.31426 34.5493 8.31426C42.0944 8.31426 48.2108 14.4308 48.2108 21.9758C48.2108 24.7209 47.4012 27.2769 46.0076 29.418" stroke="#154E6B" stroke-width="2.5" stroke-miterlimit="10" stroke-linecap="round" stroke-linejoin="round"/>
<path d="M9.77671 56.8077V62.151C9.77671 63.1811 8.94172 64.0161 7.91176 64.0161H3.41036C2.38053 64.0161 1.54541 63.1811 1.54541 62.151V39.3144C1.54541 38.2844 2.38053 37.4494 3.41036 37.4494H7.91176C8.94172 37.4494 9.77671 38.2844 9.77671 39.3144V52.1509" stroke="#154E6B" stroke-width="2.5" stroke-miterlimit="10" stroke-linecap="round" stroke-linejoin="round"/>
<path d="M9.77661 59.3236L22.0155 64.7923C23.2218 65.2421 24.5147 65.411 25.796 65.2863L47.6076 63.1632C48.9663 63.0309 50.2729 62.5722 51.4161 61.8262L66.4725 52.0007C67.681 50.9276 67.9051 49.124 66.9958 47.7878C66.001 46.3257 64.012 45.9416 62.5443 46.9278L52.8266 51.7735C50.2674 53.0497 47.4632 53.7591 44.605 53.8535L44.7304 51.8872C44.4941 49.5121 42.6655 47.606 40.3023 47.2717L29.4412 46.0211C26.9358 45.6667 25.6838 44.8272 23.4997 43.5494C20.5178 41.805 17.1253 40.8857 13.6707 40.8857H9.77661" stroke="#154E6B" stroke-width="2.5" stroke-miterlimit="10" stroke-linecap="round" stroke-linejoin="round"/>
<path d="M29.6353 54.7808L44.6052 53.8533" stroke="#154E6B" stroke-width="2.5" stroke-miterlimit="10" stroke-linecap="round" stroke-linejoin="round"/>
</g>
</g>
<defs>
<clipPath id="clip0_8_3806">
<rect width="68" height="68" fill="white" transform="translate(0.549316 0.549316)"/>
</clipPath>
</defs>
</svg>
