<svg width="162" height="224" viewBox="0 0 162 224" fill="none" xmlns="http://www.w3.org/2000/svg">
<g opacity="0.5">
<path d="M175.485 169.434C163.841 181.565 148.739 189.811 132.238 193.045C115.737 196.28 98.6401 194.346 83.2781 187.508C67.9161 180.67 55.0369 169.261 46.3965 154.835C37.7562 140.41 33.7752 123.671 34.9964 106.9L35.8178 106.96C34.6088 123.561 38.5497 140.132 47.103 154.412C55.6563 168.692 68.4057 179.987 83.613 186.756C98.8202 193.525 115.745 195.439 132.08 192.237C148.415 189.035 163.365 180.873 174.891 168.864L175.485 169.434Z" fill="white"/>
<path d="M57.5468 56.238C69.1905 44.1065 84.2925 35.8614 100.794 32.6269C117.295 29.3924 134.392 31.3259 149.754 38.1638C165.116 45.0017 177.995 56.4112 186.635 70.8367C195.276 85.2621 199.257 102.001 198.036 118.772L197.214 118.712C198.423 102.111 194.482 85.5399 185.929 71.2598C177.376 56.9797 164.626 45.6852 149.419 38.9162C134.212 32.1471 117.287 30.2331 100.952 33.435C84.6172 36.6369 69.6673 44.7989 58.141 56.8082L57.5468 56.238Z" fill="white"/>
<path d="M52.588 43.0862L53.9663 46.982C56.2195 53.3509 63.0565 56.8493 69.54 54.951L73.5059 53.7898L69.6101 55.168C63.2412 57.4212 59.7428 64.2582 61.6411 70.7417L62.8023 74.7076L61.4241 70.8118C59.1708 64.4429 52.3339 60.9445 45.8504 62.8429L41.8845 64.0041L45.7803 62.6258C52.1491 60.3726 55.6476 53.5356 53.7492 47.0521L52.588 43.0862Z" fill="white"/>
<path d="M181.718 181.729L180.272 177.857C177.909 171.529 171.012 168.15 164.562 170.16L160.617 171.39L164.489 169.944C170.817 167.581 174.196 160.684 172.186 154.235L170.956 150.289L172.402 154.161C174.765 160.489 181.662 163.869 188.111 161.858L192.056 160.628L188.185 162.074C181.856 164.437 178.477 171.334 180.488 177.783L181.718 181.729Z" fill="white"/>
<path d="M50.2137 99.6585L46.4958 101.462C40.4177 104.411 37.7029 111.595 40.3119 117.827L41.9078 121.639L40.104 117.921C37.1551 111.843 29.9709 109.128 23.7393 111.737L19.9275 113.333L23.6454 111.529C29.7235 108.58 32.4383 101.396 29.8294 95.1643L28.2335 91.3525L30.0373 95.0705C32.9861 101.149 40.1704 103.863 46.4019 101.254L50.2137 99.6585Z" fill="white"/>
</g>
</svg>
