<svg width="32" height="34" viewBox="0 0 32 34" fill="none" xmlns="http://www.w3.org/2000/svg">
<path d="M28.3945 0H3.15494C1.41972 0 0 1.51996 0 3.37769V30.3992C0 32.2569 1.41972 33.7769 3.15494 33.7769H28.3945C30.1297 33.7769 31.5494 32.2569 31.5494 30.3992V3.37769C31.5494 1.51996 30.1297 0 28.3945 0ZM9.46482 28.7103H4.73241V13.5107H9.46482V28.7103ZM7.09861 10.6397C5.52114 10.6397 4.25917 9.28864 4.25917 7.59979C4.25917 5.91095 5.52114 4.55988 7.09861 4.55988C8.67608 4.55988 9.93806 5.91095 9.93806 7.59979C9.93806 9.28864 8.67608 10.6397 7.09861 10.6397ZM26.817 28.7103H22.0846V19.7595C22.0846 18.4085 20.9804 17.2262 19.7184 17.2262C18.4564 17.2262 17.3522 18.4085 17.3522 19.7595V28.7103H12.6198V13.5107H17.3522V15.5374C18.1409 14.1863 19.8761 13.173 21.2958 13.173C24.293 13.173 26.817 15.8751 26.817 19.0839V28.7103Z" fill="#000123"/>
</svg>
