<svg width="115" height="161" viewBox="0 0 115 161" fill="none" xmlns="http://www.w3.org/2000/svg">
<path d="M50.5336 21.502C60.6015 11.9675 73.3649 5.77028 87.0838 3.75517C100.803 1.74005 114.809 4.00516 127.193 10.2417C139.578 16.4782 149.737 26.3825 156.287 38.6043C162.836 50.826 165.457 64.7704 163.791 78.536L163.117 78.4544C164.766 64.8275 162.172 51.0236 155.688 38.925C149.205 26.8264 139.148 17.0218 126.888 10.8482C114.628 4.67453 100.763 2.43224 87.1824 4.42705C73.6019 6.42185 60.967 12.5567 51.0006 21.995L50.5336 21.502Z" fill="#000123"/>
<path d="M143.224 119.378C133.156 128.912 120.393 135.11 106.674 137.125C92.9552 139.14 78.9488 136.875 66.5644 130.638C54.18 124.402 44.0205 114.497 37.4711 102.276C30.9216 90.0539 28.3011 76.1095 29.9666 62.3439L30.6408 62.4255C28.992 76.0524 31.5862 89.8562 38.0696 101.955C44.5531 114.053 54.6103 123.858 66.8698 130.032C79.1294 136.205 92.9948 138.448 106.575 136.453C120.156 134.458 132.791 128.323 142.757 118.885L143.224 119.378Z" fill="#000123"/>
<path d="M18.6692 71.4051L19.6881 70.605C25.0013 66.4325 26.1284 58.8356 22.2555 53.3003L21.5128 52.2387L22.313 53.2577C26.4854 58.5709 34.0823 59.698 39.6177 55.8251L40.6792 55.0823L39.6603 55.8825C34.3471 60.055 33.22 67.6519 37.0929 73.1872L37.8356 74.2488L37.0354 73.2298C32.863 67.9166 25.2661 66.7895 19.7307 70.6624L18.6692 71.4051Z" fill="#000123"/>
<path d="M45.8836 11.1303L46.2785 12.3643C48.3375 18.7985 55.0652 22.5028 61.6033 20.802L62.8571 20.4758L61.6232 20.8707C55.1889 22.9296 51.4847 29.6573 53.1855 36.1954L53.5116 37.4493L53.1168 36.2154C51.0578 29.7811 44.3301 26.0769 37.792 27.7777L36.5381 28.1038L37.7721 27.709C44.2064 25.65 47.9106 18.9223 46.2098 12.3842L45.8836 11.1303Z" fill="#000123"/>
</svg>
