<svg width="273" height="139" viewBox="0 0 273 139" fill="none" xmlns="http://www.w3.org/2000/svg">
<path d="M161.967 51.8919C146.877 45.7644 140.464 37.1582 136.692 27.7948C134.554 22.5622 133.548 17.2608 134.806 11.8906C135.309 9.61859 136.063 7.41542 137.823 5.34995C138.955 4.11066 140.213 2.94023 141.973 1.90749C145.242 -0.0202852 149.769 -0.364531 154.17 0.737055C156.937 1.42555 159.2 2.59598 161.086 3.83526C164.356 6.03844 166.745 8.517 168.631 11.1333C173.661 18.0182 175.296 25.2473 175.044 32.683C174.793 37.6402 173.787 42.5973 171.9 47.4167C171.775 47.761 171.775 48.0364 171.649 48.4495C175.17 49.4134 178.942 49.6199 182.84 49.6888C199.062 50.1019 214.906 48.7937 230.246 45.9021C235.276 44.9382 240.18 43.8366 244.959 42.5285C254.264 40.1187 262.186 36.6074 268.473 32.2011C269.605 31.4438 270.737 30.6864 271.994 29.9291C272.12 29.8602 272.371 29.8602 273 29.8602C272.749 30.3422 272.623 30.6864 272.371 31.0307C267.467 36.7451 260.3 41.358 250.743 44.9382C238.797 49.3445 225.594 52.0985 211.636 53.6132C200.193 54.8524 188.75 55.4032 177.182 54.6459C174.667 54.5082 172.026 54.164 169.26 53.8886C169.008 54.2328 168.757 54.6459 168.505 55.059C165.11 61.3243 161.086 67.383 155.302 73.0975C150.649 77.7104 145.242 81.979 138.326 85.6969C134.554 87.6935 130.404 89.4836 125.752 90.7917C113.806 94.0964 102.866 93.0637 93.8125 87.6935C93.3095 87.4181 92.8065 87.1427 92.052 86.7296C91.549 87.4869 91.1718 88.0377 90.6688 88.6574C87.3994 93.6145 83.7528 98.5028 79.1002 103.185C75.0764 107.178 70.4238 110.964 64.388 114.2C61.4958 115.784 58.3522 117.092 54.7056 118.125C45.9034 120.535 37.4784 120.19 29.4307 117.023C27.9218 116.472 26.6643 115.784 25.0296 115.095C24.5266 115.853 24.1494 116.404 23.7721 117.023C20.377 122.531 16.2274 127.97 11.0718 133.065C9.81438 134.373 8.30544 135.612 6.67074 136.783C5.91627 137.403 4.65881 137.816 3.5271 138.298C2.52114 138.642 1.38943 138.642 0.509207 138.091C-0.371012 137.54 0.00622492 136.989 0.760699 136.439C2.26965 135.268 3.65285 134.029 4.9103 132.79C11.1976 126.524 15.9759 119.915 19.874 113.168C20.2513 112.548 20.5028 111.928 19.6225 111.309C11.4491 104.975 7.17373 97.8143 4.53307 90.2409C0.760698 79.707 0.00622492 69.0354 2.26965 58.3638C3.02412 54.7148 4.28158 51.2034 7.04798 47.8298C8.05395 46.5906 9.3114 45.3513 10.8203 44.3185C14.5927 41.7711 19.7483 41.6334 24.2751 43.8366C27.0415 45.2136 28.9277 46.866 30.4367 48.7249C33.5803 52.305 35.3407 56.1606 36.4725 60.085C38.7359 67.5895 38.7359 75.0941 37.3527 82.6675C35.718 91.8933 32.4486 100.981 27.9218 109.863C27.4188 110.896 27.4188 111.653 29.0535 112.341C31.0654 113.236 32.9516 114.269 35.0893 115.027C39.8676 116.679 44.8974 116.817 50.053 115.577C53.5739 114.751 56.466 113.512 59.1067 112.066C63.7593 109.656 67.4059 106.834 70.801 103.873C77.8428 97.5389 82.9983 90.7228 87.2737 83.7002C87.6509 83.0806 87.7767 82.5986 87.1479 81.979C81.4894 75.7137 78.9745 68.9665 77.717 62.0816C76.3338 54.6459 76.4596 47.2102 78.723 39.8433C79.6032 37.0205 80.7349 34.1977 82.8726 31.5815C83.7528 30.4799 84.8845 29.3783 86.2677 28.4832C89.6629 26.2801 94.4412 26.3489 97.5848 28.6209C99.0938 29.7225 100.225 30.9618 101.106 32.2699C103.495 35.9189 104.249 39.7745 104.752 43.63C106.01 55.954 102.237 68.0026 95.9501 79.7758C95.6987 80.1889 95.5729 80.602 95.1957 81.0151C94.6927 81.7036 94.9442 82.3232 95.6986 82.874C97.4591 84.1133 99.0938 85.4903 101.231 86.523C106.136 89.0705 112.046 89.6901 118.333 88.3131C121.602 87.6246 124.746 86.523 127.638 85.3526C132.668 83.2871 136.692 80.6709 140.338 77.9169C148.009 72.1336 153.416 65.6618 157.691 58.9145C159.2 56.7802 160.458 54.3705 161.967 51.8919ZM22.6404 107.729C23.0177 107.315 23.1434 107.178 23.2692 106.971C23.5207 106.627 23.6464 106.214 23.8979 105.87C28.5505 96.8504 31.6941 87.6246 32.7001 78.2611C33.4546 71.4451 33.2031 64.629 30.4367 57.8818C29.1792 54.8525 27.796 51.8919 25.0296 49.138C23.7721 47.9675 22.2632 46.866 20.5028 45.9021C18.8681 45.007 16.9819 45.0759 15.5987 46.1775C14.3412 47.1413 13.2095 48.2429 12.455 49.3445C9.68864 53.1312 8.68267 57.1245 8.05395 61.1866C6.79649 70.0681 7.67671 78.8808 10.4431 87.6935C12.455 93.9587 15.3472 100.086 20.6285 105.801C21.2572 106.283 21.7602 106.902 22.6404 107.729ZM164.23 46.0398C164.607 45.2136 164.859 44.6628 164.984 44.1808C165.487 42.2531 166.116 40.3941 166.493 38.4664C167.877 31.5126 167.499 24.6277 164.356 17.8116C162.721 14.3003 160.458 10.9956 156.811 7.96621C155.428 6.86462 153.793 5.90074 152.033 5.0057C149.644 3.90411 148.009 4.17951 146.374 5.62534C145.745 6.17613 145.242 6.79578 144.991 7.41542C144.362 8.99895 143.608 10.6513 143.356 12.3037C142.476 18.2936 143.985 24.1457 147.003 29.9291C149.644 34.8862 153.542 39.4991 159.703 43.4923C160.961 44.3185 162.47 45.0759 164.23 46.0398ZM92.4293 30.7553C92.1778 30.7553 91.8005 30.7553 91.549 30.8241C90.9203 31.4438 90.0401 31.9945 89.5371 32.6142C88.6569 33.9223 87.6509 35.2993 87.0222 36.6763C84.0043 43.2858 83.5013 50.033 84.1301 56.8491C84.633 63.0455 86.142 69.2419 89.4114 75.2318C89.6629 75.7137 90.0401 76.1957 90.4173 76.6776C91.1718 76.1268 91.6748 75.576 91.8005 75.0252C93.3095 70.9631 95.1957 66.9699 96.3274 62.9078C98.5908 55.5409 99.3453 48.1052 97.7106 40.7384C97.2076 38.2598 95.9501 35.7812 94.6927 33.3715C94.4412 32.4076 93.3095 31.5815 92.4293 30.7553Z" fill="#4FC4D0"/>
</svg>
