<svg width="115" height="161" viewBox="0 0 115 161" fill="none" xmlns="http://www.w3.org/2000/svg">
<path d="M50.5336 21.5025C60.6015 11.968 73.3649 5.77077 87.0838 3.75565C100.803 1.74054 114.809 4.00565 127.193 10.2421C139.578 16.4786 149.737 26.383 156.287 38.6048C162.836 50.8265 165.457 64.7708 163.791 78.5365L163.117 78.4549C164.766 64.828 162.172 51.0241 155.688 38.9255C149.205 26.8269 139.148 17.0223 126.888 10.8487C114.628 4.67502 100.763 2.43273 87.1824 4.42754C73.6019 6.42234 60.967 12.5572 51.0006 21.9955L50.5336 21.5025Z" fill="#000123"/>
<path d="M143.224 119.378C133.156 128.913 120.393 135.11 106.674 137.125C92.9552 139.14 78.9488 136.875 66.5644 130.639C54.18 124.402 44.0205 114.498 37.4711 102.276C30.9216 90.0544 28.3011 76.11 29.9666 62.3444L30.6408 62.426C28.992 76.0529 31.5862 89.8567 38.0696 101.955C44.5531 114.054 54.6103 123.859 66.8698 130.032C79.1294 136.206 92.9948 138.448 106.575 136.453C120.156 134.459 132.791 128.324 142.757 118.885L143.224 119.378Z" fill="#000123"/>
<path d="M18.6692 71.4054L19.6881 70.6052C25.0013 66.4327 26.1284 58.8359 22.2555 53.3005L21.5128 52.239L22.313 53.2579C26.4854 58.5711 34.0823 59.6982 39.6177 55.8253L40.6792 55.0826L39.6603 55.8828C34.3471 60.0552 33.22 67.6521 37.0929 73.1875L37.8356 74.249L37.0354 73.2301C32.863 67.9169 25.2661 66.7897 19.7307 70.6627L18.6692 71.4054Z" fill="#000123"/>
<path d="M45.8836 11.1306L46.2785 12.3645C48.3375 18.7988 55.0652 22.503 61.6033 20.8022L62.8571 20.476L61.6232 20.8709C55.1889 22.9299 51.4847 29.6576 53.1855 36.1957L53.5116 37.4495L53.1168 36.2156C51.0578 29.7813 44.3301 26.0771 37.792 27.7779L36.5381 28.1041L37.7721 27.7092C44.2064 25.6502 47.9106 18.9225 46.2098 12.3844L45.8836 11.1306Z" fill="#000123"/>
</svg>
