<svg width="130" height="116" viewBox="0 0 130 116" fill="none" xmlns="http://www.w3.org/2000/svg">
<path d="M89.2769 106.356C79.3089 111.717 67.9299 113.874 56.6914 112.531C45.4528 111.189 34.9018 106.413 26.4769 98.855C18.052 91.2967 12.1632 81.324 9.6135 70.2965C7.0638 59.2691 7.97726 47.7236 12.2293 37.2342L12.7431 37.4425C8.53382 47.8261 7.62956 59.2553 10.1536 70.1717C12.6776 81.088 18.507 90.9603 26.8471 98.4424C35.1871 105.924 45.6318 110.652 56.7571 111.981C67.8824 113.31 79.1468 111.175 89.0143 105.868L89.2769 106.356Z" fill="#1E1E1E"/>
<path d="M37.1551 9.45004C47.1232 4.08865 58.5022 1.93209 69.7407 3.27441C80.9792 4.61673 91.5303 9.39259 99.9552 16.9508C108.38 24.509 114.269 34.4818 116.819 45.5092C119.368 56.5367 118.455 68.0822 114.203 78.5715L113.689 78.3633C117.898 67.9797 118.803 56.5505 116.278 45.6341C113.754 34.7178 107.925 24.8455 99.585 17.3634C91.245 9.88136 80.8003 5.15361 69.675 3.82481C58.5497 2.49603 47.2853 4.63085 37.4177 9.93822L37.1551 9.45004Z" fill="#1E1E1E"/>
<path d="M36.6999 0C36.8685 6.10542 41.7782 11.0152 47.8837 11.1837C41.7782 11.3523 36.8685 16.2621 36.6999 22.3675C36.5313 16.2621 31.6216 11.3523 25.5162 11.1837C31.6216 11.0152 36.5313 6.10542 36.6999 0Z" fill="#4FC4D0"/>
<path d="M125.038 73.8459C119.415 76.2299 116.635 82.5923 118.705 88.3385C116.321 82.7153 109.958 79.9348 104.212 82.0049C109.835 79.6209 112.616 73.2585 110.546 67.5123C112.93 73.1355 119.292 75.916 125.038 73.8459Z" fill="#1E1E1E"/>
<path d="M90.7255 115.52C90.4508 109.419 85.4565 104.595 79.3491 104.533C85.4506 104.258 90.2743 99.2636 90.3367 93.1562C90.6114 99.2578 95.6057 104.081 101.713 104.144C95.6116 104.419 90.7879 109.413 90.7255 115.52Z" fill="#1E1E1E"/>
<path d="M23.4743 35.7446C17.4257 36.5924 13.0937 42.0187 13.6065 48.1049C12.7586 42.0563 7.33235 37.7242 1.24617 38.237C7.29478 37.3892 11.6268 31.9629 11.114 25.8767C11.9619 31.9253 17.3882 36.2574 23.4743 35.7446Z" fill="#4FC4D0"/>
</svg>
