<svg width="155" height="183" viewBox="0 0 155 183" fill="none" xmlns="http://www.w3.org/2000/svg">
<path d="M78.4826 68.3311C68.1916 60.2444 63.818 48.8867 61.2452 36.5295C59.7874 29.6241 59.1013 22.6277 59.9589 15.5405C60.3019 12.5421 60.8165 9.63452 62.0171 6.90868C62.7889 5.27317 63.6465 3.72852 64.8471 2.3656C67.0768 -0.178526 70.1641 -0.632834 73.1656 0.820952C75.0523 1.72957 76.5959 3.27421 77.8823 4.90972C80.112 7.81729 81.7414 11.0883 83.0277 14.541C86.4581 23.6272 87.5729 33.1677 87.4014 42.9807C87.2299 49.5228 86.5438 56.0648 85.2574 62.4251C85.1717 62.8794 85.1717 63.2428 85.0859 63.788C87.4871 65.0601 90.0599 65.3327 92.7184 65.4235C103.781 65.9687 114.587 64.2423 125.049 60.4261C128.479 59.1541 131.824 57.7003 135.083 55.9739C141.429 52.7938 146.832 48.1598 151.119 42.3447C151.891 41.3452 152.663 40.3457 153.521 39.3463C153.606 39.2554 153.778 39.2554 154.207 39.2554C154.035 39.8914 153.949 40.3457 153.778 40.8C150.433 48.3416 145.545 54.4293 139.028 59.1541C130.881 64.9692 121.876 68.6037 112.357 70.6026C104.553 72.2381 96.749 72.965 88.8593 71.9656C87.1441 71.7838 85.3432 71.3295 83.4565 70.9661C83.285 71.4204 83.1135 71.9656 82.942 72.5107C80.6265 80.7791 77.8823 88.7749 73.9374 96.3165C70.7644 102.404 67.0768 108.038 62.3601 112.944C59.7874 115.579 56.9574 117.942 53.7843 119.668C45.6373 124.029 38.1764 122.666 32.0018 115.579C31.6588 115.216 31.3158 114.852 30.8012 114.307C30.4582 115.307 30.2009 116.033 29.8579 116.851C27.6282 123.393 25.1412 129.844 21.9682 136.023C19.2239 141.293 16.0509 146.29 11.9345 150.561C9.96205 152.651 7.81811 154.377 5.33113 155.74C-0.671921 158.92 -6.4177 158.466 -11.9062 154.286C-12.9353 153.559 -13.7929 152.651 -14.9077 151.742C-15.2508 152.742 -15.508 153.468 -15.7653 154.286C-18.0808 161.555 -20.9108 168.733 -24.4268 175.457C-25.2844 177.183 -26.3135 178.819 -27.4284 180.363C-27.9429 181.181 -28.8005 181.726 -29.5723 182.362C-30.2584 182.817 -31.0302 182.817 -31.6305 182.09C-32.2308 181.363 -31.9735 180.636 -31.459 179.909C-30.4299 178.364 -29.4866 176.729 -28.629 175.093C-24.3411 166.825 -21.0823 158.102 -18.4238 149.198C-18.1665 148.38 -17.995 147.562 -18.5953 146.745C-24.1696 138.385 -27.0853 128.936 -28.8863 118.941C-31.459 105.039 -31.9735 90.9556 -30.4299 76.8721C-29.9153 72.0564 -29.0578 67.4225 -27.1711 62.9703C-26.485 61.3348 -25.6275 59.6992 -24.5984 58.3363C-22.0256 54.9744 -18.5096 54.7927 -15.4223 57.7003C-13.5356 59.5175 -12.2492 61.6982 -11.2201 64.1515C-9.07619 68.8763 -7.87558 73.9645 -7.10376 79.1436C-5.56012 89.0475 -5.56012 98.9514 -6.50346 108.946C-7.61831 121.122 -9.84801 133.115 -12.9353 144.837C-13.2783 146.199 -13.2783 147.199 -12.1635 148.108C-10.7913 149.289 -9.50498 150.652 -8.0471 151.651C-4.7883 153.832 -1.35798 154.014 2.15809 152.378C4.55931 151.288 6.53174 149.652 8.33265 147.744C11.5057 144.564 13.9927 140.839 16.3081 136.932C21.1106 128.572 24.6266 119.577 27.5424 110.309C27.7997 109.491 27.8854 108.855 27.4567 108.038C23.5976 99.7692 21.8824 90.8648 21.0248 81.7786C20.0815 71.9656 20.1672 62.1525 21.7109 52.4303C22.3112 48.705 23.083 44.9797 24.5409 41.5269C25.1412 40.0732 25.913 38.6194 26.8563 37.4382C29.1718 34.5306 32.4306 34.6215 34.5746 37.6199C35.6036 39.0737 36.3755 40.7092 36.9758 42.4356C38.6052 47.2512 39.1197 52.3395 39.4628 57.4277C40.3203 73.6919 37.7476 89.5927 33.4597 105.13C33.2882 105.675 33.2024 106.22 32.9452 106.766C32.6021 107.674 32.7736 108.492 33.2882 109.219C34.4888 110.854 35.6037 112.672 37.0615 114.034C40.4061 117.396 44.4367 118.214 48.7246 116.397C50.9543 115.488 53.0983 114.034 55.0707 112.49C58.501 109.764 61.2452 106.311 63.7322 102.677C68.9635 95.0444 72.651 86.5034 75.5668 77.599C76.5959 74.7823 77.4535 71.6021 78.4826 68.3311ZM-16.5371 142.02C-16.2799 141.475 -16.1941 141.293 -16.1083 141.02C-15.9368 140.566 -15.8511 140.021 -15.6795 139.567C-12.5065 127.664 -10.3626 115.488 -9.6765 103.131C-9.16195 94.1358 -9.33347 85.1405 -11.2201 76.2361C-12.0777 72.2381 -13.0211 68.3311 -14.9077 64.6966C-15.7653 63.152 -16.7944 61.6982 -17.995 60.4261C-19.1099 59.2449 -20.3962 59.3358 -21.3396 60.7896C-22.1971 62.0616 -22.969 63.5154 -23.4835 64.9692C-25.3702 69.9666 -26.0562 75.2366 -26.485 80.5974C-27.3426 92.3186 -26.7423 103.949 -24.8556 115.579C-23.4835 123.848 -21.5111 131.934 -17.9093 139.476C-17.4805 140.112 -17.1374 140.93 -16.5371 142.02ZM80.0262 60.6079C80.2835 59.5175 80.455 58.7906 80.5408 58.1546C80.8838 55.6105 81.3126 53.1572 81.5698 50.6131C82.5132 41.4361 82.2559 32.3499 80.112 23.3546C78.9971 18.7207 77.4535 14.3593 74.9665 10.3614C74.0232 8.90763 72.9083 7.63557 71.7077 6.45437C70.0783 5.00058 68.9635 5.36403 67.8486 7.27212C67.4198 7.99902 67.0768 8.81677 66.9053 9.63452C66.4765 11.7243 65.9619 13.905 65.7904 16.0857C65.1901 23.9907 66.2192 31.7139 68.2774 39.3463C70.0783 45.8883 72.7368 51.976 76.9389 57.246C77.7965 58.3363 78.8256 59.3358 80.0262 60.6079ZM31.0585 40.4366C30.887 40.4366 30.6297 40.4366 30.4582 40.5275C30.0294 41.3452 29.4291 42.0721 29.0861 42.8899C28.4857 44.6162 27.7997 46.4335 27.3709 48.2507C25.3127 56.9734 24.9697 65.8778 25.3985 74.8731C25.7415 83.0507 26.7706 91.2282 29.0003 99.1332C29.1718 99.7692 29.4291 100.405 29.6864 101.041C30.2009 100.314 30.5439 99.5875 30.6297 98.8606C31.6588 93.4998 32.9452 88.2298 33.717 82.8689C35.2606 73.1468 35.7752 63.3337 34.6603 53.6115C34.3173 50.3405 33.4597 47.0695 32.6021 43.8893C32.4306 42.6173 31.6588 41.5269 31.0585 40.4366Z" fill="#4FC4D0"/>
</svg>
