<svg width="88" height="66" viewBox="0 0 88 66" fill="none" xmlns="http://www.w3.org/2000/svg">
<path d="M1.96341 55.5678C3.75345 62.288 9.22953 63.5176 9.59484 63.7534C18.6072 66.3518 69.123 66.3595 78.2705 63.7534C84.5356 61.8356 85.6864 55.9545 85.9019 55.5678C88.2874 42.1352 88.4445 24.6233 85.7923 9.38106L85.9019 10.1389C84.1119 3.41874 78.6358 2.18916 78.2705 1.95329C69.3787 -0.602541 18.7314 -0.699206 9.59484 1.95329C3.32969 3.875 2.17894 9.75226 1.96341 10.1389C-0.590148 24.2559 -0.718009 40.4532 1.96341 55.5678ZM35.156 46.9723V18.7731L58.0466 32.894L35.156 46.9723Z" fill="#E53935"/>
</svg>
