<svg width="80" height="82" viewBox="0 0 80 82" fill="none" xmlns="http://www.w3.org/2000/svg">
<path fill-rule="evenodd" clip-rule="evenodd" d="M35.9182 1.83423C35.9806 13.739 24.2462 35.843 69.3135 41.0479C41.3372 43.8385 36.5222 58.2123 35.9235 77.3804C35.2374 62.911 33.8343 46.0773 2 41.2486C32.8569 38.7037 32.3364 18.08 35.9182 1.83423Z" fill="none" stroke="#4FC4D0" stroke-width="2.09362" stroke-miterlimit="1.5" stroke-linecap="round" stroke-linejoin="round"/>
<path d="M12.2622 13.6687C13.0612 14.5131 14.0251 15.2825 14.8956 16.0927" stroke="#4FC4D0" stroke-width="2.09362" stroke-miterlimit="1.5" stroke-linecap="round" stroke-linejoin="round"/>
<path d="M3.19094 61.8274C4.93245 60.6288 6.73586 59.4737 8.45081 58.2561" stroke="#4FC4D0" stroke-width="2.09362" stroke-miterlimit="1.5" stroke-linecap="round" stroke-linejoin="round"/>
<path d="M54.4225 22.8311C62.1296 18.0111 68.8334 12.7156 75.3225 7.11792" stroke="#4FC4D0" stroke-width="2.09362" stroke-miterlimit="1.5" stroke-linecap="round" stroke-linejoin="round"/>
<path d="M56.3034 62.2446C65.3897 66.1515 71.7132 74.1961 78 80.0728" stroke="#4FC4D0" stroke-width="2.09362" stroke-miterlimit="1.5" stroke-linecap="round" stroke-linejoin="round"/>
</svg>
