<svg width="133" height="204" viewBox="0 0 133 204" fill="none" xmlns="http://www.w3.org/2000/svg">
<path d="M148.108 158.564C137.379 169.427 123.796 176.466 109.211 178.723C94.6254 180.98 79.7477 178.345 66.6061 171.177C53.4646 164.008 42.6988 152.656 35.7766 138.667C28.8544 124.679 26.1128 108.734 27.9255 93.0088L28.6417 93.1042C26.8472 108.671 29.5612 124.455 36.4137 138.303C43.2661 152.15 53.9234 163.389 66.9326 170.485C79.9417 177.581 94.6695 180.189 109.108 177.955C123.546 175.721 136.992 168.752 147.613 157.999L148.108 158.564Z" fill="#154E6B"/>
<path d="M49.909 46.404C60.6377 35.5418 74.2207 28.5023 88.806 26.2452C103.391 23.9881 118.269 26.6234 131.41 33.7918C144.552 40.9601 155.318 52.3125 162.24 66.3013C169.162 80.29 171.904 96.2341 170.091 111.96L169.375 111.864C171.169 96.2971 168.455 80.5136 161.603 66.6658C154.75 52.818 144.093 41.58 131.084 34.4839C118.075 27.3878 103.347 24.779 88.9088 27.0134C74.4704 29.2477 61.0243 36.2163 50.4037 46.9691L49.909 46.404Z" fill="#154E6B"/>
<path d="M46.1525 33.79L46.9873 36.8051C48.7883 43.3092 55.3122 47.0865 61.8485 45.4096L63.985 44.8614L61.8799 45.5355C55.4396 47.5977 51.546 54.3767 53.0105 60.9777L53.6894 64.0378L52.8545 61.0227C51.0535 54.5186 44.5296 50.7413 37.9934 52.4182L35.8568 52.9663L37.962 52.2923C44.4022 50.2301 48.2958 43.4511 46.8314 36.8501L46.1525 33.79Z" fill="#154E6B"/>
<path d="M153.018 170.434L152.134 167.435C150.228 160.965 143.645 157.31 137.136 159.109L135.009 159.697L137.103 158.984C143.509 156.801 147.292 149.951 145.721 143.378L144.993 140.331L145.876 143.33C147.782 149.8 154.366 153.454 160.874 151.656L163.002 151.068L160.908 151.781C154.502 153.963 150.719 160.814 152.289 167.387L153.018 170.434Z" fill="#154E6B"/>
<path d="M41.5646 86.9192L39.5333 87.8455C33.352 90.6643 30.1903 97.8695 32.3313 104.259L33.3202 107.21L32.1813 104.322C29.7158 98.0694 22.8438 95.0922 16.5272 97.5399L14.4515 98.3442L16.4828 97.4179C22.6641 94.5992 25.8258 87.394 23.6848 81.0049L22.6959 78.0536L23.8348 80.9417C26.3003 87.194 33.1723 90.1712 39.4889 87.7236L41.5646 86.9192Z" fill="#154E6B"/>
</svg>
