<svg width="202" height="190" viewBox="0 0 202 190" fill="none" xmlns="http://www.w3.org/2000/svg">
<path d="M148.107 147.172C137.379 157.273 123.796 163.819 109.21 165.918C94.6251 168.017 79.7474 165.567 66.6059 158.901C53.4643 152.235 42.6985 141.678 35.7763 128.669C28.8542 115.661 26.1125 100.834 27.9253 86.2105L28.6414 86.2993C26.847 100.776 29.561 115.453 36.4134 128.33C43.2659 141.208 53.9232 151.658 66.9323 158.257C79.9415 164.856 94.6693 167.282 109.108 165.204C123.546 163.126 136.992 156.646 147.613 146.647L148.107 147.172Z" fill="#154E6B"/>
<path d="M49.9085 42.8712C60.6372 32.7702 74.2202 26.224 88.8055 24.1251C103.391 22.0262 118.268 24.4768 131.41 31.1428C144.552 37.8088 155.317 48.3657 162.24 61.3741C169.162 74.3825 171.903 89.2094 170.091 103.833L169.374 103.744C171.169 89.2679 168.455 74.5905 161.602 61.7131C154.75 48.8358 144.093 38.3852 131.084 31.7864C118.074 25.1876 103.347 22.7617 88.9083 24.8394C74.47 26.9172 61.0238 33.3974 50.4032 43.3967L49.9085 42.8712Z" fill="#154E6B"/>
<path d="M46.152 31.1407L46.7604 33.184C48.6883 39.6588 55.3395 43.4988 61.9107 41.9311L63.9845 41.4363L61.9412 42.0448C55.4664 43.9727 51.6264 50.6238 53.1941 57.1951L53.6889 59.2689L53.0805 57.2256C51.1525 50.7508 44.5014 46.9108 37.9301 48.4785L35.8563 48.9733L37.8997 48.3648C44.3744 46.4369 48.2144 39.7858 46.6467 33.2145L46.152 31.1407Z" fill="#154E6B"/>
<path d="M182.125 94.2394L180.444 95.5513C175.119 99.7082 173.97 107.302 177.827 112.848L179.044 114.599L177.732 112.918C173.575 107.593 165.981 106.444 160.435 110.3L158.684 111.517L160.365 110.206C165.69 106.049 166.84 98.4551 162.983 92.9084L161.766 91.158L163.078 92.8386C167.234 98.164 174.828 99.3133 180.375 95.4565L182.125 94.2394Z" fill="#154E6B"/>
<path d="M153.017 158.209L152.373 156.177C150.333 149.736 143.616 146.013 137.073 147.694L135.008 148.225L137.041 147.581C143.481 145.541 147.205 138.824 145.523 132.281L144.992 130.216L145.636 132.249C147.676 138.689 154.393 142.413 160.936 140.731L163.001 140.2L160.969 140.844C154.528 142.884 150.805 149.601 152.486 156.144L153.017 158.209Z" fill="#154E6B"/>
<path d="M41.5646 80.5478L39.6018 81.3801C33.3822 84.0175 30.3073 91.0551 32.5975 97.4108L33.3202 99.4165L32.4879 97.4537C29.8505 91.2341 22.8129 88.1592 16.4572 90.4494L14.4515 91.1721L16.4143 90.3398C22.6339 87.7024 25.7088 80.6648 23.4186 74.3091L22.6959 72.3034L23.5282 74.2662C26.1656 80.4858 33.2032 83.5607 39.5589 81.2705L41.5646 80.5478Z" fill="#154E6B"/>
</svg>
