<svg width="48" height="45" viewBox="0 0 48 45" fill="none" xmlns="http://www.w3.org/2000/svg">
<mask id="mask0_8_3637" style="mask-type:luminance" maskUnits="userSpaceOnUse" x="0" y="0" width="48" height="45">
<path d="M47.35 43.6442V0.649967H0.65V43.6442H47.35Z" fill="white" stroke="white" stroke-width="1.3"/>
</mask>
<g mask="url(#mask0_8_3637)">
<path d="M43.7358 38.3435C37.5358 35.7158 27.1106 36.6792 23.9986 38.3435C20.8894 36.6792 10.4615 35.7158 4.26416 38.3435" stroke="white" stroke-width="1.3" stroke-miterlimit="10" stroke-linecap="round" stroke-linejoin="round"/>
<path d="M35.0459 43.3735L43.2867 43.3637C45.8699 43.3612 47.2969 41.6429 47.2969 39.8315V17.0692C47.2969 15.6377 46.0266 14.466 44.4746 14.466H43.7358M23.9987 38.3435V43.3857L31.7612 43.3784" stroke="white" stroke-width="1.3" stroke-miterlimit="10" stroke-linecap="round" stroke-linejoin="round"/>
<path d="M20.1959 27.1169C18.2559 26.077 11.761 25.4761 7.89709 27.1169" stroke="white" stroke-width="1.3" stroke-miterlimit="10" stroke-linecap="round" stroke-linejoin="round"/>
<path d="M20.1959 31.9163C18.2559 30.8763 11.761 30.2754 7.89709 31.9163" stroke="white" stroke-width="1.3" stroke-miterlimit="10" stroke-linecap="round" stroke-linejoin="round"/>
<path d="M20.1959 22.3174C18.2559 21.2775 11.761 20.6741 7.89709 22.3174" stroke="white" stroke-width="1.3" stroke-miterlimit="10" stroke-linecap="round" stroke-linejoin="round"/>
<path d="M23.9986 43.3857L4.71328 43.3637C2.12747 43.3613 0.703125 41.6429 0.703125 39.8315V17.0693C0.703125 15.6377 1.97072 14.4661 3.52275 14.4661H4.26412" stroke="white" stroke-width="1.3" stroke-miterlimit="10" stroke-linecap="round" stroke-linejoin="round"/>
<path d="M12.1011 11.1791C9.66425 11.3016 8.0511 11.537 6.50713 11.9414C4.83294 12.3802 4.26416 12.5198 4.26416 13.8239V38.7015C4.26416 39.4614 4.9206 40.084 5.72319 40.084H23.9986M23.9986 12.7111C22.6381 11.983 19.8769 11.3899 15.5877 11.1741" stroke="white" stroke-width="1.3" stroke-miterlimit="10" stroke-linecap="round" stroke-linejoin="round"/>
<path d="M27.8042 27.1169C29.7415 26.077 36.2391 25.4761 40.1004 27.1169" stroke="white" stroke-width="1.3" stroke-miterlimit="10" stroke-linecap="round" stroke-linejoin="round"/>
<path d="M27.8042 31.9163C29.7415 30.8763 36.2391 30.2754 40.1004 31.9163" stroke="white" stroke-width="1.3" stroke-miterlimit="10" stroke-linecap="round" stroke-linejoin="round"/>
<path d="M43.7358 38.3435C37.5358 35.7158 27.1106 36.6792 23.9986 38.3435C20.8894 36.6792 10.4615 35.7158 4.26416 38.3435" stroke="white" stroke-width="1.3" stroke-miterlimit="10" stroke-linecap="round" stroke-linejoin="round"/>
<path d="M23.9987 12.711V38.3435" stroke="white" stroke-width="1.3" stroke-miterlimit="10" stroke-linecap="round" stroke-linejoin="round"/>
<path d="M33.3077 18.3757V12.5369" stroke="white" stroke-width="1.3" stroke-miterlimit="10" stroke-linecap="round" stroke-linejoin="round"/>
<path d="M35.1281 12.5369H31.4155" stroke="white" stroke-width="1.3" stroke-miterlimit="10" stroke-linecap="round" stroke-linejoin="round"/>
<path d="M33.3132 2.62402V0.908141" stroke="white" stroke-width="1.3" stroke-miterlimit="10" stroke-linecap="round" stroke-linejoin="round"/>
<path d="M25.9652 2.93723L27.2834 4.15381" stroke="white" stroke-width="1.3" stroke-miterlimit="10" stroke-linecap="round" stroke-linejoin="round"/>
<path d="M40.6583 2.93723L39.3429 4.15381" stroke="white" stroke-width="1.3" stroke-miterlimit="10" stroke-linecap="round" stroke-linejoin="round"/>
<path d="M31.097 18.3758H35.5217C36.4784 18.3758 37.2625 19.0989 37.2625 19.9814C37.2625 20.8638 36.4784 21.5845 35.5217 21.5845H31.097C30.1378 21.5845 29.3564 20.8638 29.3564 19.9814C29.3564 19.0989 30.1378 18.3758 31.097 18.3758Z" stroke="white" stroke-width="1.3" stroke-miterlimit="10" stroke-linecap="round" stroke-linejoin="round"/>
<path d="M30.9268 18.3757H35.6916C35.6916 14.8411 39.4014 14.3851 39.3962 10.5832C39.3908 6.96037 36.3506 5.17822 33.3079 5.22C30.2677 5.17822 27.2275 6.96037 27.2222 10.5832C27.2169 14.3851 30.9268 14.8411 30.9268 18.3757Z" stroke="white" stroke-width="1.3" stroke-miterlimit="10" stroke-linecap="round" stroke-linejoin="round"/>
<path d="M39.3191 11.4953C40.1004 11.6128 40.8047 11.76 41.4902 11.9413C43.1672 12.3802 43.7358 12.5198 43.7358 13.8239V38.7015C43.7358 39.4614 43.0768 40.084 42.2742 40.084H23.9987M23.9987 12.7111C24.7162 12.3261 25.8244 11.9805 27.3418 11.7085" stroke="white" stroke-width="1.3" stroke-miterlimit="10" stroke-linecap="round" stroke-linejoin="round"/>
<path d="M20.1959 17.5154C18.2559 16.4779 11.761 15.8745 7.89709 17.5154" stroke="white" stroke-width="1.3" stroke-miterlimit="10" stroke-linecap="round" stroke-linejoin="round"/>
</g>
</svg>
