<svg width="130" height="116" viewBox="0 0 130 116" fill="none" xmlns="http://www.w3.org/2000/svg">
<path d="M89.7178 106.498C79.7498 111.86 68.3708 114.016 57.1323 112.674C45.8937 111.332 35.3427 106.556 26.9178 98.9974C18.4929 91.4392 12.6041 81.4665 10.0544 70.439C7.5047 59.4115 8.41816 47.866 12.6702 37.3767L13.184 37.585C8.97472 47.9686 8.07046 59.3978 10.5945 70.3141C13.1185 81.2305 18.9479 91.1027 27.288 98.5848C35.628 106.067 46.0727 110.795 57.198 112.123C68.3233 113.452 79.5877 111.317 89.4552 106.01L89.7178 106.498Z" fill="#1E1E1E"/>
<path d="M37.596 9.59261C47.564 4.23122 58.9431 2.07467 70.1816 3.41698C81.4201 4.75931 91.9711 9.53517 100.396 17.0934C108.821 24.6516 114.71 34.6244 117.259 45.6518C119.809 56.6793 118.896 68.2248 114.644 78.7141L114.13 78.5059C118.339 68.1222 119.243 56.6931 116.719 45.7767C114.195 34.8603 108.366 24.9881 100.026 17.506C91.6859 10.0239 81.2411 5.29619 70.1158 3.96739C58.9906 2.6386 47.7262 4.77343 37.8586 10.0808L37.596 9.59261Z" fill="#1E1E1E"/>
<path d="M37.1409 0.142578C37.3095 6.24799 42.2192 11.1577 48.3246 11.3263C42.2192 11.4949 37.3095 16.4046 37.1409 22.5101C36.9723 16.4046 32.0626 11.4949 25.9572 11.3263C32.0626 11.1577 36.9723 6.24799 37.1409 0.142578Z" fill="#FDD619"/>
<path d="M125.479 73.9886C119.856 76.3726 117.076 82.735 119.146 88.4812C116.762 82.858 110.399 80.0775 104.653 82.1476C110.276 79.7636 113.057 73.4012 110.987 67.655C113.371 73.2782 119.733 76.0587 125.479 73.9886Z" fill="#1E1E1E"/>
<path d="M91.1663 115.663C90.8917 109.561 85.8973 104.738 79.7899 104.675C85.8915 104.401 90.7151 99.4062 90.7776 93.2988C91.0523 99.4004 96.0466 104.224 102.154 104.286C96.0524 104.561 91.2288 109.555 91.1663 115.663Z" fill="#1E1E1E"/>
<path d="M23.9153 35.887C17.8667 36.7349 13.5346 42.1612 14.0474 48.2473C13.1996 42.1987 7.7733 37.8667 1.68712 38.3795C7.73573 37.5316 12.0678 32.1054 11.555 26.0192C12.4029 32.0678 17.8291 36.3998 23.9153 35.887Z" fill="#FDD619"/>
</svg>
