<svg width="43" height="40" viewBox="0 0 43 40" fill="none" xmlns="http://www.w3.org/2000/svg">
<path d="M21.5 0C9.64539 0 0 8.90073 0 19.8401C0 30.7795 9.64539 39.6802 21.5 39.6802C33.3546 39.6802 43 30.7795 43 19.8401C43.0004 8.90073 33.355 0 21.5 0ZM39.0415 28.7344H30.6414C31.7314 26.333 32.5024 23.576 32.6061 20.5246H41.5027C41.3842 23.4936 40.502 26.285 39.0415 28.7344ZM22.2414 37.4639V29.4184C22.2414 29.042 21.908 28.7343 21.5002 28.7343C21.0924 28.7343 20.7589 29.042 20.7589 29.4184V37.4707C18.0823 35.1037 11.8618 28.652 11.8618 19.8403C11.8618 11.0422 18.0819 4.58415 20.7585 2.21635V9.57816C20.7585 9.95448 21.0919 10.2622 21.4998 10.2622C21.9076 10.2622 22.241 9.95448 22.241 9.57816L22.2414 2.20988C24.9176 4.57694 31.1381 11.0282 31.1381 19.8403C31.1381 28.6384 24.9176 35.0974 22.2414 37.4643L22.2414 37.4639ZM1.50487 20.525H10.4015C10.5053 23.5765 11.2688 26.3335 12.3662 28.7348H3.95915C2.49856 26.2855 1.61638 23.4941 1.50487 20.525ZM3.95915 10.9466H12.3592C11.2692 13.348 10.4982 16.105 10.3945 19.1564H1.49786C1.61644 16.1874 2.49859 13.3959 3.95915 10.9466ZM32.6058 19.1564C32.5021 16.105 31.7385 13.348 30.6411 10.9466H39.0411C40.5092 13.3959 41.3839 16.1874 41.5024 19.1564H32.6058ZM38.1366 9.5789H29.9667C27.95 5.77517 25.2516 2.99067 23.5537 1.46478C29.6255 2.03938 34.8963 5.12474 38.1365 9.5789H38.1366ZM19.446 1.46478C17.7482 2.9903 15.0497 5.7748 13.033 9.5789H4.86307C8.10285 5.12474 13.3742 2.03939 19.4459 1.46478H19.446ZM4.86317 30.103H13.0331C15.0498 33.9067 17.7482 36.6912 19.4461 38.2171C13.3743 37.6425 8.10335 34.5568 4.86317 30.103ZM23.5538 38.2171C25.2516 36.6916 27.9501 33.9071 29.9668 30.103H38.1367C34.8969 34.5568 29.6256 37.6425 23.5539 38.2171H23.5538Z" fill="white"/>
<path d="M28.4092 14.0589L21.7367 12.0065C21.5809 11.9585 21.4177 11.9585 21.2697 12.0065L14.5972 14.0589C14.2935 14.155 14.0857 14.4147 14.0857 14.709V18.4787C14.0857 22.6587 16.9697 26.3465 21.2623 27.6737C21.3362 27.6943 21.418 27.708 21.4995 27.708C21.5809 27.708 21.6552 27.6943 21.7366 27.6737C26.0296 26.353 28.9136 22.6587 28.9136 18.4787V14.709C28.9136 14.4146 28.7058 14.155 28.4092 14.0589ZM27.4308 18.4788C27.4308 21.9885 25.0582 25.1013 21.4995 26.2985C17.9408 25.1013 15.5683 21.9885 15.5683 18.4788V15.2017L21.4995 13.3749L27.4308 15.2017V18.4788Z" fill="white"/>
</svg>
