<svg width="43" height="43" viewBox="0 0 43 43" fill="none" xmlns="http://www.w3.org/2000/svg">
<g clip-path="url(#clip0_8_3666)">
<path d="M39.6406 10.0781C39.4624 10.0781 39.2915 10.0073 39.1655 9.88134C39.0395 9.75534 38.9688 9.58444 38.9688 9.40625C38.9688 8.29497 38.0644 7.39062 36.9531 7.39062C36.7749 7.39062 36.604 7.31984 36.478 7.19384C36.352 7.06784 36.2812 6.89694 36.2812 6.71875C36.2812 6.54056 36.352 6.36966 36.478 6.24366C36.604 6.11766 36.7749 6.04688 36.9531 6.04688C38.0644 6.04688 38.9688 5.14253 38.9688 4.03125C38.9688 3.85306 39.0395 3.68216 39.1655 3.55616C39.2915 3.43016 39.4624 3.35938 39.6406 3.35938C39.8188 3.35938 39.9897 3.43016 40.1157 3.55616C40.2417 3.68216 40.3125 3.85306 40.3125 4.03125C40.3125 5.14253 41.2168 6.04688 42.3281 6.04688C42.5063 6.04688 42.6772 6.11766 42.8032 6.24366C42.9292 6.36966 43 6.54056 43 6.71875C43 6.89694 42.9292 7.06784 42.8032 7.19384C42.6772 7.31984 42.5063 7.39062 42.3281 7.39062C41.2168 7.39062 40.3125 8.29497 40.3125 9.40625C40.3125 9.58444 40.2417 9.75534 40.1157 9.88134C39.9897 10.0073 39.8188 10.0781 39.6406 10.0781ZM38.9667 6.71875C39.222 6.91023 39.4491 7.138 39.6406 7.39264C39.8324 7.13738 40.0593 6.91051 40.3145 6.71875C40.0593 6.52699 39.8324 6.30012 39.6406 6.04486C39.4489 6.30012 39.222 6.52699 38.9667 6.71875ZM38.9688 24.1875C38.7906 24.1875 38.6197 24.1167 38.4937 23.9907C38.3677 23.8647 38.2969 23.6938 38.2969 23.5156C38.2969 22.4043 37.3925 21.5 36.2812 21.5C36.1031 21.5 35.9322 21.4292 35.8062 21.3032C35.6802 21.1772 35.6094 21.0063 35.6094 20.8281C35.6094 20.6499 35.6802 20.479 35.8062 20.353C35.9322 20.227 36.1031 20.1562 36.2812 20.1562C37.3925 20.1562 38.2969 19.2519 38.2969 18.1406C38.2969 17.9624 38.3677 17.7915 38.4937 17.6655C38.6197 17.5395 38.7906 17.4688 38.9688 17.4688C39.1469 17.4688 39.3178 17.5395 39.4438 17.6655C39.5698 17.7915 39.6406 17.9624 39.6406 18.1406C39.6406 19.2519 40.545 20.1562 41.6562 20.1562C41.8344 20.1562 42.0053 20.227 42.1313 20.353C42.2573 20.479 42.3281 20.6499 42.3281 20.8281C42.3281 21.0063 42.2573 21.1772 42.1313 21.3032C42.0053 21.4292 41.8344 21.5 41.6562 21.5C40.545 21.5 39.6406 22.4043 39.6406 23.5156C39.6406 23.6938 39.5698 23.8647 39.4438 23.9907C39.3178 24.1167 39.1469 24.1875 38.9688 24.1875ZM38.2949 20.8281C38.5502 21.0196 38.7773 21.2474 38.9688 21.502C39.1605 21.2468 39.3874 21.0199 39.6426 20.8281C39.3874 20.6364 39.1605 20.4095 38.9688 20.1542C38.777 20.4095 38.5501 20.6364 38.2949 20.8281ZM3.35938 7.39062C3.18118 7.39062 3.01029 7.31984 2.88429 7.19384C2.75829 7.06784 2.6875 6.89694 2.6875 6.71875C2.6875 5.60747 1.78316 4.70312 0.671875 4.70312C0.493683 4.70312 0.322789 4.63234 0.196788 4.50634C0.0707866 4.38034 0 4.20944 0 4.03125C0 3.85306 0.0707866 3.68216 0.196788 3.55616C0.322789 3.43016 0.493683 3.35938 0.671875 3.35938C1.78316 3.35938 2.6875 2.45503 2.6875 1.34375C2.6875 1.16556 2.75829 0.994664 2.88429 0.868663C3.01029 0.742662 3.18118 0.671875 3.35938 0.671875C3.53757 0.671875 3.70846 0.742662 3.83446 0.868663C3.96046 0.994664 4.03125 1.16556 4.03125 1.34375C4.03125 2.45503 4.93559 3.35938 6.04688 3.35938C6.22507 3.35938 6.39596 3.43016 6.52196 3.55616C6.64796 3.68216 6.71875 3.85306 6.71875 4.03125C6.71875 4.20944 6.64796 4.38034 6.52196 4.50634C6.39596 4.63234 6.22507 4.70312 6.04688 4.70312C4.93559 4.70312 4.03125 5.60747 4.03125 6.71875C4.03125 6.89694 3.96046 7.06784 3.83446 7.19384C3.70846 7.31984 3.53757 7.39062 3.35938 7.39062ZM2.68548 4.03125C2.9408 4.22273 3.16789 4.4505 3.35938 4.70514C3.55113 4.44988 3.77801 4.22301 4.03327 4.03125C3.77801 3.83949 3.55113 3.61262 3.35938 3.35736C3.16762 3.61262 2.94074 3.83949 2.68548 4.03125ZM4.70312 24.1875C4.52493 24.1875 4.35404 24.1167 4.22804 23.9907C4.10204 23.8647 4.03125 23.6938 4.03125 23.5156C4.03125 22.4043 3.12691 21.5 2.01562 21.5C1.83743 21.5 1.66654 21.4292 1.54054 21.3032C1.41454 21.1772 1.34375 21.0063 1.34375 20.8281C1.34375 20.6499 1.41454 20.479 1.54054 20.353C1.66654 20.227 1.83743 20.1562 2.01562 20.1562C3.12691 20.1562 4.03125 19.2519 4.03125 18.1406C4.03125 17.9624 4.10204 17.7915 4.22804 17.6655C4.35404 17.5395 4.52493 17.4688 4.70312 17.4688C4.88132 17.4688 5.05221 17.5395 5.17821 17.6655C5.30421 17.7915 5.375 17.9624 5.375 18.1406C5.375 19.2519 6.27934 20.1562 7.39062 20.1562C7.56882 20.1562 7.73971 20.227 7.86571 20.353C7.99171 20.479 8.0625 20.6499 8.0625 20.8281C8.0625 21.0063 7.99171 21.1772 7.86571 21.3032C7.73971 21.4292 7.56882 21.5 7.39062 21.5C6.27934 21.5 5.375 22.4043 5.375 23.5156C5.375 23.6938 5.30421 23.8647 5.17821 23.9907C5.05221 24.1167 4.88132 24.1875 4.70312 24.1875ZM4.02923 20.8281C4.28455 21.0196 4.51164 21.2474 4.70312 21.502C4.89488 21.2468 5.12176 21.0199 5.37702 20.8281C5.12176 20.6364 4.89488 20.4095 4.70312 20.1542C4.51137 20.4095 4.28449 20.6364 4.02923 20.8281ZM21.5 42.3281C18.8629 42.3281 16.7969 40.8527 16.7969 38.9688C16.7969 38.7906 16.8677 38.6197 16.9937 38.4937C17.1197 38.3677 17.2906 38.2969 17.4688 38.2969C17.6469 38.2969 17.8178 38.3677 17.9438 38.4937C18.0698 38.6197 18.1406 38.7906 18.1406 38.9688C18.1406 40.0612 19.6792 40.9844 21.5 40.9844C23.3208 40.9844 24.8594 40.0612 24.8594 38.9688C24.8594 38.7906 24.9302 38.6197 25.0562 38.4937C25.1822 38.3677 25.3531 38.2969 25.5312 38.2969C25.7094 38.2969 25.8803 38.3677 26.0063 38.4937C26.1323 38.6197 26.2031 38.7906 26.2031 38.9688C26.2031 40.8527 24.1371 42.3281 21.5 42.3281Z" fill="white"/>
<path d="M0.67116 42.3282C0.501827 42.3286 0.338574 42.2651 0.214066 42.1503C0.0895578 42.0355 0.0129767 41.878 -0.000354704 41.7092C-0.0136861 41.5404 0.0372154 41.3728 0.142165 41.2399C0.247115 41.107 0.398373 41.0186 0.565675 40.9925L17.3626 38.305C17.4498 38.2902 17.539 38.293 17.6252 38.3131C17.7113 38.3332 17.7926 38.3703 17.8642 38.4221C17.9359 38.474 17.9965 38.5396 18.0426 38.6151C18.0887 38.6906 18.1192 38.7745 18.1325 38.862C18.1465 38.9491 18.1432 39.0381 18.1228 39.124C18.1024 39.2098 18.0652 39.2908 18.0135 39.3623C17.9618 39.4338 17.8965 39.4944 17.8214 39.5407C17.7462 39.5869 17.6627 39.6179 17.5755 39.6319L0.777988 42.3194C0.742681 42.3253 0.706949 42.3282 0.67116 42.3282Z" fill="white"/>
<path d="M2.01558 41.6562C1.9091 41.6562 1.80415 41.6308 1.7094 41.5823C1.61464 41.5337 1.53278 41.4633 1.47057 41.3769C1.40836 41.2905 1.36759 41.1905 1.35161 41.0852C1.33562 40.9799 1.34489 40.8724 1.37865 40.7714L2.7224 36.7401C2.74944 36.6554 2.79305 36.5768 2.8507 36.509C2.90836 36.4412 2.9789 36.3856 3.05823 36.3453C3.13756 36.305 3.22411 36.2809 3.31285 36.2743C3.40159 36.2677 3.49075 36.2788 3.57515 36.307C3.65956 36.3352 3.73753 36.3798 3.80454 36.4384C3.87155 36.4969 3.92626 36.5682 3.9655 36.648C4.00474 36.7279 4.02773 36.8148 4.03312 36.9036C4.03852 36.9924 4.02622 37.0814 3.99694 37.1654L2.65319 41.1967C2.60865 41.3304 2.52318 41.4467 2.40887 41.5292C2.29456 41.6117 2.15654 41.6561 2.01558 41.6562Z" fill="white"/>
<path d="M21.4999 38.9687C21.3218 38.9687 21.1509 38.8979 21.0249 38.7719C20.8989 38.6459 20.8281 38.475 20.8281 38.2968C20.8281 36.5043 17.9236 32.9218 14.1093 32.9218C10.9656 32.9218 9.85904 33.8315 8.45885 34.9838C7.32338 35.9177 6.03607 36.9766 3.52191 37.6041C3.43633 37.6256 3.34733 37.63 3.26004 37.6171C3.17274 37.6041 3.08886 37.5741 3.01321 37.5286C2.93756 37.4832 2.87162 37.4232 2.81917 37.3523C2.76673 37.2813 2.72882 37.2007 2.7076 37.115C2.68609 37.0294 2.68169 36.9404 2.69464 36.8531C2.7076 36.7658 2.73766 36.6819 2.7831 36.6063C2.82854 36.5306 2.88847 36.4647 2.95945 36.4122C3.03043 36.3598 3.11106 36.3219 3.19673 36.3007C5.41593 35.7457 6.52923 34.8306 7.60557 33.9451C9.08571 32.7276 10.4846 31.5774 14.11 31.5774C18.5605 31.5774 22.1725 35.6429 22.1725 38.2961C22.1725 38.4743 22.1017 38.6452 21.9757 38.7712C21.8497 38.8972 21.6788 38.968 21.5006 38.968L21.4999 38.9687Z" fill="white"/>
<path d="M2.68675 40.3124C2.51908 40.313 2.35726 40.2509 2.23307 40.1382C2.10887 40.0256 2.03128 39.8706 2.01554 39.7036C1.9998 39.5367 2.04704 39.3699 2.14799 39.2361C2.24894 39.1022 2.39629 39.0109 2.56111 38.9801C4.50081 38.6072 6.46269 37.7425 8.36006 36.9067C10.6592 35.8935 12.83 34.9368 14.7818 34.9368C17.5621 34.9368 22.1725 36.8892 22.1725 38.968C22.1725 39.1462 22.1017 39.3171 21.9757 39.4431C21.8497 39.5691 21.6788 39.6399 21.5006 39.6399C21.3224 39.6399 21.1515 39.5691 21.0255 39.4431C20.8995 39.3171 20.8287 39.1462 20.8287 38.968C20.8287 38.1241 17.378 36.2805 14.7818 36.2805C13.1136 36.2805 11.0684 37.1822 8.90227 38.1362C6.93636 39.0023 4.90394 39.8979 2.81441 40.3003C2.77255 40.3083 2.72936 40.3124 2.68675 40.3124Z" fill="white"/>
<path d="M40.3132 40.3124C40.2715 40.3124 40.2285 40.3084 40.1862 40.3003C38.0973 39.8979 36.0642 39.0023 34.0983 38.1362C31.9322 37.1822 29.887 36.2805 28.2188 36.2805C25.6226 36.2805 22.1719 38.1241 22.1719 38.968C22.1719 39.1462 22.1011 39.3171 21.9751 39.4431C21.8491 39.5691 21.6782 39.6399 21.5 39.6399C21.3218 39.6399 21.1509 39.5691 21.0249 39.4431C20.8989 39.3171 20.8281 39.1462 20.8281 38.968C20.8281 36.8892 25.4385 34.9368 28.2188 34.9368C30.1699 34.9368 32.3414 35.8935 34.6405 36.9067C36.5379 37.7425 38.4998 38.6072 40.4395 38.9801C40.603 39.0124 40.7486 39.1042 40.8482 39.2378C40.9479 39.3714 40.9944 39.5372 40.9787 39.7031C40.9631 39.8689 40.8864 40.0231 40.7636 40.1357C40.6407 40.2483 40.4798 40.3113 40.3132 40.3124Z" fill="white"/>
<path d="M42.3288 42.3281C42.293 42.3281 42.2573 42.3252 42.222 42.3193L25.4251 39.6318C25.2491 39.6036 25.0916 39.5066 24.9871 39.3622C24.8827 39.2178 24.8399 39.0378 24.8681 38.8619C24.8964 38.6859 24.9933 38.5284 25.1377 38.4239C25.2821 38.3195 25.4621 38.2766 25.6381 38.3049L42.435 40.9924C42.6023 41.0185 42.7535 41.1069 42.8585 41.2398C42.9634 41.3727 43.0143 41.5403 43.001 41.7091C42.9877 41.8779 42.9111 42.0354 42.7866 42.1502C42.6621 42.265 42.4981 42.3285 42.3288 42.3281Z" fill="white"/>
<path d="M40.9843 41.6562C40.8433 41.6562 40.7059 41.6118 40.5916 41.5293C40.4773 41.4469 40.3918 41.3305 40.3474 41.1967L39.0036 37.1654C38.9743 37.0814 38.962 36.9924 38.9674 36.9036C38.9728 36.8148 38.9958 36.7279 39.035 36.648C39.0743 36.5682 39.129 36.4969 39.196 36.4384C39.263 36.3798 39.341 36.3352 39.4254 36.307C39.5098 36.2788 39.599 36.2677 39.6877 36.2743C39.7764 36.2809 39.863 36.305 39.9423 36.3453C40.0217 36.3856 40.0922 36.4412 40.1498 36.509C40.2075 36.5768 40.2511 36.6554 40.2782 36.7401L41.6219 40.7714C41.6557 40.8724 41.6649 40.9799 41.6489 41.0852C41.633 41.1905 41.5922 41.2905 41.53 41.3769C41.4678 41.4633 41.3859 41.5337 41.2911 41.5823C41.1964 41.6308 41.0908 41.6562 40.9843 41.6562Z" fill="white"/>
<path d="M21.5 38.9688C21.3218 38.9688 21.1509 38.898 21.0249 38.772C20.8989 38.646 20.8281 38.4751 20.8281 38.2969C20.8281 35.6436 24.4401 31.5781 28.8906 31.5781C32.5161 31.5781 33.9149 32.7284 35.395 33.9458C36.4714 34.8307 37.5847 35.7464 39.8039 36.3014C39.9731 36.3478 40.1175 36.4586 40.2061 36.6101C40.2947 36.7616 40.3206 36.9417 40.2781 37.112C40.2356 37.2823 40.1282 37.4292 39.9788 37.5213C39.8294 37.6134 39.6499 37.6434 39.4787 37.6048C36.9652 36.9766 35.6779 35.9178 34.5418 34.9845C33.1416 33.8323 32.035 32.9225 28.8913 32.9225C25.0771 32.9225 22.1725 36.505 22.1725 38.2975C22.1725 38.4757 22.1018 38.6466 21.9758 38.7726C21.8498 38.8986 21.6789 38.9694 21.5007 38.9694L21.5 38.9688Z" fill="white"/>
<path d="M21.5 38.9688C21.3218 38.9688 21.1509 38.898 21.0249 38.772C20.8989 38.646 20.8281 38.4751 20.8281 38.2969C20.8281 33.9465 14.3714 28.8906 6.04688 28.8906C5.86868 28.8906 5.69779 28.8198 5.57179 28.6938C5.44579 28.5678 5.375 28.3969 5.375 28.2188C5.375 28.0406 5.44579 27.8697 5.57179 27.7437C5.69779 27.6177 5.86868 27.5469 6.04688 27.5469C15.2758 27.5469 22.1719 33.2222 22.1719 38.2969C22.1719 38.4751 22.1011 38.646 21.9751 38.772C21.8491 38.898 21.6782 38.9688 21.5 38.9688Z" fill="white"/>
<path d="M21.5 38.9687C21.3218 38.9687 21.1509 38.8979 21.0249 38.7719C20.8989 38.6459 20.8281 38.475 20.8281 38.2968C20.8281 33.2221 27.7243 27.5468 36.9531 27.5468C37.1313 27.5468 37.3022 27.6176 37.4282 27.7436C37.5542 27.8696 37.625 28.0405 37.625 28.2187C37.625 28.3969 37.5542 28.5678 37.4282 28.6938C37.3022 28.8198 37.1313 28.8905 36.9531 28.8905C28.6286 28.8905 22.1719 33.9464 22.1719 38.2968C22.1719 38.475 22.1011 38.6459 21.9751 38.7719C21.8491 38.8979 21.6782 38.9687 21.5 38.9687ZM21.4825 26.8769C19.8963 26.8768 18.3256 26.5637 16.8605 25.9557C15.3954 25.3477 14.0646 24.4566 12.9443 23.3335C10.7342 21.135 9.46548 18.1634 9.40625 15.0466C9.40625 15.0204 9.40625 14.9942 9.40961 14.9686C9.34578 11.6737 10.5995 8.57305 12.9443 6.22955C13.5972 5.57447 14.3236 4.99707 15.1091 4.50888C16.5283 3.62803 18.1144 3.05041 19.7677 2.81233C21.4209 2.57425 23.1055 2.68087 24.7156 3.12548C26.7354 3.67597 28.5757 4.74622 30.053 6.22955C30.1242 6.30144 30.1786 6.35653 30.2317 6.4217C32.1862 8.42927 33.3835 11.1282 33.5662 13.9783C33.6853 15.7305 33.4186 17.4876 32.7848 19.1255C32.1843 20.7068 31.2532 22.1416 30.0536 23.3341C28.4577 24.9347 26.4426 26.0525 24.2399 26.5591C23.3362 26.7702 22.4113 26.8771 21.4832 26.8776L21.4825 26.8769ZM10.7513 15.0922C10.8225 17.8364 11.9481 20.4476 13.8944 22.3834C14.6012 23.0897 15.4023 23.695 16.2748 24.182C18.6069 25.4779 21.338 25.8586 23.9355 25.2497C25.8931 24.7992 27.6839 23.8058 29.1023 22.3834C30.1685 21.3239 30.9961 20.049 31.5298 18.6438C32.093 17.1875 32.33 15.6254 32.2238 14.0676C32.0614 11.532 30.9992 9.13757 29.2286 7.3153C29.1654 7.24273 29.1399 7.21788 29.113 7.191C27.7978 5.86826 26.1588 4.91337 24.3595 4.42153C22.928 4.0255 21.4299 3.93023 19.9597 4.14173C18.4896 4.35322 17.0791 4.8669 15.8173 5.65039C15.1195 6.08456 14.474 6.59767 13.8937 7.17958C11.7941 9.27852 10.6795 12.0601 10.754 15.0116C10.754 15.0392 10.754 15.066 10.7507 15.0922H10.7513Z" fill="white"/>
<path d="M28.1132 15.1818C27.9016 15.1818 27.6832 15.1334 27.4575 15.0044C26.7567 14.6093 26.3993 13.5881 26.6801 12.7764C26.8562 12.2759 27.2082 12.0528 27.4414 11.9057C27.5892 11.8123 27.649 11.7706 27.6866 11.7055C27.8122 11.4891 27.5993 11.0074 27.4286 10.6204C27.3043 10.3402 27.1881 10.0755 27.133 9.80541C26.9166 8.75661 27.6248 7.6151 29.2991 6.31703C29.4297 6.21573 29.593 6.1661 29.7578 6.17763C29.9227 6.18916 30.0775 6.26103 30.1927 6.37952C32.1859 8.4304 33.3821 11.1251 33.5662 13.9791C33.5725 14.0773 33.5573 14.1757 33.5214 14.2674C33.4855 14.359 33.43 14.4417 33.3586 14.5095C33.2873 14.5773 33.2019 14.6286 33.1086 14.6598C33.0152 14.691 32.9162 14.7013 32.8184 14.6899C32.5551 14.6583 32.2909 14.6341 32.0262 14.6174L31.9322 14.6113C31.1313 14.5603 30.7275 14.5354 30.276 14.61C29.7654 14.6913 29.3972 14.8283 29.072 14.9493C28.7609 15.0648 28.4438 15.1831 28.1126 15.1831L28.1132 15.1818ZM29.6444 7.76896C28.4606 8.79222 28.4082 9.33644 28.4492 9.53464C28.4761 9.66432 28.5688 9.87461 28.6588 10.0782C28.937 10.7084 29.3172 11.5718 28.8476 12.3827C28.638 12.7388 28.3618 12.9135 28.1603 13.0412C27.9863 13.1513 27.9661 13.1715 27.95 13.2185C27.8808 13.4188 27.9943 13.7641 28.122 13.836C28.1919 13.8407 28.429 13.754 28.6057 13.6888C28.9511 13.5605 29.4241 13.3845 30.0617 13.283C30.6617 13.1836 31.1414 13.2145 32.0182 13.2696L32.1116 13.2756L32.1458 13.2777C31.8616 11.2386 30.9934 9.32541 29.6458 7.76896H29.6444ZM16.3789 12.0925C16.1122 12.0925 15.8381 12.0596 15.5626 11.987C14.3385 11.6611 13.3548 10.658 13.1694 9.54741C13.0209 8.65919 13.4193 8.0713 13.8037 7.50289C14.0825 7.09103 14.3989 6.62408 14.6153 5.91593C14.7053 5.62232 14.7617 5.33677 14.794 5.01427C14.8133 4.83769 14.9012 4.67573 15.0386 4.56317C15.176 4.45062 15.3521 4.39644 15.529 4.41227C15.7063 4.42992 15.8693 4.51728 15.9822 4.65512C16.0951 4.79296 16.1487 4.97 16.131 5.1473C16.0929 5.54148 16.0155 5.93086 15.8999 6.30964C15.6251 7.20996 15.2321 7.79046 14.9163 8.25674C14.5736 8.76266 14.4366 8.98236 14.4943 9.32703C14.5924 9.9156 15.1991 10.5008 15.9053 10.6889C16.77 10.916 17.6347 10.4659 18.0727 9.95188C18.3784 9.59108 18.5451 9.31427 18.6929 9.06971C19.2384 8.16536 19.6362 7.90736 21.4019 7.81666C23.4907 7.70244 23.8865 9.25447 24.0766 9.99689C24.0921 10.0607 24.1122 10.1353 24.131 10.2018C24.5133 10.1628 24.9373 9.90821 25.1328 9.57361C25.37 9.16511 25.2067 8.62896 24.8466 7.55261C24.4352 6.36039 24.1105 5.14 23.8751 3.90097C23.8556 3.81332 23.854 3.72266 23.8702 3.63436C23.8864 3.54606 23.9201 3.4619 23.9694 3.38685C24.0187 3.3118 24.0825 3.24739 24.1571 3.19742C24.2317 3.14746 24.3155 3.11294 24.4037 3.09592C24.4918 3.0789 24.5825 3.07972 24.6703 3.09833C24.7581 3.11695 24.8413 3.15297 24.915 3.20428C24.9887 3.25559 25.0513 3.32114 25.0992 3.39707C25.1471 3.47299 25.1793 3.55775 25.1939 3.64633C25.3801 4.61047 25.6105 5.53228 25.8793 6.38489C25.9619 6.64961 26.0445 6.89485 26.1211 7.12597C26.5269 8.33803 26.8474 9.29546 26.2945 10.2488C25.7785 11.1317 24.6894 11.6678 23.7165 11.5274C23.0574 11.4293 22.8941 10.7937 22.7752 10.3301C22.5689 9.52725 22.4359 9.11338 21.4704 9.15772C20.1683 9.22491 20.1374 9.2753 19.8438 9.76174C19.6879 10.0211 19.4736 10.3765 19.0974 10.8213C18.5108 11.51 17.5017 12.0925 16.3789 12.0925ZM15.9463 25.4399C15.6372 25.4399 15.359 25.2256 15.2898 24.9112C15.1917 24.4597 15.0789 23.8597 14.9828 22.8257C14.8142 21.0029 14.7234 20.0253 14.9969 18.8146C15.2005 17.9243 15.482 17.405 15.6876 17.026C15.8865 16.6606 15.9684 16.5094 15.9342 16.1802C15.8428 15.2557 14.8847 14.1041 13.6545 13.926C12.4095 13.7466 11.4172 14.6772 10.883 15.1771C10.7668 15.2846 10.6667 15.3847 10.5787 15.4807L10.0774 15.0326L9.60242 14.5576L9.60712 14.5529C9.69715 14.4528 9.82481 14.3251 9.96859 14.1921C10.5652 13.6358 11.9661 12.3249 13.8467 12.5957C15.5707 12.8456 17.1073 14.3923 17.2712 16.0451C17.3471 16.7848 17.1039 17.2337 16.8681 17.667C16.6813 18.0124 16.4683 18.4034 16.3064 19.1122C16.0806 20.1133 16.1539 20.9095 16.3165 22.6543C16.4099 23.6608 16.5086 24.1929 16.6034 24.625C16.6244 24.7231 16.6232 24.8246 16.5999 24.9222C16.5767 25.0199 16.5318 25.111 16.4688 25.1891C16.4057 25.2671 16.326 25.3301 16.2355 25.3734C16.145 25.4167 16.0459 25.4392 15.9456 25.4393L15.9463 25.4399ZM24.088 26.5761C23.9654 26.5762 23.8451 26.5426 23.7402 26.4792C23.6353 26.4157 23.5498 26.3247 23.493 26.2161C23.4361 26.1074 23.4101 25.9853 23.4178 25.8629C23.4254 25.7405 23.4665 25.6226 23.5364 25.5219C23.5647 25.4803 23.6077 25.4016 23.6533 25.2592C23.8724 24.545 23.5499 23.5325 22.9875 23.1811C22.7389 23.0245 22.5118 23.0299 22.1349 23.0555C21.6928 23.0843 21.0901 23.1233 20.5311 22.6476C19.8492 22.0712 19.612 21.0654 19.827 19.6591C19.8559 19.4435 20.1784 17.4225 22.0529 16.3293C23.6789 15.3873 25.9995 15.4807 26.7406 16.5195C28.5224 19.0168 31.1427 18.4867 31.9369 18.2502C32.0559 18.2089 32.184 18.2019 32.3068 18.2301C32.4295 18.2582 32.5419 18.3204 32.6309 18.4094C32.6935 18.4715 32.7431 18.5452 32.7771 18.6265C32.811 18.7078 32.8286 18.795 32.8288 18.883C32.829 18.9711 32.8118 19.0583 32.7781 19.1398C32.7445 19.2212 32.6952 19.2952 32.6329 19.3575C32.5534 19.4372 32.4556 19.4965 32.3481 19.5301C30.317 20.1449 27.4891 19.8835 25.6461 17.3008C25.464 17.0455 23.9933 16.7593 22.7275 17.4923C21.3831 18.2764 21.1647 19.7881 21.156 19.852C20.9806 21.0009 21.1916 21.449 21.3985 21.6244C21.5336 21.7393 21.6686 21.7393 22.0462 21.7164C22.4789 21.6889 23.0708 21.6499 23.6984 22.0436C24.7834 22.7209 25.3384 24.3434 24.9346 25.661C24.8681 25.8832 24.7689 26.0942 24.6403 26.2872C24.5786 26.3768 24.496 26.45 24.3997 26.5006C24.3034 26.5512 24.1962 26.5775 24.0874 26.5774L24.088 26.5761Z" fill="white"/>
<path d="M21.4825 26.8769C19.8963 26.8768 18.3256 26.5637 16.8605 25.9557C15.3954 25.3477 14.0646 24.4566 12.9443 23.3335C10.7342 21.135 9.46548 18.1634 9.40625 15.0466C9.40625 15.0204 9.40625 14.9942 9.40961 14.9686C9.34578 11.6737 10.5995 8.57305 12.9443 6.22955C13.5972 5.57447 14.3236 4.99707 15.1091 4.50888C16.5283 3.62803 18.1144 3.05041 19.7677 2.81233C21.4209 2.57425 23.1055 2.68087 24.7156 3.12548C26.7354 3.67597 28.5757 4.74622 30.053 6.22955C30.1242 6.30144 30.1786 6.35653 30.2317 6.4217C32.1862 8.42927 33.3835 11.1282 33.5662 13.9783C33.6853 15.7305 33.4186 17.4876 32.7848 19.1255C32.1843 20.7068 31.2532 22.1416 30.0536 23.3341C28.4577 24.9347 26.4426 26.0525 24.2399 26.5591C23.3362 26.7702 22.4113 26.8771 21.4832 26.8776L21.4825 26.8769ZM10.7513 15.0922C10.8225 17.8364 11.9481 20.4476 13.8944 22.3834C14.6012 23.0897 15.4023 23.695 16.2748 24.182C18.6069 25.4779 21.338 25.8586 23.9355 25.2497C25.8931 24.7992 27.6839 23.8058 29.1023 22.3834C30.1685 21.3239 30.9961 20.049 31.5298 18.6438C32.093 17.1875 32.33 15.6254 32.2238 14.0676C32.0614 11.532 30.9992 9.13757 29.2286 7.3153C29.1654 7.24273 29.1399 7.21788 29.113 7.191C27.7978 5.86826 26.1588 4.91337 24.3595 4.42153C22.928 4.0255 21.4299 3.93023 19.9597 4.14173C18.4896 4.35322 17.0791 4.8669 15.8173 5.65039C15.1195 6.08456 14.474 6.59767 13.8937 7.17958C11.7941 9.27852 10.6795 12.0601 10.754 15.0116C10.754 15.0392 10.754 15.066 10.7507 15.0922H10.7513Z" fill="white"/>
</g>
<defs>
<clipPath id="clip0_8_3666">
<rect width="43" height="43" fill="white"/>
</clipPath>
</defs>
</svg>
